<?xml version="1.0" standalone="no"?>
<!DOCTYPE svg PUBLIC "-//W3C//DTD SVG 1.1//EN" "http://www.w3.org/Graphics/SVG/1.1/DTD/svg11.dtd" >
<svg>
<metadata>
Created by FontForge 20090914 at Mon Jun 17 14:42:30 2019
 By www-data
&#194;&#169;2009 Commercial Type.
</metadata>
<defs>
<font id="GraphikLCWeb-Medium" horiz-adv-x="604" >
  <font-face 
    font-family="Graphik LC Web Medium"
    font-weight="500"
    font-stretch="normal"
    units-per-em="1000"
    panose-1="2 11 6 3 3 2 2 6 2 3"
    ascent="818"
    descent="-182"
    x-height="523"
    cap-height="715"
    bbox="-235 -225.002 1134 1123"
    underline-thickness="50"
    underline-position="-50"
    unicode-range="U+000D-U+FB02"
  />
<missing-glyph horiz-adv-x="512" 
 />
    <glyph glyph-name="f_f" unicode="ff" horiz-adv-x="671" 
d="M93 432l-70.998 -0.00195312v91h71v63c0 58.667 15 102.834 45 132.501s73.333 44.5 130 44.5c14.667 0 27 -0.833008 37 -2.5s20.667 -4.16699 32 -7.5v-94c-7.33301 2.66699 -15.333 5 -24 7s-18.667 3 -30 3c-24.667 0 -42.334 -7.16699 -53.001 -21.5
s-16 -32.833 -16 -55.5v-69h184v70c0 58 15.167 102 45.5 132s73.5 45 129.5 45c15.333 0 28 -0.833008 38 -2.5s20.667 -4.16699 32 -7.5v-94c-7.33301 2.66699 -15.5 4.83398 -24.5 6.50098s-19.167 2.5 -30.5 2.5c-24.667 0 -42.334 -7.16699 -53.001 -21.5
s-16 -32.833 -16 -55.5v-75h119v-91h-119v-432h-121v432h-184v-432h-121v432z" />
    <glyph glyph-name=".notdef" horiz-adv-x="512" 
 />
    <glyph glyph-name="NULL" horiz-adv-x="0" 
 />
    <glyph glyph-name="NULL" horiz-adv-x="0" 
 />
    <glyph glyph-name="nonmarkingreturn" unicode="&#xd;" horiz-adv-x="242" 
 />
    <glyph glyph-name="space" unicode=" " horiz-adv-x="242" 
 />
    <glyph glyph-name="exclam" unicode="!" horiz-adv-x="309" 
d="M152 -7c-22 0 -40.833 7.5 -56.5 22.5s-23.5 33.167 -23.5 54.5c0 22 7.83301 40.5 23.5 55.5s34.5 22.5 56.5 22.5c22.667 0 41.834 -7.5 57.501 -22.5s23.5 -33.5 23.5 -55.5c0 -21.333 -7.83301 -39.5 -23.5 -54.5s-34.834 -22.5 -57.501 -22.5zM86 715h135l-19 -500
h-98z" />
    <glyph glyph-name="quotedbl" unicode="&#x22;" horiz-adv-x="413" 
d="M53 715h121l-17 -257h-87zM235 715h121l-17 -257h-86z" />
    <glyph glyph-name="numbersign" unicode="#" horiz-adv-x="536" 
d="M283 266h-83l-24 -167h-89l24 167h-77v98h92l16 110h-82v95h96l22 146h88l-21 -146h83l22 146h89l-22 -146h81v-95h-95l-16 -110h85v-98h-100l-24 -167h-89zM215 364h83l16 110h-83z" />
    <glyph glyph-name="dollar" unicode="$" horiz-adv-x="639" 
d="M286 -9c-42.667 2.66699 -79.168 10.501 -109.501 23.501s-55.5 29.833 -75.5 50.5s-35 44.334 -45 71.001s-16.333 55 -19 85h124c2 -16 5.16699 -31.333 9.5 -46s11.166 -27.834 20.499 -39.501s21.5 -21.667 36.5 -30s34.5 -13.833 58.5 -16.5v225
c-37.333 6 -70 14.167 -98 24.5s-51.333 23.666 -70 39.999s-32.834 36 -42.501 59s-14.5 50.5 -14.5 82.5c0 28 5.33301 53.833 16 77.5s25.834 44.5 45.501 62.5s43.334 32.5 71.001 43.5s58.5 17.5 92.5 19.5v90h67v-91c64.667 -6 116.167 -25.667 154.5 -59
s60.5 -81.333 66.5 -144h-118c-5.33301 30.667 -16.166 54.667 -32.499 72s-39.833 28.666 -70.5 33.999v-205c36.667 -6 69.5 -14 98.5 -24s53.5 -23 73.5 -39s35.333 -35.833 46 -59.5s16 -52.5 16 -86.5c0 -29.333 -5.33301 -56.833 -16 -82.5s-26 -48.167 -46 -67.5
s-44.5 -35.166 -73.5 -47.499s-61.833 -19.833 -98.5 -22.5v-126h-67v126zM463.999 199.001c0 14 -1.66699 26.5 -5 37.5s-9.33301 20.667 -18 29s-20 15.5 -34 21.5s-32 11.333 -54 16v-214c34 4.66699 61 16.667 81 36s30 44 30 74zM178.999 531.001
c0 -13.333 1.5 -25.167 4.5 -35.5s8.33301 -19.5 16 -27.5s18.5 -15 32.5 -21s32 -11.333 54 -16v197c-34.667 -4 -61.167 -14.833 -79.5 -32.5s-27.5 -39.167 -27.5 -64.5z" />
    <glyph glyph-name="percent" unicode="%" horiz-adv-x="805" 
d="M205 456c23.333 0 41.833 8.00195 55.5 24.002s20.5 39 20.5 69c0 29.333 -6.83301 52.166 -20.5 68.499s-32.167 24.5 -55.5 24.5s-42 -8 -56 -24s-21 -39 -21 -69c0 -30.667 7 -53.834 21 -69.501s32.667 -23.5 56 -23.5zM204 375.002
c-24.667 0 -47.5 4.33105 -68.5 12.998s-39.333 20.834 -55 36.501s-28 34 -37 55s-13.5 43.833 -13.5 68.5s4.66699 47.667 14 69s21.833 39.833 37.5 55.5s34.167 27.834 55.5 36.501s44 13 68 13s46.5 -4.33301 67.5 -13s39.333 -20.5 55 -35.5s28 -33.167 37 -54.5
s13.5 -44.333 13.5 -69c0 -25.333 -4.5 -48.666 -13.5 -69.999s-21.333 -39.833 -37 -55.5s-34 -27.834 -55 -36.501s-43.833 -13 -68.5 -13zM589 715h84l-460 -715h-85zM597 71c23.333 0 41.833 8.00195 55.5 24.002s20.5 39 20.5 69
c0 29.333 -6.83301 52.166 -20.5 68.499s-32.167 24.5 -55.5 24.5s-42 -8 -56 -24s-21 -39 -21 -69c0 -30.667 7 -53.834 21 -69.501s32.667 -23.5 56 -23.5zM596 -9.99805c-24.667 0 -47.499 4.33105 -68.499 12.998s-39.333 20.834 -55 36.501s-27.834 34 -36.501 55
s-13 43.833 -13 68.5s4.5 47.667 13.5 69s21.5 39.833 37.5 55.5s34.5 27.834 55.5 36.501s43.5 13 67.5 13s46.5 -4.33301 67.5 -13s39.5 -20.5 55.5 -35.5s28.5 -33.167 37.5 -54.5s13.5 -44.333 13.5 -69c0 -25.333 -4.5 -48.666 -13.5 -69.999
s-21.333 -39.833 -37 -55.5s-34.167 -27.834 -55.5 -36.501s-44.333 -13 -69 -13z" />
    <glyph glyph-name="ampersand" unicode="&#x26;" horiz-adv-x="720" 
d="M568 146l119.999 -146.002h-153l-60 73c-22.667 -23.333 -49.5 -42.833 -80.5 -58.5s-69.5 -23.5 -115.5 -23.5c-34.667 0 -66.5 4.83301 -95.5 14.5s-53.833 23.334 -74.5 41.001s-36.667 39 -48 64s-17 53.167 -17 84.5c0 26 3.83301 49.667 11.5 71
s18.667 40.5 33 57.5s31.333 32.333 51 46s41.5 26.167 65.5 37.5c-37.333 49.333 -56 96.333 -56 141c0 28 5.33301 52.833 16 74.5s25.167 39.834 43.5 54.501s39.333 25.667 63 33s48.5 11 74.5 11c24.667 0 47.834 -3.5 69.501 -10.5s40.667 -17.333 57 -31
s29.333 -30 39 -49s14.5 -40.5 14.5 -64.5c0 -42 -13.167 -77.833 -39.5 -107.5s-62.833 -54.5 -109.5 -74.5l126 -154l73 140h109zM292.999 90.998c46.667 0 86.668 19.667 120.001 59l-152 185c-26.667 -13.333 -48.5 -29.5 -65.5 -48.5s-25.5 -45.167 -25.5 -78.5
c0 -36 10.667 -64.5 32 -85.5s51.666 -31.5 90.999 -31.5zM267 546.998c0 -16.667 4.66797 -33.167 14.001 -49.5s22.666 -34.833 39.999 -55.5c34 15.333 58.333 32 73 50s22 41 22 69c0 20.667 -6.33301 37.667 -19 51s-29.667 20 -51 20c-22 0 -40.667 -7 -56 -21
s-23 -35.333 -23 -64z" />
    <glyph glyph-name="quotesingle" unicode="'" horiz-adv-x="233" 
d="M53 715h123l-17 -257h-89z" />
    <glyph glyph-name="parenleft" unicode="(" horiz-adv-x="339" 
d="M213 -148c-21.333 25.333 -42 53.833 -62 85.5s-37.667 66.667 -53 105s-27.666 80 -36.999 125s-14 93.5 -14 145.5s4.66699 100.5 14 145.5s21.666 86.667 36.999 125s33 73.333 53 105s40.667 60.167 62 85.5h106c-20 -27.333 -39.167 -56.833 -57.5 -88.5
s-34.5 -66.5 -48.5 -104.5s-25.167 -79.167 -33.5 -123.5s-12.5 -92.5 -12.5 -144.5s4.16699 -100.167 12.5 -144.5s19.5 -85.5 33.5 -123.5s30.167 -73 48.5 -105s37.5 -61.333 57.5 -88h-106v0z" />
    <glyph glyph-name="parenright" unicode=")" horiz-adv-x="339" 
d="M17 -148c20 26.667 39.167 56 57.5 88s34.333 67 48 105s24.667 79.167 33 123.5s12.5 92.5 12.5 144.5s-4.16699 100.167 -12.5 144.5s-19.333 85.5 -33 123.5s-29.667 72.833 -48 104.5s-37.5 61.167 -57.5 88.5h105c21.333 -25.333 42 -53.833 62 -85.5
s37.667 -66.667 53 -105s27.666 -80 36.999 -125s14 -93.5 14 -145.5s-4.66699 -100.5 -14 -145.5s-21.666 -86.667 -36.999 -125s-33 -73.333 -53 -105s-40.667 -60.167 -62 -85.5h-105v0z" />
    <glyph glyph-name="asterisk" unicode="*" horiz-adv-x="433" 
d="M72 449l85 102l-120 23l27 89l114 -50l-13 130h100l-13 -130l114 50l26 -89l-121 -23l85 -102l-76 -55l-67 118l-64 -118z" />
    <glyph glyph-name="plus" unicode="+" horiz-adv-x="543" 
d="M219 294h-182v94h182v198h101v-198h183v-94h-183v-198h-101v198z" />
    <glyph glyph-name="comma" unicode="," horiz-adv-x="296" 
d="M28 -90l91 237l115 -46l-131 -224z" />
    <glyph glyph-name="hyphen" unicode="-" horiz-adv-x="357" 
d="M56 329h240v-100h-240v100z" />
    <glyph glyph-name="period" unicode="." horiz-adv-x="293" 
d="M144 -7c-22 0 -40.667 7.5 -56 22.5s-23 33.5 -23 55.5s7.66699 40.667 23 56s34 23 56 23c22.667 0 41.667 -7.66699 57 -23s23 -34 23 -56s-7.66699 -40.5 -23 -55.5s-34.333 -22.5 -57 -22.5z" />
    <glyph glyph-name="slash" unicode="/" horiz-adv-x="419" 
d="M295 776h103l-302 -924h-102z" />
    <glyph glyph-name="zero" unicode="0" horiz-adv-x="705" 
d="M354 96c55.333 0 96.333 20.668 123 62.001s40 102.666 40 183.999v35c0 76.667 -14 136.5 -42 179.5s-69 64.5 -123 64.5s-95.333 -20.833 -124 -62.5s-43 -102.5 -43 -182.5v-36c0 -81.333 14.667 -142.333 44 -183s71 -61 125 -61zM351 -9.99902
c-45.333 0 -86.498 8.16699 -123.498 24.5s-68.5 39.5 -94.5 69.5s-46.167 66.5 -60.5 109.5s-21.5 91.5 -21.5 145.5v36c0 54 7.16699 102.667 21.5 146s34.666 80.166 60.999 110.499s57.833 53.5 94.5 69.5s77.667 24 123 24s86.333 -8 123 -24s68 -39 94 -69
s46.167 -66.333 60.5 -109s21.5 -91 21.5 -145v-36c0 -54 -6.83301 -102.667 -20.5 -146s-33.334 -80.166 -59.001 -110.499s-57 -53.833 -94 -70.5s-78.833 -25 -125.5 -25z" />
    <glyph glyph-name="one" unicode="1" horiz-adv-x="423" 
d="M183 583l-151 -103v117l166 118h119v-715h-134v583z" />
    <glyph glyph-name="two" unicode="2" horiz-adv-x="582" 
d="M15 24l270.001 284.997c34 36 60.667 70.333 80 103s29 66 29 100s-9.16699 60.667 -27.5 80s-44.833 29 -79.5 29c-36 0 -64.833 -11 -86.5 -33s-35.5 -58.333 -41.5 -109h-122c4.66699 78.667 29.167 139.334 73.5 182.001s104.5 64 180.5 64
c36.667 0 69.667 -5.16699 99 -15.5s54.166 -24.666 74.499 -42.999s35.833 -40.5 46.5 -66.5s16 -54.667 16 -86c0 -46.667 -12.667 -90.667 -38 -132s-59.333 -82.666 -102 -123.999l-159 -155h304v-103h-517v24z" />
    <glyph glyph-name="three" unicode="3" horiz-adv-x="627" 
d="M304 -10c-42.667 0 -80.334 5.66699 -113.001 17s-60.334 27.166 -83.001 47.499s-40.167 44.666 -52.5 72.999s-19.166 59.5 -20.499 93.5h121c3.33301 -37.333 16.333 -68.5 39 -93.5s58 -37.5 106 -37.5c46.667 0 81 10.333 103 31s33 49 33 85c0 78 -43 117 -129 117
h-55v95h51c41.333 0 71.5 9 90.5 27s28.5 44 28.5 78c0 29.333 -9.16699 53.5 -27.5 72.5s-46.166 28.5 -83.499 28.5c-38 0 -68.667 -10.667 -92 -32s-37 -50 -41 -86h-118c2 30.667 9 59.5 21 86.5s28.833 50.167 50.5 69.5s47.834 34.666 78.501 45.999s65 17 103 17
c37.333 0 70.666 -5 99.999 -15s54 -23.667 74 -41s35.333 -37.666 46 -60.999s16 -48.333 16 -75c0 -40.667 -10.667 -73.5 -32 -98.5s-49.333 -44.167 -84 -57.5c42 -9.33301 75.5 -28.5 100.5 -57.5s37.5 -67.5 37.5 -115.5c0 -33.333 -6.33301 -63.166 -19 -89.499
s-30.5 -48.666 -53.5 -66.999s-51.167 -32.5 -84.5 -42.5s-70.333 -15 -111 -15z" />
    <glyph glyph-name="four" unicode="4" horiz-adv-x="645" 
d="M385 145h-354v47l316 523h167v-471h96v-99h-96v-145h-129v145zM387 244v370l-214 -370h214z" />
    <glyph glyph-name="five" unicode="5" horiz-adv-x="608" 
d="M291 -10c-42 0 -78.499 5.50098 -109.499 16.501s-57 26 -78 45s-37 41.667 -48 68s-17.5 54.833 -19.5 85.5h124c2.66699 -16.667 6.66699 -31.834 12 -45.501s12.833 -25.5 22.5 -35.5s22.167 -17.667 37.5 -23s34.666 -8 57.999 -8
c41.333 0 73.166 13.167 95.499 39.5s33.5 61.5 33.5 105.5c0 43.333 -11.5 77.666 -34.5 102.999s-54.5 38 -94.5 38c-36.667 0 -66.667 -5.66699 -90 -17s-43 -26.333 -59 -45h-68l6 398h434v-105h-332l-1 -194c14 16 33.667 30 59 42s57 18 95 18
c32 0 61.5 -5.5 88.5 -16.5s50.333 -26.833 70 -47.5s34.834 -45.834 45.501 -75.501s16 -63.167 16 -100.5c0 -38 -6.5 -72.167 -19.5 -102.5s-31.167 -56.166 -54.5 -77.499s-51 -37.666 -83 -48.999s-67.333 -17 -106 -17z" />
    <glyph glyph-name="six" unicode="6" horiz-adv-x="645" 
d="M331 -10c-52 0 -95.834 8.66797 -131.501 26.001s-64.5 41 -86.5 71s-37.833 65.333 -47.5 106s-14.5 84.667 -14.5 132v17c0 62 7.33301 116.833 22 164.5s35.167 87.667 61.5 120s57.666 56.833 93.999 73.5s75.833 25 118.5 25c65.333 0 118.333 -15.833 159 -47.5
s65.334 -78.834 74.001 -141.501h-124c-6.66699 27.333 -18 48.5 -34 63.5s-41.333 22.5 -76 22.5c-48 0 -86.667 -20.833 -116 -62.5s-45 -103.5 -47 -185.5c16.667 28 39.667 50.333 69 67s65.333 25 108 25c34 0 65.5 -5.66699 94.5 -17s53.833 -27.166 74.5 -47.499
s36.834 -44.833 48.501 -73.5s17.5 -60.334 17.5 -95.001c0 -36 -6.16699 -69 -18.5 -99s-30 -55.667 -53 -77s-50.667 -37.833 -83 -49.5s-68.833 -17.5 -109.5 -17.5zM328.999 88.001c40 0 72.332 13.001 96.999 39.001s37 60.333 37 103c0 43.333 -12 78.166 -36 104.499
s-56.667 39.5 -98 39.5c-20 0 -38.5 -3.33301 -55.5 -10s-31.667 -16 -44 -28s-21.833 -26.333 -28.5 -43s-10 -35 -10 -55c0 -48 12.833 -85 38.5 -111s58.834 -39 99.501 -39z" />
    <glyph glyph-name="seven" unicode="7" horiz-adv-x="549" 
d="M362 607h-333v108h500v-16l-260 -699h-137z" />
    <glyph glyph-name="eight" unicode="8" horiz-adv-x="631" 
d="M314 -10c-35.333 0 -69.165 4.50195 -101.498 13.502s-60.833 22.333 -85.5 40s-44.334 39.667 -59.001 66s-22 57.166 -22 92.499c0 46 12.333 84.333 37 115s57 53 97 67c-33.333 13.333 -59.333 32.5 -78 57.5s-28 55.5 -28 91.5c0 30 6.66699 57 20 81
s31.166 44.167 53.499 60.5s47.833 28.833 76.5 37.5s58.667 13 90 13c32 0 62.5 -4.33301 91.5 -13s54.333 -21.167 76 -37.5s39 -36.333 52 -60s19.5 -50.167 19.5 -79.5c0 -36.667 -9.66699 -67.334 -29 -92.001s-45 -44 -77 -58c42 -15.333 74.667 -38 98 -68
s35 -67 35 -111c0 -35.333 -7.16699 -66.5 -21.5 -93.5s-33.5 -49.5 -57.5 -67.5s-52.167 -31.667 -84.5 -41s-66.5 -14 -102.5 -14zM314.001 90.002c38 0 69.665 10.6641 94.998 31.9971s38 52 38 92c0 20 -3.33301 37.5 -10 52.5s-16 27.667 -28 38s-26 18.166 -42 23.499
s-33.333 8 -52 8c-18 0 -35.167 -2.66699 -51.5 -8s-30.666 -13.166 -42.999 -23.499s-22.166 -23.166 -29.499 -38.499s-11 -33 -11 -53s3.66699 -37.667 11 -53s17 -28.166 29 -38.499s26.167 -18.166 42.5 -23.499s33.5 -8 51.5 -8zM315.999 422.999
c32.667 0 59.333 9.16699 80 27.5s31 43.833 31 76.5c0 30.667 -10.833 55.334 -32.5 74.001s-48.5 28 -80.5 28s-58.833 -9.16699 -80.5 -27.5s-32.5 -43.5 -32.5 -75.5c0 -16 3 -30.5 9 -43.5s14.333 -23.833 25 -32.5s23 -15.334 37 -20.001s28.667 -7 44 -7z" />
    <glyph glyph-name="nine" unicode="9" horiz-adv-x="646" 
d="M302 -9c-73.333 0 -131.167 16.999 -173.5 50.999s-67.833 82 -76.5 144h125c6.66699 -28 19.167 -50.333 37.5 -67s46.833 -25 85.5 -25c51.333 0 90.333 20.333 117 61s40.667 102 42 184c-16.667 -27.333 -39.5 -49.166 -68.5 -65.499s-64.833 -24.5 -107.5 -24.5
c-34.667 0 -66.5 5.5 -95.5 16.5s-54 26.5 -75 46.5s-37.333 44.333 -49 73s-17.5 60.667 -17.5 96c0 36.667 6.16699 70 18.5 100s30 55.667 53 77s50.833 38 83.5 50s69.334 18 110.001 18c46.667 0 87.5 -7.66699 122.5 -23s64 -37.333 87 -66s40.333 -63.5 52 -104.5
s17.5 -87.167 17.5 -138.5v-37c0 -118 -24.833 -208.5 -74.5 -271.5s-120.834 -94.5 -213.501 -94.5zM310.999 341.999c40.667 0 73.833 12.167 99.5 36.5s38.5 56.5 38.5 96.5c0 48 -12.833 85.333 -38.5 112s-59.167 40 -100.5 40c-40 0 -72.167 -13 -96.5 -39
s-36.5 -60.333 -36.5 -103c0 -43.333 12 -78 36 -104s56.667 -39 98 -39z" />
    <glyph glyph-name="colon" unicode=":" horiz-adv-x="301" 
d="M148 -7c-22 0 -40.667 7.5 -56 22.5s-23 33.5 -23 55.5s7.66699 40.667 23 56s34 23 56 23c22.667 0 41.667 -7.66699 57 -23s23 -34 23 -56s-7.66699 -40.5 -23 -55.5s-34.333 -22.5 -57 -22.5zM148 285c-22 0 -40.667 7.66699 -56 23s-23 34 -23 56
s7.66699 40.5 23 55.5s34 22.5 56 22.5c22.667 0 41.667 -7.5 57 -22.5s23 -33.5 23 -55.5s-7.66699 -40.667 -23 -56s-34.333 -23 -57 -23z" />
    <glyph glyph-name="semicolon" unicode=";" horiz-adv-x="307" 
d="M17 -90l91 237l114 -46l-131 -224zM163 285c-22.667 0 -41.667 7.66699 -57 23s-23 34 -23 56s7.66699 40.5 23 55.5s34.333 22.5 57 22.5c22 0 40.833 -7.5 56.5 -22.5s23.5 -33.5 23.5 -55.5s-7.83301 -40.667 -23.5 -56s-34.5 -23 -56.5 -23z" />
    <glyph glyph-name="less" unicode="&#x3c;" horiz-adv-x="511" 
d="M49 309v26l398 228v-112l-234 -128l234 -131v-111z" />
    <glyph glyph-name="equal" unicode="=" horiz-adv-x="517" 
d="M39 276h434v-91h-434v91zM39 463h434v-92h-434v92z" />
    <glyph glyph-name="greater" unicode="&#x3e;" horiz-adv-x="511" 
d="M60 194l234 128l-234 131v111l399 -229v-25l-399 -229v113z" />
    <glyph glyph-name="question" unicode="?" horiz-adv-x="520" 
d="M175 253c0 20 3.00195 38.001 9.00195 54.001s13.833 31 23.5 45s20.5 27.167 32.5 39.5l36 36.5c18.667 18.667 35 36.834 49 54.501s21 37.167 21 58.5c0 25.333 -7.16699 45.666 -21.5 60.999s-36.833 23 -67.5 23c-31.333 0 -57 -10.167 -77 -30.5
s-31.667 -47.833 -35 -82.5h-116c2 32.667 9 62.167 21 88.5s28.167 48.666 48.5 66.999s44.5 32.5 72.5 42.5s58.667 15 92 15c36 0 67.167 -4.5 93.5 -13.5s48.166 -21.5 65.499 -37.5s30.166 -34.667 38.499 -56s12.5 -44 12.5 -68c0 -18 -2.5 -34.333 -7.5 -49
s-11.5 -28.5 -19.5 -41.5s-17.333 -25.333 -28 -37s-21.667 -22.834 -33 -33.501l-35 -33.5c-11.333 -11 -21.5 -22.167 -30.5 -33.5s-16.5 -23.166 -22.5 -35.499s-9.33301 -25.5 -10 -39.5v-32h-112v38zM230.002 -6.99902c-22.667 0 -42 7.5 -58 22.5s-24 33.167 -24 54.5
c0 22 8 40.5 24 55.5s35.333 22.5 58 22.5c22 0 40.833 -7.5 56.5 -22.5s23.5 -33.5 23.5 -55.5c0 -21.333 -7.83301 -39.5 -23.5 -54.5s-34.5 -22.5 -56.5 -22.5z" />
    <glyph glyph-name="at" unicode="@" horiz-adv-x="921" 
d="M460 -151c-67.333 0 -127.176 11.001 -179.509 33.001s-96.333 51.667 -132 89s-62.834 80.666 -81.501 129.999s-28 101.333 -28 156c0 62.667 11.833 120.5 35.5 173.5s55.5 98.667 95.5 137s86.333 68.166 139 89.499s108 32 166 32
c59.333 0 113.833 -9.16699 163.5 -27.5s92.334 -43.666 128.001 -75.999s63.334 -70.833 83.001 -115.5s29.5 -93.334 29.5 -146.001c0 -48 -6.16699 -88.667 -18.5 -122s-28.166 -60.5 -47.499 -81.5s-40.666 -36.167 -63.999 -45.5s-46.333 -14 -69 -14
c-42 0 -72.5 7.5 -91.5 22.5s-31.167 35.5 -36.5 61.5c-14 -26 -33.333 -47.333 -58 -64s-53 -25 -85 -25c-49.333 0 -88.666 15.833 -117.999 47.5s-44 75.5 -44 131.5c0 34 5.16699 65.333 15.5 94s24.333 53.334 42 74.001s38.5 36.667 62.5 48s49.667 17 77 17
c34 0 60.167 -6.5 78.5 -19.5s31.166 -28.167 38.499 -45.5l7 57h108l-31 -260c-7.33301 -49.333 8 -74 46 -74c14 0 27.667 3.66699 41 11s25.333 19 36 35s19.167 36.333 25.5 61s9.5 54.667 9.5 90c0 44.667 -7.5 85.334 -22.5 122.001s-36.5 68.167 -64.5 94.5
s-62.333 46.666 -103 60.999s-86.667 21.5 -138 21.5c-50.667 0 -97.667 -8.83301 -141 -26.5s-81 -42.5 -113 -74.5s-57 -70.333 -75 -115s-27 -94.334 -27 -149.001c0 -46 7.16699 -89.667 21.5 -131s35.833 -77.5 64.5 -108.5s64.334 -55.667 107.001 -74
s92.334 -27.5 149.001 -27.5s104.334 7.66699 143.001 23s72.334 35.666 101.001 60.999h83c-14 -22.667 -32.167 -43.167 -54.5 -61.5s-47.666 -34.166 -75.999 -47.499s-59.166 -23.666 -92.499 -30.999s-68.333 -11 -105 -11zM438.99 141.001
c14 0 27.499 3.16504 40.499 9.49805s24.5 15.833 34.5 28.5s18.167 27.834 24.5 45.501s9.5 38.167 9.5 61.5c0 32 -7.66699 56 -23 72s-37.333 24 -66 24c-28 0 -51.833 -12.667 -71.5 -38s-29.5 -60.666 -29.5 -105.999c0 -30 7.33301 -53.667 22 -71
s34.334 -26 59.001 -26z" />
    <glyph glyph-name="A" unicode="A" horiz-adv-x="707" 
d="M266 715h174l236 -715h-138l-57 177h-273l-56 -177h-125zM239 274h211l-105 332z" />
    <glyph glyph-name="B" unicode="B" horiz-adv-x="649" 
d="M82 715l256 -0.000976562c74 0 131.5 -14.667 172.5 -44s61.5 -76.666 61.5 -141.999v-4c0 -36 -8.66699 -67.167 -26 -93.5s-46.333 -45.833 -87 -58.5c48.667 -10.667 84.667 -29.5 108 -56.5s35 -64.5 35 -112.5v-4c0 -66.667 -21.167 -116.667 -63.5 -150
s-102.833 -50 -181.5 -50h-275v715zM341 94.999c44.667 0 77.5 9.66895 98.5 29.002s31.5 47.666 31.5 84.999v4c0 37.333 -10.833 65.166 -32.5 83.499s-57.167 27.5 -106.5 27.5h-120v-229h129zM322 414.001c44 0 75.333 8.33203 94 24.999s28 43.334 28 80.001v4
c0 34 -10 58.667 -30 74s-51.333 23 -94 23h-108v-206h110z" />
    <glyph glyph-name="C" unicode="C" horiz-adv-x="745" 
d="M395 -10c-56 0 -105.669 8.66602 -149.002 25.999s-79.833 41.666 -109.5 72.999s-52.167 69.333 -67.5 114s-23 94.667 -23 150v8c0 54 8.66699 103.333 26 148s41.5 83 72.5 115s67.667 57 110 75s88.5 27 138.5 27c40.667 0 78.834 -5.16699 114.501 -15.5
s67.167 -25.833 94.5 -46.5s49.5 -46.667 66.5 -78s27.5 -68 31.5 -110h-135c-7.33301 48 -24.666 84 -51.999 108s-67 36 -119 36c-31.333 0 -59.833 -6 -85.5 -18s-47.5 -29 -65.5 -51s-32 -49 -42 -81s-15 -68 -15 -108v-8c0 -80.667 18.167 -143.5 54.5 -188.5
s87.833 -67.5 154.5 -67.5c50 0 91.167 12.5 123.5 37.5s52.166 62.833 59.499 113.5h130c-5.33301 -43.333 -16.666 -81.166 -33.999 -113.499s-39.5 -59.166 -66.5 -80.499s-58.5 -37.5 -94.5 -48.5s-75.333 -16.5 -118 -16.5z" />
    <glyph glyph-name="D" unicode="D" horiz-adv-x="718" 
d="M293 105c80.667 0 140.333 21.835 179 65.502s58 105.167 58 184.5v8c0 38.667 -4.5 73.167 -13.5 103.5s-23.167 56.166 -42.5 77.499s-44 37.666 -74 48.999s-66 17 -108 17h-77v-505h78zM81.999 715.002h217.002c62 0 116.167 -8.5 162.5 -25.5
s84.833 -40.833 115.5 -71.5s53.667 -67.5 69 -110.5s23 -90.5 23 -142.5v-9c0 -52 -7.66699 -99.833 -23 -143.5s-38.333 -81.167 -69 -112.5s-69.334 -55.833 -116.001 -73.5s-101.334 -26.5 -164.001 -26.5h-215v715z" />
    <glyph glyph-name="E" unicode="E" horiz-adv-x="588" 
d="M82 715h447v-105h-314v-196h252v-100h-252v-209h331v-105h-464v715z" />
    <glyph glyph-name="F" unicode="F" horiz-adv-x="563" 
d="M82 715h443v-106h-310v-213h244v-103h-244v-293h-133v715z" />
    <glyph glyph-name="G" unicode="G" horiz-adv-x="779" 
d="M403 -10c-57.333 0 -108.169 9.00195 -152.502 27.002s-81.666 43.167 -111.999 75.5s-53.333 70.666 -69 114.999s-23.5 92.833 -23.5 145.5v8c0 53.333 8.83301 102.333 26.5 147s42.167 83.167 73.5 115.5s69 57.5 113 75.5s92 27 144 27c38 0 74.667 -4.5 110 -13.5
s66.833 -23.333 94.5 -43s50.667 -44.667 69 -75s29.833 -66.833 34.5 -109.5h-133c-8 48 -27.167 82.667 -57.5 104s-68.833 32 -115.5 32c-35.333 0 -66.666 -6.16699 -93.999 -18.5s-50.333 -30 -69 -53s-33 -50.5 -43 -82.5s-15 -67.667 -15 -107v-8
c0 -38 4.5 -72.833 13.5 -104.5s22.667 -58.834 41 -81.501s41.333 -40.334 69 -53.001s60.167 -19 97.5 -19c33.333 0 62 4.66699 86 14s43.667 22.166 59 38.499s26.833 35.5 34.5 57.5s12.167 45.333 13.5 70h-180v100h311v-66c0 -49.333 -7.5 -93.666 -22.5 -132.999
s-36.5 -72.666 -64.5 -99.999s-62.167 -48.333 -102.5 -63s-85.833 -22 -136.5 -22z" />
    <glyph glyph-name="H" unicode="H" horiz-adv-x="755" 
d="M82 715h133v-304h321v304h134v-715h-134v304h-321v-304h-133v715z" />
    <glyph glyph-name="I" unicode="I" horiz-adv-x="311" 
d="M86 715h134v-715h-134v715z" />
    <glyph glyph-name="J" unicode="J" horiz-adv-x="447" 
d="M148 -9c-30 0 -53.335 1.99902 -70.002 5.99902s-30.667 9 -42 15v104c12.667 -5.33301 25.834 -9.66602 39.501 -12.999s31.167 -5 52.5 -5c32.667 0 58.667 9.33301 78 28s29 50 29 94v495h134v-498c0 -38.667 -5.33301 -72.167 -16 -100.5s-25.667 -51.833 -45 -70.5
s-42.666 -32.5 -69.999 -41.5s-57.333 -13.5 -90 -13.5z" />
    <glyph glyph-name="K" unicode="K" horiz-adv-x="663" 
d="M82 715h133v-324l274 325h143l-296 -342l311 -374h-157l-275 334v-334h-133v715z" />
    <glyph glyph-name="L" unicode="L" horiz-adv-x="555" 
d="M82 715h133v-609h305v-106h-438v715z" />
    <glyph glyph-name="M" unicode="M" horiz-adv-x="894" 
d="M82 715h178l188 -488l184 488h176v-715h-133v540l-213 -540h-43l-217 540v-540h-120v715z" />
    <glyph glyph-name="N" unicode="N" horiz-adv-x="749" 
d="M82 715h159l301 -517v517h121v-715h-138l-322 548v-548h-121v715z" />
    <glyph glyph-name="O" unicode="O" horiz-adv-x="818" 
d="M410 97c34 0 64.499 6.16406 91.499 18.4971s50 29.833 69 52.5s33.667 49.834 44 81.501s15.5 66.834 15.5 105.501v8c0 36.667 -5 70.667 -15 102s-24.5 58.333 -43.5 81s-42.333 40.5 -70 53.5s-58.834 19.5 -93.501 19.5c-35.333 0 -66.666 -6.16699 -93.999 -18.5
s-50.666 -29.833 -69.999 -52.5s-34 -49.667 -44 -81s-15 -66.333 -15 -105v-8c0 -39.333 5.66699 -74.666 17 -105.999s27 -58.333 47 -81s43.667 -40 71 -52s57.333 -18 90 -18zM407.999 -10.0029c-54.667 0 -104.334 9.1709 -149.001 27.5039s-82.667 43.833 -114 76.5
s-55.666 71.167 -72.999 115.5s-26 92.166 -26 143.499v8c0 52 8.83301 100.333 26.5 145s42.5 83.167 74.5 115.5s70.167 57.666 114.5 75.999s93.166 27.5 146.499 27.5s102 -9 146 -27s81.833 -43 113.5 -75s56.334 -70 74.001 -114s26.5 -92.333 26.5 -145v-8
c0 -52 -8.5 -100.333 -25.5 -145s-41.333 -83.334 -73 -116.001s-69.667 -58.334 -114 -77.001s-93.5 -28 -147.5 -28z" />
    <glyph glyph-name="P" unicode="P" horiz-adv-x="613" 
d="M82 715l230 0.000976562c40 0 76.333 -4.5 109 -13.5s60.5 -22.667 83.5 -41s40.833 -41.333 53.5 -69s19 -60.167 19 -97.5v-4c0 -38 -6.5 -70.667 -19.5 -98s-31 -49.833 -54 -67.5s-50.667 -30.834 -83 -39.501s-67.5 -13 -105.5 -13h-100v-272h-133v715zM312 368.001
c44 0 77.501 10.333 100.501 31s34.5 51 34.5 91v4c0 42.667 -11.833 73 -35.5 91s-56.834 27 -99.501 27h-97v-244h97z" />
    <glyph glyph-name="Q" unicode="Q" horiz-adv-x="818" 
d="M546 14c-20.667 -7.33301 -42.499 -13.166 -65.499 -17.499s-47.167 -6.5 -72.5 -6.5c-54.667 0 -104.334 9.16699 -149.001 27.5s-82.667 43.833 -114 76.5s-55.666 71.167 -72.999 115.5s-26 92.166 -26 143.499v8c0 52 8.83301 100.167 26.5 144.5
s42.5 82.666 74.5 114.999s70.167 57.666 114.5 75.999s93.166 27.5 146.499 27.5s102.166 -9 146.499 -27s82.333 -43 114 -75s56.334 -70 74.001 -114s26.5 -92 26.5 -144v-8c0 -59.333 -10.833 -113.166 -32.5 -161.499s-52.167 -89.166 -91.5 -122.499l79 -85l-80 -78z
M409.001 95c20 0 38.6689 2 56.002 6l-70 76l81 76l88 -95c21.333 23.333 37.666 51.666 48.999 84.999s17 71 17 113v8c0 36.667 -5 70.667 -15 102s-24.5 58.333 -43.5 81s-42.333 40.334 -70 53.001s-58.834 19 -93.501 19c-35.333 0 -66.833 -6.16699 -94.5 -18.5
s-51.167 -29.833 -70.5 -52.5s-34 -49.667 -44 -81s-15 -66.333 -15 -105v-8c0 -40 5.66699 -76 17 -108s27 -59.167 47 -81.5s43.833 -39.5 71.5 -51.5s57.5 -18 89.5 -18z" />
    <glyph glyph-name="R" unicode="R" horiz-adv-x="659" 
d="M82 715h239.997c39.333 0 75.333 -4.16699 108 -12.5s60.834 -21 84.501 -38s42 -38.667 55 -65s19.5 -57.833 19.5 -94.5v-4c0 -28 -4.16699 -52.667 -12.5 -74s-19.666 -39.833 -33.999 -55.5s-31.166 -28.5 -50.499 -38.5s-40 -18 -62 -24l201 -309h-144l-187 289h-85
v-289h-133v715zM321.997 384c90.667 0 136 38 136 114v4c0 41.333 -12 70 -36 86s-57.333 24 -100 24h-107v-228h107z" />
    <glyph glyph-name="S" unicode="S" horiz-adv-x="639" 
d="M325 -10c-48.667 0 -90.502 5.83496 -125.502 17.502s-64 27.667 -87 48s-40.5 44.666 -52.5 72.999s-19.333 59.5 -22 93.5h128c2 -18 5.83301 -35 11.5 -51s14.334 -30 26.001 -42s27.334 -21.5 47.001 -28.5s44.5 -10.5 74.5 -10.5c40 0 72.5 10 97.5 30
s37.5 46.667 37.5 80c0 16.667 -2.33301 30.834 -7 42.501s-12.667 21.667 -24 30s-26.666 15.5 -45.999 21.5s-43.333 11.333 -72 16c-42.667 6 -79.834 13.833 -111.501 23.5s-57.834 22.667 -78.501 39s-36.167 36.5 -46.5 60.5s-15.5 52.667 -15.5 86
c0 29.333 6 56.5 18 81.5s28.833 46.667 50.5 65s47.834 32.666 78.501 42.999s64.667 15.5 102 15.5c77.333 0 138.166 -17.333 182.499 -52s70.166 -86.334 77.499 -155.001h-122c-6.66699 38 -21 65.333 -43 82s-53.667 25 -95 25
c-40.667 0 -71.334 -8.66699 -92.001 -26s-31 -40 -31 -68c0 -14.667 1.83301 -27.5 5.5 -38.5s11 -20.667 22 -29s26 -15.5 45 -21.5s44.167 -11.333 75.5 -16c42 -6 78.833 -13.667 110.5 -23s58.334 -22.333 80.001 -39s37.834 -37.167 48.501 -61.5s16 -54.5 16 -90.5
c0 -31.333 -6.33301 -60.333 -19 -87s-30.5 -50 -53.5 -70s-50.667 -35.667 -83 -47s-68.166 -17 -107.499 -17z" />
    <glyph glyph-name="T" unicode="T" horiz-adv-x="587" 
d="M225 610h-199v105h532v-105h-199v-610h-134v610z" />
    <glyph glyph-name="U" unicode="U" horiz-adv-x="727" 
d="M357 -10c-90 0 -159.333 23.832 -208 71.499s-73 117.834 -73 210.501v443h134v-433c0 -66 11.333 -113.333 34 -142s60.667 -43 114 -43c26 0 48.667 3.16699 68 9.5s35.5 17 48.5 32s22.667 34.833 29 59.5s9.5 55.667 9.5 93v424h134v-435
c0 -94 -24.5 -165.833 -73.5 -215.5s-121.167 -74.5 -216.5 -74.5z" />
    <glyph glyph-name="V" unicode="V" horiz-adv-x="687" 
d="M23 715h139l186 -580l187 580h125l-242 -715h-154z" />
    <glyph glyph-name="W" unicode="W" horiz-adv-x="959" 
d="M26 715h136l124 -525l139 525h110l142 -528l128 528h124l-179 -715h-133l-141 521l-145 -521h-127z" />
    <glyph glyph-name="X" unicode="X" horiz-adv-x="699" 
d="M266 367l-214 348h150l152 -254l151 254h137l-211 -345l229 -370h-152l-168 279l-168 -279h-136z" />
    <glyph glyph-name="Y" unicode="Y" horiz-adv-x="633" 
d="M254 310l-237 405h147l161 -296l157 296h130l-224 -406v-309h-134v310z" />
    <glyph glyph-name="Z" unicode="Z" horiz-adv-x="612" 
d="M22 18l365 592h-328v105h516v-17l-357 -591h347v-107h-543v18z" />
    <glyph glyph-name="bracketleft" unicode="[" horiz-adv-x="381" 
d="M79 776h256v-91h-134v-742h134v-91h-256v924z" />
    <glyph glyph-name="backslash" unicode="\" horiz-adv-x="419" 
d="M18 776h102l301 -924h-102z" />
    <glyph glyph-name="bracketright" unicode="]" horiz-adv-x="381" 
d="M42 -57h134v742h-134v91h256v-924h-256v91z" />
    <glyph glyph-name="asciicircum" unicode="^" horiz-adv-x="520" 
d="M202 715h113l166 -313h-112l-112 213l-113 -213h-108z" />
    <glyph glyph-name="underscore" unicode="_" horiz-adv-x="414" 
d="M-1 -85h412v-74h-412v74z" />
    <glyph glyph-name="grave" unicode="`" horiz-adv-x="404" 
d="M59 756h134l59 -155h-89z" />
    <glyph glyph-name="a" unicode="a" horiz-adv-x="559" 
d="M209 -10c-24 0 -46.667 3 -68 9s-39.833 15.167 -55.5 27.5s-28.167 28.333 -37.5 48s-14 43.167 -14 70.5c0 30.667 7 56.5 21 77.5s33 38 57 51s52.333 22.5 85 28.5s67.667 9 105 9h65v27c0 35.333 -6.83301 61.666 -20.5 78.999s-38.5 26 -74.5 26
c-32 0 -55.833 -7.16699 -71.5 -21.5s-25.167 -34.5 -28.5 -60.5h-117c2.66699 30.667 10.334 56.834 23.001 78.501s29 39.5 49 53.5s43 24.333 69 31s53.667 10 83 10s56.666 -3.16699 81.999 -9.5s47.5 -17 66.5 -32s33.833 -34.667 44.5 -59s16 -54.5 16 -90.5v-343
h-119v64c-17.333 -22.667 -38.333 -40.667 -63 -54s-57 -20 -97 -20zM238 77c37.333 0 68.167 9.16699 92.5 27.5s36.5 44.5 36.5 78.5v52h-62c-46 0 -82.667 -6.16699 -110 -18.5s-41 -34.5 -41 -66.5c0 -22 6.5 -39.667 19.5 -53s34.5 -20 64.5 -20z" />
    <glyph glyph-name="b" unicode="b" horiz-adv-x="637" 
d="M364 -10c-42 0 -77.499 8.99805 -106.499 26.998s-50.5 40.333 -64.5 67v-84h-121v765h121v-326c7.33301 12.667 16.666 24.667 27.999 36s24.5 21.333 39.5 30s31.167 15.667 48.5 21s35.666 8 54.999 8c32.667 0 63.167 -6 91.5 -18s52.833 -29.333 73.5 -52
s37 -50.5 49 -83.5s18 -70.5 18 -112.5v-8c0 -42 -5.83301 -79.667 -17.5 -113s-27.667 -61.666 -48 -84.999s-44.666 -41.166 -72.999 -53.499s-59.5 -18.5 -93.5 -18.5zM334.001 85.998c44.667 0 78.834 14.498 102.501 43.498s35.5 71.833 35.5 128.5v8
c0 28.667 -3.5 53.834 -10.5 75.501s-16.833 39.834 -29.5 54.501s-27.334 25.5 -44.001 32.5s-35 10.5 -55 10.5c-42 0 -76.5 -14.167 -103.5 -42.5s-40.5 -71.833 -40.5 -130.5v-8c0 -58.667 13.167 -102 39.5 -130s61.5 -42 105.5 -42z" />
    <glyph glyph-name="c" unicode="c" horiz-adv-x="579" 
d="M301 -10c-37.333 0 -72.167 5.99902 -104.5 17.999s-60.333 29.333 -84 52s-42.167 50.334 -55.5 83.001s-20 70 -20 112v8c0 41.333 6.83301 78.666 20.5 111.999s32.5 61.833 56.5 85.5s52 41.834 84 54.501s66.333 19 103 19c28.667 0 56.667 -3.5 84 -10.5
s51.833 -18.167 73.5 -33.5s39.834 -35.5 54.501 -60.5s23.667 -55.5 27 -91.5h-117c-5.33301 35.333 -18.666 60.666 -39.999 75.999s-48 23 -80 23c-20.667 0 -39.667 -3.83301 -57 -11.5s-32.333 -19 -45 -34s-22.5 -33.167 -29.5 -54.5s-10.5 -45.333 -10.5 -72v-8
c0 -57.333 13 -100.666 39 -129.999s61.333 -44 106 -44c16 0 31.167 2.33301 45.5 7s27.166 11.667 38.499 21s20.666 21 27.999 35s12 30.333 14 49h111c-2 -30 -9.16699 -57.5 -21.5 -82.5s-28.833 -46.667 -49.5 -65s-45.5 -32.5 -74.5 -42.5s-61.167 -15 -96.5 -15z
" />
    <glyph glyph-name="d" unicode="d" horiz-adv-x="637" 
d="M268 -10c-32.667 0 -63 5.66504 -91 16.998s-52.333 28.166 -73 50.499s-36.834 49.833 -48.501 82.5s-17.5 70.334 -17.5 113.001v8c0 42 5.83301 79.833 17.5 113.5s28 62.334 49 86.001s45.833 41.834 74.5 54.501s60 19 94 19c42.667 0 77.5 -8.66699 104.5 -26
s47.833 -39 62.5 -65v322h121v-765h-121v88c-7.33301 -13.333 -16.666 -25.833 -27.999 -37.5s-24.5 -22 -39.5 -31s-31.333 -16.167 -49 -21.5s-36.167 -8 -55.5 -8zM298 85.998c42 0 76.834 14.167 104.501 42.5s41.5 71.833 41.5 130.5v8c0 58 -12.5 101.167 -37.5 129.5
s-59.5 42.5 -103.5 42.5c-44.667 0 -79.334 -15 -104.001 -45s-37 -73.333 -37 -130v-8c0 -57.333 12.833 -100 38.5 -128s58.167 -42 97.5 -42z" />
    <glyph glyph-name="e" unicode="e" horiz-adv-x="584" 
d="M302 -10c-38.667 0 -74.1689 6.16602 -106.502 18.499s-60.333 30 -84 53s-42 50.833 -55 83.5s-19.5 69.667 -19.5 111v8c0 40.667 6.5 77.5 19.5 110.5s31.167 61.333 54.5 85s50.833 42 82.5 55s66.167 19.5 103.5 19.5c32.667 0 63.834 -5 93.501 -15
s55.834 -25.667 78.501 -47s40.834 -48.666 54.501 -81.999s20.5 -73.333 20.5 -120v-35h-383c2 -50 15.167 -88.333 39.5 -115s59.166 -40 104.499 -40c36.667 0 64.667 7 84 21s31.333 33.667 36 59h117c-8.66699 -55.333 -34 -97.5 -76 -126.5s-96.667 -43.5 -164 -43.5z
M423.998 315.999c-3.33301 45.333 -15.833 78.333 -37.5 99s-51.5 31 -89.5 31c-36.667 0 -66.667 -11.5 -90 -34.5s-38 -54.833 -44 -95.5h261z" />
    <glyph glyph-name="f" unicode="f" horiz-adv-x="366" 
d="M93 432l-70.999 -0.000976562v91h71v70c0 58 15.167 102 45.5 132s73.833 45 130.5 45c14.667 0 27 -0.833008 37 -2.5s20.667 -4.16699 32 -7.5v-94c-7.33301 2.66699 -15.5 4.83398 -24.5 6.50098s-19.167 2.5 -30.5 2.5c-24.667 0 -42.334 -7.16699 -53.001 -21.5
s-16 -32.833 -16 -55.5v-75h119v-91h-119v-432h-121v432z" />
    <glyph glyph-name="g" unicode="g" horiz-adv-x="637" 
d="M295 -192c-41.333 0 -77.002 4.33105 -107.002 12.998s-55.167 20.834 -75.5 36.501s-36.166 34 -47.499 55s-18.666 44.167 -21.999 69.5h122c5.33301 -26 18.166 -46.167 38.499 -60.5s50.5 -21.5 90.5 -21.5c47.333 0 83.5 11.667 108.5 35s37.5 58.666 37.5 105.999
v77c-7.33301 -12.667 -16.666 -24.834 -27.999 -36.501s-24.5 -22 -39.5 -31s-31.167 -16.167 -48.5 -21.5s-35.666 -8 -54.999 -8c-32.667 0 -63.167 5.83301 -91.5 17.5s-52.833 28.334 -73.5 50.001s-37 47.834 -49 78.501s-18 65 -18 103v7
c0 36.667 5.83301 70.667 17.5 102s28 58.5 49 81.5s45.833 41 74.5 54s60 19.5 94 19.5c43.333 0 78.333 -8.66699 105 -26s47.667 -39 63 -65v80h121v-484c-0.666992 -77.333 -24.834 -135.166 -72.501 -173.499s-112.167 -57.5 -193.5 -57.5zM298.998 113.998
c42 0 76.667 14.166 104 42.499s41 67.5 41 117.5v7c0 50 -12.5 88.833 -37.5 116.5s-59.5 41.5 -103.5 41.5c-45.333 0 -80.333 -14.667 -105 -44s-37 -68 -37 -116v-8c0 -24 3.5 -45.833 10.5 -65.5s16.667 -36.167 29 -49.5s27 -23.666 44 -30.999s35.167 -11 54.5 -11z
" />
    <glyph glyph-name="h" unicode="h" horiz-adv-x="612" 
d="M72 765h121.001v-325c12.667 25.333 33.167 47.333 61.5 66s64.166 28 107.499 28c26 0 50 -4 72 -12s41 -20.167 57 -36.5s28.333 -37.5 37 -63.5s13 -57 13 -93v-329h-121v318c0 40 -8.33301 69.167 -25 87.5s-43 27.5 -79 27.5c-34 0 -63 -10.5 -87 -31.5
s-36 -52.167 -36 -93.5v-308h-121v765z" />
    <glyph glyph-name="i" unicode="i" horiz-adv-x="275" 
d="M75 523h121v-523h-121v523zM134 609c-20 0 -37 6.66699 -51 20s-21 29.666 -21 48.999c0 20 7 36.667 21 50s31 20 51 20s37 -6.66699 51 -20s21 -30 21 -50c0 -19.333 -7 -35.666 -21 -48.999s-31 -20 -51 -20z" />
    <glyph glyph-name="j" unicode="j" horiz-adv-x="275" 
d="M3 -95c26.667 2 45.333 9.33691 56 22.0039s16 30 16 52v544h121v-541c0 -26.667 -3.33301 -50.334 -10 -71.001s-17.5 -38.334 -32.5 -53.001s-34.833 -25.834 -59.5 -33.501s-55 -11.834 -91 -12.501v93zM133.999 609.004c-20 0 -37 6.66699 -51 20
s-21 29.666 -21 48.999c0 20 7 36.667 21 50s31 20 51 20s37 -6.66699 51 -20s21 -30 21 -50c0 -19.333 -7 -35.666 -21 -48.999s-31 -20 -51 -20z" />
    <glyph glyph-name="k" unicode="k" horiz-adv-x="544" 
d="M72 765h121v-472l187 230h132l-203 -240l220 -283h-140l-196 257v-257h-121v765z" />
    <glyph glyph-name="l" unicode="l" horiz-adv-x="275" 
d="M75 765h121v-765h-121v765z" />
    <glyph glyph-name="m" unicode="m" horiz-adv-x="922" 
d="M72 523h121.001v-80c12.667 24.667 32.667 46 60 64s60.333 27 99 27c34 0 63.833 -7.5 89.5 -22.5s45.167 -38.833 58.5 -71.5c20 32.667 46.333 56.5 79 71.5s65.334 22.5 98.001 22.5c24 0 46.5 -3.83301 67.5 -11.5s39.5 -19.667 55.5 -36s28.5 -37.333 37.5 -63
s13.5 -56.5 13.5 -92.5v-331h-121v323c0 38.667 -8 66.667 -24 84s-39 26 -69 26c-15.333 0 -29.833 -2.5 -43.5 -7.5s-25.834 -12.5 -36.501 -22.5s-19.167 -22.5 -25.5 -37.5s-9.5 -32.5 -9.5 -52.5v-313h-121v323c0 38.667 -8 66.667 -24 84s-39 26 -69 26
c-15.333 0 -29.833 -2.5 -43.5 -7.5s-25.834 -12.5 -36.501 -22.5s-19.167 -22.5 -25.5 -37.5s-9.5 -32.5 -9.5 -52.5v-313h-121v523z" />
    <glyph glyph-name="n" unicode="n" horiz-adv-x="612" 
d="M72 523h121.001v-83c12.667 25.333 33.167 47.333 61.5 66s64.166 28 107.499 28c26 0 50 -4 72 -12s41 -20.167 57 -36.5s28.333 -37.5 37 -63.5s13 -57 13 -93v-329h-121v318c0 40 -8.33301 69.167 -25 87.5s-43 27.5 -79 27.5c-34 0 -63 -10.5 -87 -31.5
s-36 -52.167 -36 -93.5v-308h-121v523z" />
    <glyph glyph-name="o" unicode="o" horiz-adv-x="615" 
d="M306 84c45.333 0 80.666 15.5 105.999 46.5s38 73.5 38 127.5v7c0 54 -12.667 96.5 -38 127.5s-60.666 46.5 -105.999 46.5s-80.833 -15.333 -106.5 -46s-38.5 -73 -38.5 -127v-8c0 -54 12.667 -96.5 38 -127.5s61 -46.5 107 -46.5zM305 -10
c-38.667 0 -74.333 6.33594 -107 19.0029s-61 30.667 -85 54s-42.667 51.333 -56 84s-20 69 -20 109v8c0 40.667 6.83301 77.5 20.5 110.5s32.5 61.333 56.5 85s52.333 42 85 55s68.334 19.5 107.001 19.5c38 0 73.333 -6.33301 106 -19s61 -30.834 85 -54.501
s42.833 -51.834 56.5 -84.501s20.5 -69 20.5 -109v-8c0 -40.667 -6.83301 -77.5 -20.5 -110.5s-32.5 -61.333 -56.5 -85s-52.333 -41.834 -85 -54.501s-68.334 -19 -107.001 -19z" />
    <glyph glyph-name="p" unicode="p" horiz-adv-x="637" 
d="M72 523l121.001 -0.00195312v-84c7.33301 12.667 16.666 24.667 27.999 36s24.5 21.333 39.5 30s31.167 15.667 48.5 21s35.666 8 54.999 8c32.667 0 63.167 -6 91.5 -18s52.833 -29.333 73.5 -52s37 -50.5 49 -83.5s18 -70.5 18 -112.5v-8
c0 -42 -5.83301 -79.667 -17.5 -113s-27.667 -61.666 -48 -84.999s-44.666 -41.166 -72.999 -53.499s-59.5 -18.5 -93.5 -18.5c-42 0 -77.5 9 -106.5 27s-50.5 39.667 -64.5 65v-261h-121v702zM334.001 85.998c44.667 0 78.834 14.498 102.501 43.498
s35.5 71.833 35.5 128.5v8c0 28.667 -3.5 53.834 -10.5 75.501s-16.833 39.834 -29.5 54.501s-27.334 25.5 -44.001 32.5s-35 10.5 -55 10.5c-42 0 -76.5 -14.167 -103.5 -42.5s-40.5 -71.833 -40.5 -130.5v-8c0 -58.667 13.167 -102 39.5 -130s61.5 -42 105.5 -42z" />
    <glyph glyph-name="q" unicode="q" horiz-adv-x="637" 
d="M440 86c-7.33301 -12.667 -16.666 -24.6689 -27.999 -36.002s-24.5 -21.5 -39.5 -30.5s-31.333 -16.167 -49 -21.5s-36.167 -8 -55.5 -8c-32.667 0 -63 5.66699 -91 17s-52.333 28.166 -73 50.499s-36.834 49.833 -48.501 82.5s-17.5 70.334 -17.5 113.001v8
c0 42 5.83301 79.833 17.5 113.5s28 62.334 49 86.001s45.833 41.834 74.5 54.501s60 19 94 19c42.667 0 77.5 -8.66699 104.5 -26s47.833 -39 62.5 -65v80h121v-702h-121v265zM298 85.998c42 0 76.834 14.167 104.501 42.5s41.5 71.833 41.5 130.5v8
c0 58 -12.5 101.167 -37.5 129.5s-59.5 42.5 -103.5 42.5c-44.667 0 -79.334 -15 -104.001 -45s-37 -73.333 -37 -130v-8c0 -57.333 12.833 -100 38.5 -128s58.167 -42 97.5 -42z" />
    <glyph glyph-name="r" unicode="r" horiz-adv-x="401" 
d="M72 523h121.001v-98c16.667 33.333 38.167 59.166 64.5 77.499s61.5 27.833 105.5 28.5v-113c-26.667 0 -50.5 -2.5 -71.5 -7.5s-38.833 -13.167 -53.5 -24.5s-25.834 -26.166 -33.501 -44.499s-11.5 -41.5 -11.5 -69.5v-272h-121v523z" />
    <glyph glyph-name="s" unicode="s" horiz-adv-x="498" 
d="M251 -10c-68 0 -120.831 14.8311 -158.498 44.498s-57.834 72.5 -60.501 128.5h114c3.33301 -26.667 12.5 -47.334 27.5 -62.001s40.5 -22 76.5 -22c32.667 0 56.5 5.66699 71.5 17s22.5 28 22.5 50c0 21.333 -9 37 -27 47s-46.333 18.333 -85 25
c-34.667 5.33301 -64 12 -88 20s-43.5 18.333 -58.5 31s-25.833 27.667 -32.5 45s-10 38.333 -10 63c0 26 5.66699 48.833 17 68.5s26.166 36 44.499 49s39.166 22.833 62.499 29.5s47.333 10 72 10c26.667 0 51.834 -2.66699 75.501 -8s44.5 -14.166 62.5 -26.499
s32.833 -28.666 44.5 -48.999s19.167 -45.166 22.5 -74.499h-112c-5.33301 24 -15.166 41.667 -29.499 53s-35.5 17 -63.5 17c-26 0 -46.333 -5.66699 -61 -17s-22 -26.333 -22 -45c0 -9.33301 1.66699 -17.5 5 -24.5s9.16602 -13 17.499 -18s19.5 -9.5 33.5 -13.5
s31.333 -7.66699 52 -11c30.667 -4.66699 58.167 -10.5 82.5 -17.5s44.833 -16.333 61.5 -28s29.5 -26.667 38.5 -45s13.5 -41.5 13.5 -69.5c0 -53.333 -18 -94.5 -54 -123.5s-87.667 -43.5 -155 -43.5z" />
    <glyph glyph-name="t" unicode="t" horiz-adv-x="373" 
d="M250 -9c-52 0 -91.333 13.333 -118 40s-40 65 -40 115v286h-70v91h70v115h121v-115h115v-91h-115v-275c0 -23.333 5.16699 -40.333 15.5 -51s25.166 -16 44.499 -16c23.333 0 43 3.33301 59 10v-96c-9.33301 -3.33301 -20.666 -6.33301 -33.999 -9s-29.333 -4 -48 -4z
" />
    <glyph glyph-name="u" unicode="u" horiz-adv-x="609" 
d="M247 -10c-26 0 -50.001 3.83301 -72.001 11.5s-41 19.5 -57 35.5s-28.5 36.5 -37.5 61.5s-13.5 54.833 -13.5 89.5v335h121v-321c0 -40 8.33301 -69.167 25 -87.5s42.667 -27.5 78 -27.5c16 0 31.5 2.66699 46.5 8s28 13.166 39 23.499s19.833 23.333 26.5 39
s10 33.834 10 54.501v311h121v-523h-121v82c-13.333 -25.333 -33.666 -47 -60.999 -65s-62.333 -27 -105 -27z" />
    <glyph glyph-name="v" unicode="v" horiz-adv-x="561" 
d="M18 523h130l137 -399l135 399h119l-189 -523h-141z" />
    <glyph glyph-name="w" unicode="w" horiz-adv-x="818" 
d="M20 523h129l104 -378l111 378h101l102 -378l109 378h118l-164 -523h-123l-97 352l-106 -352h-124z" />
    <glyph glyph-name="x" unicode="x" horiz-adv-x="560" 
d="M203 268l-170 255h140l109 -169l108 169h127l-169 -246l187 -277h-141l-122 189l-125 -189h-126z" />
    <glyph glyph-name="y" unicode="y" horiz-adv-x="557" 
d="M225 53l-207 470h131l139 -337l128 337h118l-285 -702h-119z" />
    <glyph glyph-name="z" unicode="z" horiz-adv-x="497" 
d="M17 14l277 413h-250v96h429v-17l-276 -409h268v-97h-448v14z" />
    <glyph glyph-name="braceleft" unicode="{" horiz-adv-x="400" 
d="M354 -148c-84.667 0 -146.663 16.834 -185.996 50.501s-52.333 89.167 -39 166.5l17 96c2.66699 14 2.66699 27.333 0 40s-8.16699 23.834 -16.5 33.501s-20.166 17.5 -35.499 23.5s-34.666 9 -57.999 9v87c23.333 0 42.666 3 57.999 9s27.166 14 35.499 24
s13.833 21.333 16.5 34s2.66699 25.667 0 39l-17 96c-6.66699 39.333 -6.66699 72.666 0 99.999s19.667 49.666 39 66.999s44.666 30 75.999 38s68 12 110 12v-89c-22.667 -0.666992 -41.667 -3 -57 -7s-27.333 -10.833 -36 -20.5s-14.167 -22.667 -16.5 -39
s-1.83301 -36.5 1.5 -60.5l17 -110c5.33301 -36 -1.33398 -65.5 -20.001 -88.5s-45.334 -38.833 -80.001 -47.5c35.333 -8 62.166 -23.667 80.499 -47s24.833 -53 19.5 -89l-17 -109c-3.33301 -24.667 -3.83301 -45.167 -1.5 -61.5s7.83301 -29.333 16.5 -39
s20.667 -16.667 36 -21s34.333 -6.83301 57 -7.5v-89v0z" />
    <glyph glyph-name="bar" unicode="|" horiz-adv-x="263" 
d="M84 776h90v-924h-90v924z" />
    <glyph glyph-name="braceright" unicode="}" horiz-adv-x="400" 
d="M42 -59c22 0.666992 40.668 3.16602 56.001 7.49902s27.5 11.333 36.5 21s14.667 22.667 17 39s1.5 36.833 -2.5 61.5l-16 109c-5.33301 36 1.16699 65.667 19.5 89s45.166 39 80.499 47c-35.333 8.66699 -62.166 24.5 -80.499 47.5s-24.833 52.5 -19.5 88.5l16 110
c4 24 4.83301 44.167 2.5 60.5s-8 29.333 -17 39s-21.167 16.5 -36.5 20.5s-34 6.33301 -56 7v89c42 0 78.667 -4 110 -12s56.666 -20.667 75.999 -38s32.333 -39.666 39 -66.999s6.66699 -60.666 0 -99.999l-17 -96c-2.66699 -13.333 -2.83398 -26.333 -0.500977 -39
s7.83301 -24 16.5 -34s20.5 -18 35.5 -24s34.167 -9 57.5 -9v-87c-23.333 0 -42.5 -3 -57.5 -9s-26.833 -13.833 -35.5 -23.5s-14.167 -20.834 -16.5 -33.501s-2.16602 -26 0.500977 -40l17 -96c13.333 -77.333 0.333008 -132.833 -39 -166.5s-101.333 -50.5 -186 -50.5v89z
" />
    <glyph glyph-name="asciitilde" unicode="~" horiz-adv-x="478" 
d="M38 220c2 26.667 6.66699 49.832 14 69.499s16.5 35.834 27.5 48.501s23.5 22 37.5 28s28.333 9 43 9c16.667 0 32.167 -2.5 46.5 -7.5s27.333 -10.5 39 -16.5l32.5 -16.5c10 -5 19 -7.5 27 -7.5c11.333 0 21.333 4.16699 30 12.5s13.667 20.833 15 37.5h86
c-1.33301 -26.667 -5.66602 -49.667 -12.999 -69s-16.5 -35.5 -27.5 -48.5s-23.5 -22.667 -37.5 -29s-28 -9.5 -42 -9.5c-18 0 -34.167 2.5 -48.5 7.5s-27.333 10.667 -39 17l-32 17c-9.66699 5 -18.834 7.5 -27.501 7.5c-12 0 -22 -4.33301 -30 -13s-13 -21 -15 -37h-86v0z
" />
    <glyph glyph-name="uni00A0" unicode="&#xa0;" horiz-adv-x="275" 
 />
    <glyph glyph-name="exclamdown" unicode="&#xa1;" horiz-adv-x="310" 
d="M153.01 605c21.998 0 40.8301 -7.5 56.4961 -22.499c15.665 -14.999 23.498 -33.165 23.498 -54.4971c0 -21.999 -7.83301 -40.498 -23.498 -55.4971c-15.666 -14.999 -34.498 -22.499 -56.4961 -22.499c-22.665 0 -41.8311 7.5 -57.4971 22.499
c-15.665 14.999 -23.498 33.498 -23.498 55.4971c0 21.332 7.83301 39.498 23.498 54.4971c15.666 14.999 34.832 22.499 57.4971 22.499zM219.005 -116.956h-134.991l18.999 499.969h97.9932z" />
    <glyph glyph-name="cent" unicode="&#xa2;" horiz-adv-x="581" 
d="M270 -8c-34 3.33301 -65.3301 11.6689 -93.9971 25.002s-53.167 31.166 -73.5 53.499s-36.333 49.166 -48 80.499s-17.5 66.333 -17.5 105v8c0 38 6 72.667 18 104s28.333 58.5 49 81.5s45.167 41.5 73.5 55.5s59.166 23 92.499 27v97h67v-97c26 -2 51 -7.33301 75 -16
s45.167 -20.834 63.5 -36.501s33.666 -35.167 45.999 -58.5s20.166 -51 23.499 -83h-114c-4.66699 30 -15.5 52.833 -32.5 68.5s-37.5 26.167 -61.5 31.5v-356c26.667 5.33301 49.5 17.333 68.5 36s30.167 44.334 33.5 77.001h109c-2 -28 -8.5 -53.667 -19.5 -77
s-25.5 -44 -43.5 -62s-39.5 -32.5 -64.5 -43.5s-52.833 -17.833 -83.5 -20.5v-127h-67v127zM159.003 256.003c0 -49.333 9.99902 -88.5 29.999 -117.5s47 -47.167 81 -54.5v353c-33.333 -8 -60.166 -26.833 -80.499 -56.5s-30.5 -68.5 -30.5 -116.5v-8z" />
    <glyph glyph-name="sterling" unicode="&#xa3;" horiz-adv-x="624" 
d="M42 389l59.9932 -0.00195312c-4.66699 18 -8.5 36.833 -11.5 56.5s-4.5 40.834 -4.5 63.501c0 32.667 6.16699 62.334 18.5 89.001s29.5 49.334 51.5 68.001s47.667 33 77 43s61 15 95 15c37.333 0 70.333 -5 99 -15s53 -24.167 73 -42.5s35.5 -40.333 46.5 -66
s17.5 -54.167 19.5 -85.5h-125c-6 35.333 -17.167 61.833 -33.5 79.5s-41.833 26.5 -76.5 26.5c-33.333 0 -60.166 -10.5 -80.499 -31.5s-30.5 -49.5 -30.5 -85.5c0 -21.333 1.33301 -41.333 4 -60s5.66699 -37 9 -55h199v-85h-182c3.33301 -16 5.83301 -32.333 7.5 -49
s2.5 -34.334 2.5 -53.001c0 -12 -1.16699 -23.167 -3.5 -33.5s-5.16602 -20.166 -8.49902 -29.499c28 -7.33301 53.833 -16 77.5 -26s44.5 -15 62.5 -15c23.333 0 42 5.5 56 16.5s22 30.5 24 58.5h117c-1.33301 -26 -6.16602 -50.167 -14.499 -72.5
s-19.833 -41.666 -34.5 -57.999s-32.667 -29 -54 -38s-45.333 -13.5 -72 -13.5c-23.333 0 -45.333 3 -66 9s-40 12.833 -58 20.5l-50 20.5c-15.333 6 -29.666 9 -42.999 9c-19.333 0 -33.666 -5.16699 -42.999 -15.5s-14.666 -21.833 -15.999 -34.5h-104
c1.33301 14.667 4.33301 29.5 9 44.5s11.167 29.167 19.5 42.5s18.833 25 31.5 35s27.667 17.333 45 22c3.33301 8.66699 5.83301 17.667 7.5 27s2.5 20 2.5 32c0 17.333 -1.66699 34.166 -5 50.499s-7.66602 33.166 -12.999 50.499h-85v85z" />
    <glyph glyph-name="yen" unicode="&#xa5;" horiz-adv-x="608" 
d="M76 350h149l-204 365h145l147 -288l141 288h128l-192 -365h150v-64h-166v-67h166v-64h-166v-155h-132v155h-166v64h166v67h-166v64z" />
    <glyph glyph-name="brokenbar" unicode="&#xa6;" horiz-adv-x="268" 
d="M84 299h90v-447h-90v447zM84 776h90v-407h-90v407z" />
    <glyph glyph-name="section" unicode="&#xa7;" horiz-adv-x="569" 
d="M276 -137c-61.333 0 -109.832 14.998 -145.499 44.998s-54.167 72 -55.5 126h116c2 -25.333 9.33301 -45.166 22 -59.499s34 -21.5 64 -21.5c28.667 0 49.834 6.83301 63.501 20.5s20.5 31.167 20.5 52.5c0 10.667 -1.83301 20.167 -5.5 28.5s-10.334 16 -20.001 23
s-22.667 13.5 -39 19.5s-37.166 12 -62.499 18c-30 7.33301 -57.333 15.833 -82 25.5s-45.834 21.5 -63.501 35.5s-31.167 30.667 -40.5 50s-14 42.333 -14 69c0 33.333 10 61.5 30 84.5s47 39.833 81 50.5c-18 14.667 -31.667 31.834 -41 51.501s-14 43.5 -14 71.5
c0 26 5.33301 49.5 16 70.5s25 39 43 54s39 26.5 63 34.5s49.667 12 77 12c60.667 0 108.167 -14.5 142.5 -43.5s52.5 -70.167 54.5 -123.5h-115c-2 23.333 -8.83301 42 -20.5 56s-32.5 21 -62.5 21c-29.333 0 -50.5 -7.16699 -63.5 -21.5s-19.5 -31.833 -19.5 -52.5
c0 -11.333 1.66699 -21 5 -29s9.5 -15.333 18.5 -22s21.333 -13 37 -19s36.167 -12 61.5 -18c30 -7.33301 57.5 -15.666 82.5 -24.999s46.667 -20.666 65 -33.999s32.5 -29.833 42.5 -49.5s15 -43.834 15 -72.501c0 -30.667 -9.83301 -58 -29.5 -82s-46.5 -42 -80.5 -54
c17.333 -14 30.666 -30.833 39.999 -50.5s14 -43.5 14 -71.5c0 -24.667 -5 -47.334 -15 -68.001s-24 -38.5 -42 -53.5s-39.167 -26.833 -63.5 -35.5s-50.833 -13 -79.5 -13zM343.001 199.998c24.667 6 42.668 15.501 54.001 28.501s17 28.833 17 47.5
c0 12 -2.5 22.167 -7.5 30.5s-12.167 15.833 -21.5 22.5s-21.333 12.667 -36 18s-31.334 10.666 -50.001 15.999l-77 22c-21.333 -4.66699 -38.333 -13.667 -51 -27s-19 -29.666 -19 -48.999c0 -22.667 9.66699 -39.834 29 -51.501s48.333 -23.167 87 -34.5z" />
    <glyph glyph-name="dieresis" unicode="&#xa8;" horiz-adv-x="404" 
d="M101 613c-18 0 -33.5 6.33301 -46.5 19s-19.5 28 -19.5 46c0 17.333 6.5 32.5 19.5 45.5s28.5 19.5 46.5 19.5s33.5 -6.5 46.5 -19.5s19.5 -28.167 19.5 -45.5c0 -18 -6.5 -33.333 -19.5 -46s-28.5 -19 -46.5 -19zM299 613c-18.667 0 -34.334 6.33301 -47.001 19
s-19 28 -19 46c0 17.333 6.33301 32.5 19 45.5s28.334 19.5 47.001 19.5c18 0 33.5 -6.5 46.5 -19.5s19.5 -28.167 19.5 -45.5c0 -18 -6.5 -33.333 -19.5 -46s-28.5 -19 -46.5 -19z" />
    <glyph glyph-name="copyright" unicode="&#xa9;" horiz-adv-x="847" 
d="M425 153c-64.667 0 -114.168 18.167 -148.501 54.5s-51.5 84.833 -51.5 145.5v8c0 30 5 57.5 15 82.5s23.833 46.167 41.5 63.5s38.5 30.833 62.5 40.5s50.333 14.5 79 14.5c48.667 0 89.334 -12 122.001 -36s51 -60.667 55 -110h-96c-7.33301 46.667 -34.333 70 -81 70
c-30 0 -53.833 -10.667 -71.5 -32s-26.5 -52.333 -26.5 -93v-7c0 -40 8.5 -70.667 25.5 -92s41.5 -32 73.5 -32c23.333 0 43 6 59 18s25.667 30.667 29 56h92c-4 -50 -22.333 -87.667 -55 -113s-74 -38 -124 -38zM420.999 32c42.667 0 83.5029 8 122.503 24
s73.167 38.333 102.5 67s52.666 63 69.999 103s26 84.333 26 133c0 48 -8.33301 91.833 -25 131.5s-39.5 73.667 -68.5 102s-62.833 50.5 -101.5 66.5s-80 24 -124 24c-44.667 0 -86.5 -8 -125.5 -24s-73 -38.333 -102 -67s-51.833 -63 -68.5 -103s-25 -84 -25 -132
c0 -48.667 8.66699 -93 26 -133s40.666 -74.167 69.999 -102.5s63.166 -50.333 101.499 -66s78.833 -23.5 121.5 -23.5zM421.002 -13c-52 0 -100.67 9.5 -146.003 28.5s-84.833 45 -118.5 78s-60.167 72 -79.5 117s-29 93.833 -29 146.5c0 52 9.66699 100.5 29 145.5
s45.833 84.167 79.5 117.5s73.334 59.666 119.001 78.999s94.834 29 147.501 29s101.834 -9.5 147.501 -28.5s85.167 -45.167 118.5 -78.5s59.5 -72.5 78.5 -117.5s28.5 -93.167 28.5 -144.5c0 -52.667 -9.66699 -101.667 -29 -147s-46 -84.666 -80 -117.999
s-73.833 -59.5 -119.5 -78.5s-94.5 -28.5 -146.5 -28.5z" />
    <glyph glyph-name="ordfeminine" unicode="&#xaa;" horiz-adv-x="448" 
d="M169 289c-19.333 0 -37.3301 2.33203 -53.9971 6.99902s-31.5 12 -44.5 22s-23.167 22.833 -30.5 38.5s-11 34.5 -11 56.5c0 24.667 5.33301 45.334 16 62.001s25.5 30.167 44.5 40.5s41.667 17.833 68 22.5s55.166 7 86.499 7h51v22c0 25.333 -5.33301 44.333 -16 57
s-28.667 19 -54 19c-23.333 0 -40.833 -5.5 -52.5 -16.5s-19.167 -25.167 -22.5 -42.5h-104c2 24 8 44.833 18 62.5s23.167 32.167 39.5 43.5s35.166 19.833 56.499 25.5s44.666 8.5 69.999 8.5s48.5 -2.66699 69.5 -8s39.167 -14.166 54.5 -26.499s27.333 -28.333 36 -48
s13 -43.834 13 -72.501v-271h-107v50c-12 -17.333 -28 -31.5 -48 -42.5s-46.333 -16.5 -79 -16.5zM200.003 367.999c27.333 0 50 6.5 68 19.5s27 31.833 27 56.5v37h-48c-34 0 -60.667 -4.5 -80 -13.5s-29 -24.833 -29 -47.5c0 -16.667 4.83301 -29.5 14.5 -38.5
s25.5 -13.5 47.5 -13.5z" />
    <glyph glyph-name="guillemotleft" unicode="&#xab;" horiz-adv-x="496" 
d="M48 261l128 183h95l-123 -183l123 -183h-95zM227 261l128 183h95l-123 -183l123 -183h-95z" />
    <glyph glyph-name="uni00AD" unicode="&#xad;" horiz-adv-x="357" 
d="M56 329h240v-100h-240v100z" />
    <glyph glyph-name="registered" unicode="&#xae;" horiz-adv-x="519" 
d="M178 615h82.001c27.333 0 48.666 -5.5 63.999 -16.5s23 -28.167 23 -51.5v-1c0 -16 -4 -28.667 -12 -38s-18 -16.333 -30 -21l55 -91h-59l-48 81h-19v-81h-56v219zM258.001 515c22.667 0 34 9.33301 34 28v1c0 10.667 -3 18 -9 22s-14.333 6 -25 6h-24v-57h24z
M258.001 319c26 0 50.001 4.5 72.001 13.5s41.333 21.5 58 37.5s29.667 35.333 39 58s14 47.667 14 75s-4.5 52.333 -13.5 75s-21.667 42 -38 58s-35.666 28.5 -57.999 37.5s-46.833 13.5 -73.5 13.5s-51.334 -4.5 -74.001 -13.5s-42.167 -21.667 -58.5 -38
s-29 -35.833 -38 -58.5s-13.5 -47.667 -13.5 -75s4.83301 -52.333 14.5 -75s22.667 -42 39 -58s35.666 -28.333 57.999 -37s46.5 -13 72.5 -13zM258.002 281c-31.333 0 -60.667 5.66699 -88 17s-51.166 26.833 -71.499 46.5s-36.333 43 -48 70s-17.5 56.167 -17.5 87.5
c0 30.667 5.83301 59.5 17.5 86.5s27.667 50.667 48 71s44.166 36.333 71.499 48s56.666 17.5 87.999 17.5c32 0 61.667 -5.83301 89 -17.5s51 -27.5 71 -47.5s35.667 -43.5 47 -70.5s17 -55.833 17 -86.5c0 -31.333 -5.83301 -60.5 -17.5 -87.5s-27.5 -50.5 -47.5 -70.5
s-43.667 -35.667 -71 -47s-56.666 -17 -87.999 -17z" />
    <glyph glyph-name="macron" unicode="&#xaf;" horiz-adv-x="404" 
d="M60 712h280v-78h-280v78z" />
    <glyph glyph-name="degree" unicode="&#xb0;" horiz-adv-x="441" 
d="M219 459c26.667 0 48.334 9.66699 65.001 29s25 43 25 71c0 29.333 -8.33301 53.666 -25 72.999s-38.334 29 -65.001 29c-27.333 0 -49.666 -9.66699 -66.999 -29s-26 -43.666 -26 -72.999c0 -28 8.66699 -51.667 26 -71s39.666 -29 66.999 -29zM219 396
c-23.333 0 -45.333 4.33301 -66 13s-38.667 20.334 -54 35.001s-27.333 32 -36 52s-13 41 -13 63c0 22.667 4.33301 44 13 64s20.667 37.5 36 52.5s33.333 26.833 54 35.5s42.667 13 66 13s45.166 -4.33301 65.499 -13s38.166 -20.5 53.499 -35.5s27.333 -32.5 36 -52.5
s13 -41.333 13 -64c0 -22 -4.33301 -43 -13 -63s-20.667 -37.333 -36 -52s-33.166 -26.334 -53.499 -35.001s-42.166 -13 -65.499 -13z" />
    <glyph glyph-name="plusminus" unicode="&#xb1;" horiz-adv-x="543" 
d="M219 332h-182v94h182v176h101v-176h183v-94h-183v-175h-101v175zM37 89h467v-89h-467v89z" />
    <glyph glyph-name="twosuperior" unicode="&#xb2;" horiz-adv-x="317" 
d="M7 373l128.001 135c18 18.667 32.333 36 43 52s16 31.667 16 47c0 13.333 -3.5 23.833 -10.5 31.5s-17.5 11.5 -31.5 11.5c-14.667 0 -26.334 -4.83301 -35.001 -14.5s-14.334 -25.167 -17.001 -46.5h-85c2 42 15.5 74.333 40.5 97s58.5 34 100.5 34
c42.667 0 74.834 -10.167 96.501 -30.5s32.5 -46.5 32.5 -78.5c0 -24 -6.33301 -46 -19 -66s-29.667 -40 -51 -60l-58 -57h131v-68h-281v13z" />
    <glyph glyph-name="threesuperior" unicode="&#xb3;" horiz-adv-x="340" 
d="M166 354c-49.333 0 -85.6719 10.998 -109.005 32.998s-35.666 51 -36.999 87h83c1.33301 -15.333 6.5 -28.166 15.5 -38.499s23.167 -15.5 42.5 -15.5c18 0 31.5 4.16699 40.5 12.5s13.5 19.833 13.5 34.5c0 30 -18 45 -54 45h-28v58h27c34.667 0 52 14.333 52 43
c0 12 -3.66699 21.667 -11 29s-18.666 11 -33.999 11s-27.666 -4.16699 -36.999 -12.5s-15 -20.166 -17 -35.499h-83c2.66699 33.333 15.834 60.833 39.501 82.5s56.834 32.5 99.501 32.5c42 0 74.333 -9 97 -27s34 -41.333 34 -70c0 -20 -5.5 -36.333 -16.5 -49
s-25.833 -22 -44.5 -28c20.667 -4 37.5 -13 50.5 -27s19.5 -32.333 19.5 -55c0 -34 -12.333 -60.833 -37 -80.5s-60 -29.5 -106 -29.5z" />
    <glyph glyph-name="acute" unicode="&#xb4;" horiz-adv-x="404" 
d="M207 756h134l-104 -155h-89z" />
    <glyph glyph-name="paragraph" unicode="&#xb6;" horiz-adv-x="577" 
d="M268 339h-10.999c-32.667 0 -62.334 3.83301 -89.001 11.5s-49.667 19.167 -69 34.5s-34.333 34.5 -45 57.5s-16 50.167 -16 81.5c0 32 5.5 60 16.5 84s26.167 44 45.5 60s42.5 27.833 69.5 35.5s56.167 11.5 87.5 11.5h232v-815h-72v755h-78v-755h-71v439z" />
    <glyph glyph-name="periodcentered" unicode="&#xb7;" horiz-adv-x="293" 
d="M144 248c-22 0 -40.667 7.66699 -56 23s-23 34 -23 56s7.66699 40.5 23 55.5s34 22.5 56 22.5c22.667 0 41.667 -7.5 57 -22.5s23 -33.5 23 -55.5s-7.66699 -40.667 -23 -56s-34.333 -23 -57 -23z" />
    <glyph glyph-name="cedilla" unicode="&#xb8;" horiz-adv-x="404" 
d="M206 -219c-32 0 -57.5 7.83398 -76.5 23.501s-30.167 37.167 -33.5 64.5h66c1.33301 -8.66699 5.33301 -16.334 12 -23.001s16 -10 28 -10c11.333 0 20.333 3.16699 27 9.5s10 14.5 10 24.5c0 9.33301 -3.16699 17 -9.5 23s-14.833 9 -25.5 9
c-7.33301 0 -13.333 -1 -18 -3s-8.66699 -4 -12 -6l-34 32l44 75h60l-29 -50c12.667 1.33301 25 0.833008 37 -1.5s22.667 -7 32 -14s16.833 -16 22.5 -27s8.5 -24.5 8.5 -40.5c0 -28 -10.333 -49.333 -31 -64s-46.667 -22 -78 -22z" />
    <glyph glyph-name="onesuperior" unicode="&#xb9;" horiz-adv-x="257" 
d="M104 625l-82 -51v78l94 63h82v-355h-94v265z" />
    <glyph glyph-name="ordmasculine" unicode="&#xba;" horiz-adv-x="508" 
d="M253 374c34 0 59.833 11.668 77.5 35.001s26.5 55 26.5 95v6c0 40 -9 71.5 -27 94.5s-43.667 34.5 -77 34.5s-59.333 -11.333 -78 -34s-28 -54.334 -28 -95.001v-6c0 -40.667 9.16699 -72.5 27.5 -95.5s44.5 -34.5 78.5 -34.5zM252 289.001
c-31.333 0 -60.333 4.99902 -87 14.999s-49.667 24.333 -69 43s-34.5 41 -45.5 67s-16.5 55 -16.5 87v6c0 32.667 5.5 62.5 16.5 89.5s26.333 49.833 46 68.5s42.834 33.167 69.501 43.5s55.667 15.5 87 15.5c30.667 0 59.334 -5 86.001 -15s49.667 -24.333 69 -43
s34.5 -41.167 45.5 -67.5s16.5 -55.5 16.5 -87.5v-6c0 -33.333 -5.5 -63.166 -16.5 -89.499s-26.333 -49 -46 -68s-42.834 -33.5 -69.501 -43.5s-55.334 -15 -86.001 -15z" />
    <glyph glyph-name="guillemotright" unicode="&#xbb;" horiz-adv-x="496" 
d="M166 261l-123 183h95l128 -183l-128 -183h-95zM344 261l-123 183h95l128 -183l-128 -183h-95z" />
    <glyph glyph-name="onequarter" unicode="&#xbc;" horiz-adv-x="728" 
d="M106 625l-82 -51v78l94 63h82v-355h-94v265zM583 715h77l-528 -715h-77zM566 69h-178v34l154 252h113v-222h46v-64h-46v-69h-89v69zM568 133v157l-91 -157h91z" />
    <glyph glyph-name="onehalf" unicode="&#xbd;" horiz-adv-x="732" 
d="M106 625l-82 -51v78l94 63h82v-355h-94v265zM570 715h77l-528 -715h-77zM418 13l128.001 135c18 18.667 32.333 36 43 52s16 31.667 16 47c0 13.333 -3.5 23.833 -10.5 31.5s-17.5 11.5 -31.5 11.5c-14.667 0 -26.334 -4.83301 -35.001 -14.5
s-14.334 -25.167 -17.001 -46.5h-85c2 42 15.5 74.333 40.5 97s58.5 34 100.5 34c42.667 0 74.834 -10.167 96.501 -30.5s32.5 -46.5 32.5 -78.5c0 -24 -6.33301 -46 -19 -66s-29.667 -40 -51 -60l-58 -57h131v-68h-281v13z" />
    <glyph glyph-name="threequarters" unicode="&#xbe;" horiz-adv-x="742" 
d="M169 354c-49.333 0 -85.6719 10.998 -109.005 32.998s-35.666 51 -36.999 87h83c1.33301 -15.333 6.5 -28.166 15.5 -38.499s23.167 -15.5 42.5 -15.5c18 0 31.5 4.16699 40.5 12.5s13.5 19.833 13.5 34.5c0 30 -18 45 -54 45h-28v58h27c34.667 0 52 14.333 52 43
c0 12 -3.66699 21.667 -11 29s-18.666 11 -33.999 11s-27.666 -4.16699 -36.999 -12.5s-15 -20.166 -17 -35.499h-83c2.66699 33.333 15.834 60.833 39.501 82.5s56.834 32.5 99.501 32.5c42 0 74.333 -9 97 -27s34 -41.333 34 -70c0 -20 -5.5 -36.333 -16.5 -49
s-25.833 -22 -44.5 -28c20.667 -4 37.5 -13 50.5 -27s19.5 -32.333 19.5 -55c0 -34 -12.333 -60.833 -37 -80.5s-60 -29.5 -106 -29.5zM623.994 714.998h77l-528 -715h-77zM576.994 68.998h-178v34l154 252h113v-222h46v-64h-46v-69h-89v69zM578.994 132.998v157l-91 -157
h91z" />
    <glyph glyph-name="questiondown" unicode="&#xbf;" horiz-adv-x="520" 
d="M340.011 346.016c0 -19.999 -3.00195 -37.998 -9.00098 -53.9971c-6 -15.999 -13.833 -30.998 -23.499 -44.9971s-20.499 -27.165 -32.498 -39.498l-35.998 -36.4971c-18.665 -18.666 -34.9971 -36.832 -48.9961 -54.4971s-20.998 -37.1641 -20.998 -58.4961
c0 -25.332 7.16602 -45.6641 21.498 -60.9961c14.333 -15.333 36.832 -22.999 67.4971 -22.999c31.3311 0 56.9961 10.166 76.9951 30.498s31.665 47.8301 34.998 82.4951h115.993c-2 -32.665 -9 -62.1631 -20.999 -88.4941
c-11.999 -26.332 -28.165 -48.6641 -48.4971 -66.9961c-20.332 -18.333 -44.4971 -32.499 -72.4951 -42.498c-27.999 -9.99902 -58.6641 -14.999 -91.9951 -14.999c-35.9971 0 -67.1621 4.5 -93.4941 13.499c-26.3311 9 -48.1631 21.499 -65.4961 37.498
c-17.332 15.999 -30.1641 34.665 -38.4971 55.9971s-12.499 43.9971 -12.499 67.9951c0 17.999 2.5 34.3311 7.49902 48.9961c5 14.666 11.5 28.499 19.499 41.498s17.332 25.3311 27.998 36.9961c10.666 11.666 21.665 22.832 32.998 33.498l34.998 33.498
c11.333 10.999 21.499 22.165 30.498 33.498s16.499 23.166 22.499 35.499c5.99902 12.333 9.33203 25.499 9.99902 39.498v31.998h111.993v-37.9971zM285.012 606c22.665 0 41.9971 -7.5 57.9961 -22.499s23.998 -33.165 23.998 -54.4971
c0 -21.999 -7.99902 -40.498 -23.998 -55.4971s-35.3311 -22.499 -57.9961 -22.499c-21.999 0 -40.8311 7.5 -56.4961 22.499c-15.666 14.999 -23.499 33.498 -23.499 55.4971c0 21.332 7.83301 39.498 23.499 54.4971c15.665 14.999 34.4971 22.499 56.4961 22.499z" />
    <glyph glyph-name="Agrave" unicode="&#xc0;" horiz-adv-x="707" 
d="M266 715h174l236 -715h-138l-57 177h-273l-56 -177h-125zM239 274h211l-105 332zM213 901h136l53 -135h-91z" />
    <glyph glyph-name="Aacute" unicode="&#xc1;" horiz-adv-x="707" 
d="M266 715h174l236 -715h-138l-57 177h-273l-56 -177h-125zM239 274h211l-105 332zM352 901h136l-99 -135h-91z" />
    <glyph glyph-name="Acircumflex" unicode="&#xc2;" horiz-adv-x="707" 
d="M266 715h174l236 -715h-138l-57 177h-273l-56 -177h-125zM239 274h211l-105 332zM299 901h104l108 -135h-88l-74 55l-75 -55h-86z" />
    <glyph glyph-name="Atilde" unicode="&#xc3;" horiz-adv-x="707" 
d="M266 715h174l236 -715h-138l-57 177h-273l-56 -177h-125zM239 274h211l-105 332zM408 768c-12 0 -23.1641 2 -33.4971 6s-20.166 8.5 -29.499 13.5l-26 13.5c-8 4 -15.667 6 -23 6c-9.33301 0 -17.333 -3.83301 -24 -11.5s-11 -17.167 -13 -28.5h-76
c3.33301 42 15.333 74.333 36 97s45 34 73 34c11.333 0 22.166 -2.16699 32.499 -6.5s20.166 -9 29.499 -14s18.166 -9.5 26.499 -13.5s16.5 -6 24.5 -6c9.33301 0 17.166 3.83301 23.499 11.5s10.5 17.167 12.5 28.5h77c-4 -42 -16.333 -74.167 -37 -96.5
s-45 -33.5 -73 -33.5z" />
    <glyph glyph-name="Adieresis" unicode="&#xc4;" horiz-adv-x="707" 
d="M266 715h174l236 -715h-138l-57 177h-273l-56 -177h-125zM239 274h211l-105 332zM244 777c-18 0 -33.5 6.33301 -46.5 19s-19.5 28 -19.5 46s6.5 33.333 19.5 46s28.5 19 46.5 19s33.5 -6.33301 46.5 -19s19.5 -28 19.5 -46s-6.5 -33.333 -19.5 -46s-28.5 -19 -46.5 -19z
M455 777c-18 0 -33.5 6.33301 -46.5 19s-19.5 28 -19.5 46s6.5 33.333 19.5 46s28.5 19 46.5 19s33.5 -6.33301 46.5 -19s19.5 -28 19.5 -46s-6.5 -33.333 -19.5 -46s-28.5 -19 -46.5 -19z" />
    <glyph glyph-name="Aring" unicode="&#xc5;" horiz-adv-x="707" 
d="M266 715h174l236 -715h-138l-57 177h-273l-56 -177h-125zM239 274h211l-105 332zM350 807c14.667 0 26.667 5.16699 36 15.5s14 23.5 14 39.5s-4.66699 29.167 -14 39.5s-21.333 15.5 -36 15.5c-15.333 0 -27.5 -5.16699 -36.5 -15.5s-13.5 -23.5 -13.5 -39.5
s4.5 -29.167 13.5 -39.5s21.167 -15.5 36.5 -15.5zM350 753c-15.333 0 -29.833 2.83301 -43.5 8.5s-25.5 13.5 -35.5 23.5s-18 21.5 -24 34.5s-9 27.167 -9 42.5c0 14.667 3 28.667 9 42s14 25 24 35s21.833 17.833 35.5 23.5s28.167 8.5 43.5 8.5
s29.833 -2.83301 43.5 -8.5s25.5 -13.5 35.5 -23.5s18 -21.667 24 -35s9 -27.333 9 -42c0 -15.333 -3 -29.5 -9 -42.5s-14 -24.5 -24 -34.5s-21.833 -17.833 -35.5 -23.5s-28.167 -8.5 -43.5 -8.5z" />
    <glyph glyph-name="AE" unicode="&#xc6;" horiz-adv-x="975" 
d="M373 715h543v-105h-312v-196h250v-100h-250v-209h329v-105h-462v183h-232l-87 -183h-130zM285 278h186v332h-27z" />
    <glyph glyph-name="Ccedilla" unicode="&#xc7;" horiz-adv-x="745" 
d="M380 -219c-32 0 -57.502 7.83398 -76.502 23.501s-30.167 37.167 -33.5 64.5h66c1.33301 -8.66699 5.33301 -16.334 12 -23.001s16 -10 28 -10c11.333 0 20.333 3.16699 27 9.5s10 14.5 10 24.5c0 9.33301 -3.16699 17 -9.5 23s-14.833 9 -25.5 9
c-7.33301 0 -13.333 -1 -18 -3s-8.66699 -4 -12 -6l-34 32l39 67c-49.333 4 -93.166 15.5 -131.499 34.5s-70.5 44 -96.5 75s-45.667 67.833 -59 110.5s-20 89.667 -20 141v8c0 54 8.66699 103.333 26 148s41.5 83 72.5 115s67.667 57 110 75s88.5 27 138.5 27
c40.667 0 78.834 -5.16699 114.501 -15.5s67.167 -25.833 94.5 -46.5s49.5 -46.667 66.5 -78s27.5 -68 31.5 -110h-135c-7.33301 48 -24.666 84 -51.999 108s-67 36 -119 36c-31.333 0 -59.833 -6 -85.5 -18s-47.5 -29 -65.5 -51s-32 -49 -42 -81s-15 -68 -15 -108v-8
c0 -80.667 18.167 -143.5 54.5 -188.5s87.833 -67.5 154.5 -67.5c50 0 91.167 12.5 123.5 37.5s52.166 62.833 59.499 113.5h130c-10.667 -83.333 -42.5 -146.5 -95.5 -189.5s-119.833 -66.167 -200.5 -69.5l-23 -40c12.667 1.33301 25 0.833008 37 -1.5s22.667 -7 32 -14
s16.833 -16 22.5 -27s8.5 -24.5 8.5 -40.5c0 -28 -10.333 -49.333 -31 -64s-46.667 -22 -78 -22z" />
    <glyph glyph-name="Egrave" unicode="&#xc8;" horiz-adv-x="588" 
d="M82 715h447v-105h-314v-196h252v-100h-252v-209h331v-105h-464v715zM176 901h136l53 -135h-91z" />
    <glyph glyph-name="Eacute" unicode="&#xc9;" horiz-adv-x="588" 
d="M82 715h447v-105h-314v-196h252v-100h-252v-209h331v-105h-464v715zM315 901h136l-99 -135h-91z" />
    <glyph glyph-name="Ecircumflex" unicode="&#xca;" horiz-adv-x="588" 
d="M82 715h447v-105h-314v-196h252v-100h-252v-209h331v-105h-464v715zM262 901h104l108 -135h-88l-74 55l-75 -55h-86z" />
    <glyph glyph-name="Edieresis" unicode="&#xcb;" horiz-adv-x="588" 
d="M82 715h447v-105h-314v-196h252v-100h-252v-209h331v-105h-464v715zM207 777c-18 0 -33.5 6.33301 -46.5 19s-19.5 28 -19.5 46s6.5 33.333 19.5 46s28.5 19 46.5 19s33.5 -6.33301 46.5 -19s19.5 -28 19.5 -46s-6.5 -33.333 -19.5 -46s-28.5 -19 -46.5 -19zM418 777
c-18 0 -33.5 6.33301 -46.5 19s-19.5 28 -19.5 46s6.5 33.333 19.5 46s28.5 19 46.5 19s33.5 -6.33301 46.5 -19s19.5 -28 19.5 -46s-6.5 -33.333 -19.5 -46s-28.5 -19 -46.5 -19z" />
    <glyph glyph-name="Igrave" unicode="&#xcc;" horiz-adv-x="311" 
d="M86 715h134v-715h-134v715zM16 901h136l53 -135h-91z" />
    <glyph glyph-name="Iacute" unicode="&#xcd;" horiz-adv-x="311" 
d="M86 715h134v-715h-134v715zM155 901h136l-99 -135h-91z" />
    <glyph glyph-name="Icircumflex" unicode="&#xce;" horiz-adv-x="311" 
d="M86 715h134v-715h-134v715zM102 901h104l108 -135h-88l-74 55l-75 -55h-86z" />
    <glyph glyph-name="Idieresis" unicode="&#xcf;" horiz-adv-x="311" 
d="M86 715h134v-715h-134v715zM47 777c-18 0 -33.5 6.33301 -46.5 19s-19.5 28 -19.5 46s6.5 33.333 19.5 46s28.5 19 46.5 19s33.5 -6.33301 46.5 -19s19.5 -28 19.5 -46s-6.5 -33.333 -19.5 -46s-28.5 -19 -46.5 -19zM258 777c-18 0 -33.5 6.33301 -46.5 19
s-19.5 28 -19.5 46s6.5 33.333 19.5 46s28.5 19 46.5 19s33.5 -6.33301 46.5 -19s19.5 -28 19.5 -46s-6.5 -33.333 -19.5 -46s-28.5 -19 -46.5 -19z" />
    <glyph glyph-name="Eth" unicode="&#xd0;" horiz-adv-x="743" 
d="M32 406h69.002v309h217c62 0 116.167 -8.5 162.5 -25.5s84.833 -40.833 115.5 -71.5s53.667 -67.5 69 -110.5s23 -90.5 23 -142.5v-9c0 -52 -7.5 -99.833 -22.5 -143.5s-37.833 -81.167 -68.5 -112.5s-69.334 -55.833 -116.001 -73.5s-101.334 -26.5 -164.001 -26.5h-216
v311h-69v95zM313.002 105c80.667 0 140.167 21.835 178.5 65.502s57.5 105.167 57.5 184.5v8c0 38.667 -4.5 73.167 -13.5 103.5s-23 56.166 -42 77.499s-43.5 37.666 -73.5 48.999s-66 17 -108 17h-79v-204h173v-95h-173v-206h80z" />
    <glyph glyph-name="Ntilde" unicode="&#xd1;" horiz-adv-x="749" 
d="M82 715h159l301 -517v517h121v-715h-138l-322 548v-548h-121v715zM443 768c-12 0 -23.1641 2 -33.4971 6s-20.166 8.5 -29.499 13.5l-26 13.5c-8 4 -15.667 6 -23 6c-9.33301 0 -17.333 -3.83301 -24 -11.5s-11 -17.167 -13 -28.5h-76c3.33301 42 15.333 74.333 36 97
s45 34 73 34c11.333 0 22.166 -2.16699 32.499 -6.5s20.166 -9 29.499 -14s18.166 -9.5 26.499 -13.5s16.5 -6 24.5 -6c9.33301 0 17.166 3.83301 23.499 11.5s10.5 17.167 12.5 28.5h77c-4 -42 -16.333 -74.167 -37 -96.5s-45 -33.5 -73 -33.5z" />
    <glyph glyph-name="Ograve" unicode="&#xd2;" horiz-adv-x="818" 
d="M410 97c34 0 64.499 6.16406 91.499 18.4971s50 29.833 69 52.5s33.667 49.834 44 81.501s15.5 66.834 15.5 105.501v8c0 36.667 -5 70.667 -15 102s-24.5 58.333 -43.5 81s-42.333 40.5 -70 53.5s-58.834 19.5 -93.501 19.5c-35.333 0 -66.666 -6.16699 -93.999 -18.5
s-50.666 -29.833 -69.999 -52.5s-34 -49.667 -44 -81s-15 -66.333 -15 -105v-8c0 -39.333 5.66699 -74.666 17 -105.999s27 -58.333 47 -81s43.667 -40 71 -52s57.333 -18 90 -18zM407.999 -10.0029c-54.667 0 -104.334 9.1709 -149.001 27.5039s-82.667 43.833 -114 76.5
s-55.666 71.167 -72.999 115.5s-26 92.166 -26 143.499v8c0 52 8.83301 100.333 26.5 145s42.5 83.167 74.5 115.5s70.167 57.666 114.5 75.999s93.166 27.5 146.499 27.5s102 -9 146 -27s81.833 -43 113.5 -75s56.334 -70 74.001 -114s26.5 -92.333 26.5 -145v-8
c0 -52 -8.5 -100.333 -25.5 -145s-41.333 -83.334 -73 -116.001s-69.667 -58.334 -114 -77.001s-93.5 -28 -147.5 -28zM268.999 901.001h136l53 -135h-91z" />
    <glyph glyph-name="Oacute" unicode="&#xd3;" horiz-adv-x="818" 
d="M410 97c34 0 64.499 6.16406 91.499 18.4971s50 29.833 69 52.5s33.667 49.834 44 81.501s15.5 66.834 15.5 105.501v8c0 36.667 -5 70.667 -15 102s-24.5 58.333 -43.5 81s-42.333 40.5 -70 53.5s-58.834 19.5 -93.501 19.5c-35.333 0 -66.666 -6.16699 -93.999 -18.5
s-50.666 -29.833 -69.999 -52.5s-34 -49.667 -44 -81s-15 -66.333 -15 -105v-8c0 -39.333 5.66699 -74.666 17 -105.999s27 -58.333 47 -81s43.667 -40 71 -52s57.333 -18 90 -18zM407.999 -10.0029c-54.667 0 -104.334 9.1709 -149.001 27.5039s-82.667 43.833 -114 76.5
s-55.666 71.167 -72.999 115.5s-26 92.166 -26 143.499v8c0 52 8.83301 100.333 26.5 145s42.5 83.167 74.5 115.5s70.167 57.666 114.5 75.999s93.166 27.5 146.499 27.5s102 -9 146 -27s81.833 -43 113.5 -75s56.334 -70 74.001 -114s26.5 -92.333 26.5 -145v-8
c0 -52 -8.5 -100.333 -25.5 -145s-41.333 -83.334 -73 -116.001s-69.667 -58.334 -114 -77.001s-93.5 -28 -147.5 -28zM407.999 901.001h136l-99 -135h-91z" />
    <glyph glyph-name="Ocircumflex" unicode="&#xd4;" horiz-adv-x="818" 
d="M410 97c34 0 64.499 6.16406 91.499 18.4971s50 29.833 69 52.5s33.667 49.834 44 81.501s15.5 66.834 15.5 105.501v8c0 36.667 -5 70.667 -15 102s-24.5 58.333 -43.5 81s-42.333 40.5 -70 53.5s-58.834 19.5 -93.501 19.5c-35.333 0 -66.666 -6.16699 -93.999 -18.5
s-50.666 -29.833 -69.999 -52.5s-34 -49.667 -44 -81s-15 -66.333 -15 -105v-8c0 -39.333 5.66699 -74.666 17 -105.999s27 -58.333 47 -81s43.667 -40 71 -52s57.333 -18 90 -18zM407.999 -10.0029c-54.667 0 -104.334 9.1709 -149.001 27.5039s-82.667 43.833 -114 76.5
s-55.666 71.167 -72.999 115.5s-26 92.166 -26 143.499v8c0 52 8.83301 100.333 26.5 145s42.5 83.167 74.5 115.5s70.167 57.666 114.5 75.999s93.166 27.5 146.499 27.5s102 -9 146 -27s81.833 -43 113.5 -75s56.334 -70 74.001 -114s26.5 -92.333 26.5 -145v-8
c0 -52 -8.5 -100.333 -25.5 -145s-41.333 -83.334 -73 -116.001s-69.667 -58.334 -114 -77.001s-93.5 -28 -147.5 -28zM354.999 901.001h104l108 -135h-88l-74 55l-75 -55h-86z" />
    <glyph glyph-name="Otilde" unicode="&#xd5;" horiz-adv-x="818" 
d="M410 97c34 0 64.499 6.16406 91.499 18.4971s50 29.833 69 52.5s33.667 49.834 44 81.501s15.5 66.834 15.5 105.501v8c0 36.667 -5 70.667 -15 102s-24.5 58.333 -43.5 81s-42.333 40.5 -70 53.5s-58.834 19.5 -93.501 19.5c-35.333 0 -66.666 -6.16699 -93.999 -18.5
s-50.666 -29.833 -69.999 -52.5s-34 -49.667 -44 -81s-15 -66.333 -15 -105v-8c0 -39.333 5.66699 -74.666 17 -105.999s27 -58.333 47 -81s43.667 -40 71 -52s57.333 -18 90 -18zM407.999 -10.0029c-54.667 0 -104.334 9.1709 -149.001 27.5039s-82.667 43.833 -114 76.5
s-55.666 71.167 -72.999 115.5s-26 92.166 -26 143.499v8c0 52 8.83301 100.333 26.5 145s42.5 83.167 74.5 115.5s70.167 57.666 114.5 75.999s93.166 27.5 146.499 27.5s102 -9 146 -27s81.833 -43 113.5 -75s56.334 -70 74.001 -114s26.5 -92.333 26.5 -145v-8
c0 -52 -8.5 -100.333 -25.5 -145s-41.333 -83.334 -73 -116.001s-69.667 -58.334 -114 -77.001s-93.5 -28 -147.5 -28zM463.999 768.001c-12 0 -23.1641 2 -33.4971 6s-20.166 8.5 -29.499 13.5l-26 13.5c-8 4 -15.667 6 -23 6c-9.33301 0 -17.333 -3.83301 -24 -11.5
s-11 -17.167 -13 -28.5h-76c3.33301 42 15.333 74.333 36 97s45 34 73 34c11.333 0 22.166 -2.16699 32.499 -6.5s20.166 -9 29.499 -14s18.166 -9.5 26.499 -13.5s16.5 -6 24.5 -6c9.33301 0 17.166 3.83301 23.499 11.5s10.5 17.167 12.5 28.5h77
c-4 -42 -16.333 -74.167 -37 -96.5s-45 -33.5 -73 -33.5z" />
    <glyph glyph-name="Odieresis" unicode="&#xd6;" horiz-adv-x="818" 
d="M410 97c34 0 64.499 6.16406 91.499 18.4971s50 29.833 69 52.5s33.667 49.834 44 81.501s15.5 66.834 15.5 105.501v8c0 36.667 -5 70.667 -15 102s-24.5 58.333 -43.5 81s-42.333 40.5 -70 53.5s-58.834 19.5 -93.501 19.5c-35.333 0 -66.666 -6.16699 -93.999 -18.5
s-50.666 -29.833 -69.999 -52.5s-34 -49.667 -44 -81s-15 -66.333 -15 -105v-8c0 -39.333 5.66699 -74.666 17 -105.999s27 -58.333 47 -81s43.667 -40 71 -52s57.333 -18 90 -18zM407.999 -10.0029c-54.667 0 -104.334 9.1709 -149.001 27.5039s-82.667 43.833 -114 76.5
s-55.666 71.167 -72.999 115.5s-26 92.166 -26 143.499v8c0 52 8.83301 100.333 26.5 145s42.5 83.167 74.5 115.5s70.167 57.666 114.5 75.999s93.166 27.5 146.499 27.5s102 -9 146 -27s81.833 -43 113.5 -75s56.334 -70 74.001 -114s26.5 -92.333 26.5 -145v-8
c0 -52 -8.5 -100.333 -25.5 -145s-41.333 -83.334 -73 -116.001s-69.667 -58.334 -114 -77.001s-93.5 -28 -147.5 -28zM299.999 777.001c-18 0 -33.5 6.33301 -46.5 19s-19.5 28 -19.5 46s6.5 33.333 19.5 46s28.5 19 46.5 19s33.5 -6.33301 46.5 -19s19.5 -28 19.5 -46
s-6.5 -33.333 -19.5 -46s-28.5 -19 -46.5 -19zM510.999 777.001c-18 0 -33.5 6.33301 -46.5 19s-19.5 28 -19.5 46s6.5 33.333 19.5 46s28.5 19 46.5 19s33.5 -6.33301 46.5 -19s19.5 -28 19.5 -46s-6.5 -33.333 -19.5 -46s-28.5 -19 -46.5 -19z" />
    <glyph glyph-name="multiply" unicode="&#xd7;" horiz-adv-x="513" 
d="M35 181l154 153l-155 154l66 67l154 -155l154 154l66 -66l-154 -154l155 -154l-67 -66l-154 155l-153 -154z" />
    <glyph glyph-name="Oslash" unicode="&#xd8;" horiz-adv-x="818" 
d="M34 18l90.999 98.0029c-25.333 32 -44.833 68 -58.5 108s-20.5 83 -20.5 129v8c0 52 8.83301 100.167 26.5 144.5s42.5 82.666 74.5 114.999s70.167 57.666 114.5 75.999s93.166 27.5 146.499 27.5c42.667 0 82.334 -5.83301 119.001 -17.5s70 -28.167 100 -49.5l78 84
l50 -50l-75 -81c28 -32 49.833 -68.667 65.5 -110s23.5 -86.666 23.5 -135.999v-8c0 -52 -8.66699 -100.333 -26 -145s-41.666 -83.334 -72.999 -116.001s-69.333 -58.334 -114 -77.001s-94 -28 -148 -28c-46.667 0 -89.5 6.66699 -128.5 20s-73.5 32 -103.5 56l-92 -99z
M408.999 97.0029c34 0 64.833 6.16602 92.5 18.499s51 29.833 70 52.5s33.667 49.834 44 81.501s15.5 67.167 15.5 106.5v8c0 60.667 -12.333 112 -37 154l-336 -364c40 -38 90.333 -57 151 -57zM183.999 354.002c0 -54.667 10.333 -101.667 31 -141l333 359
c-37.333 31.333 -84 47 -140 47c-35.333 0 -66.833 -6.16699 -94.5 -18.5s-51.167 -29.833 -70.5 -52.5s-34 -49.667 -44 -81s-15 -66.333 -15 -105v-8z" />
    <glyph glyph-name="Ugrave" unicode="&#xd9;" horiz-adv-x="727" 
d="M357 -10c-90 0 -159.333 23.832 -208 71.499s-73 117.834 -73 210.501v443h134v-433c0 -66 11.333 -113.333 34 -142s60.667 -43 114 -43c26 0 48.667 3.16699 68 9.5s35.5 17 48.5 32s22.667 34.833 29 59.5s9.5 55.667 9.5 93v424h134v-435
c0 -94 -24.5 -165.833 -73.5 -215.5s-121.167 -74.5 -216.5 -74.5zM223 900.999h136l53 -135h-91z" />
    <glyph glyph-name="Uacute" unicode="&#xda;" horiz-adv-x="727" 
d="M357 -10c-90 0 -159.333 23.832 -208 71.499s-73 117.834 -73 210.501v443h134v-433c0 -66 11.333 -113.333 34 -142s60.667 -43 114 -43c26 0 48.667 3.16699 68 9.5s35.5 17 48.5 32s22.667 34.833 29 59.5s9.5 55.667 9.5 93v424h134v-435
c0 -94 -24.5 -165.833 -73.5 -215.5s-121.167 -74.5 -216.5 -74.5zM362 900.999h136l-99 -135h-91z" />
    <glyph glyph-name="Ucircumflex" unicode="&#xdb;" horiz-adv-x="727" 
d="M357 -10c-90 0 -159.333 23.832 -208 71.499s-73 117.834 -73 210.501v443h134v-433c0 -66 11.333 -113.333 34 -142s60.667 -43 114 -43c26 0 48.667 3.16699 68 9.5s35.5 17 48.5 32s22.667 34.833 29 59.5s9.5 55.667 9.5 93v424h134v-435
c0 -94 -24.5 -165.833 -73.5 -215.5s-121.167 -74.5 -216.5 -74.5zM309 900.999h104l108 -135h-88l-74 55l-75 -55h-86z" />
    <glyph glyph-name="Udieresis" unicode="&#xdc;" horiz-adv-x="727" 
d="M357 -10c-90 0 -159.333 23.832 -208 71.499s-73 117.834 -73 210.501v443h134v-433c0 -66 11.333 -113.333 34 -142s60.667 -43 114 -43c26 0 48.667 3.16699 68 9.5s35.5 17 48.5 32s22.667 34.833 29 59.5s9.5 55.667 9.5 93v424h134v-435
c0 -94 -24.5 -165.833 -73.5 -215.5s-121.167 -74.5 -216.5 -74.5zM254 776.999c-18 0 -33.5 6.33301 -46.5 19s-19.5 28 -19.5 46s6.5 33.333 19.5 46s28.5 19 46.5 19s33.5 -6.33301 46.5 -19s19.5 -28 19.5 -46s-6.5 -33.333 -19.5 -46s-28.5 -19 -46.5 -19zM465 776.999
c-18 0 -33.5 6.33301 -46.5 19s-19.5 28 -19.5 46s6.5 33.333 19.5 46s28.5 19 46.5 19s33.5 -6.33301 46.5 -19s19.5 -28 19.5 -46s-6.5 -33.333 -19.5 -46s-28.5 -19 -46.5 -19z" />
    <glyph glyph-name="Yacute" unicode="&#xdd;" horiz-adv-x="633" 
d="M254 310l-237 405h147l161 -296l157 296h130l-224 -406v-309h-134v310zM319 901h136l-99 -135h-91z" />
    <glyph glyph-name="Thorn" unicode="&#xde;" horiz-adv-x="613" 
d="M82 715l133 -0.000976562v-127h97c40 0 76.333 -4.16699 109 -12.5s60.5 -21.166 83.5 -38.499s40.833 -39.5 53.5 -66.5s19 -59.5 19 -97.5v-4c0 -38 -6.5 -70.5 -19.5 -97.5s-31 -49.333 -54 -67s-50.667 -30.667 -83 -39s-67.5 -12.5 -105.5 -12.5h-100v-153h-133v715
zM312 249.999c44 0 77.501 9.83301 100.501 29.5s34.5 49.5 34.5 89.5v4c0 42.667 -11.833 72.5 -35.5 89.5s-56.834 25.5 -99.501 25.5h-97v-238h97z" />
    <glyph glyph-name="germandbls" unicode="&#xdf;" horiz-adv-x="612" 
d="M353 -9c-21.333 0 -40.1631 1.49707 -56.4961 4.49707s-28.5 6.16699 -36.5 9.5v96c8 -3.33301 18.167 -6.66602 30.5 -9.99902s26.166 -5 41.499 -5c14 0 28 1.83301 42 5.5s26.5 10.667 37.5 21s20 24.333 27 42s10.5 40.5 10.5 68.5v7c0 50.667 -15.833 89 -47.5 115
s-73.834 38.333 -126.501 37v95c24 -0.666992 44.167 2.33301 60.5 9s29.5 15.334 39.5 26.001s17.167 22.5 21.5 35.5s6.5 26.167 6.5 39.5v4c0 30 -8.83301 53.333 -26.5 70s-43.5 25 -77.5 25c-32 0 -57.667 -10.667 -77 -32s-29 -50.666 -29 -87.999v-566h-121v557
c0 35.333 6.16699 66.5 18.5 93.5s29.166 49.667 50.499 68s46 32.166 74 41.499s57.667 14 89 14c32 0 61.167 -4.16699 87.5 -12.5s48.833 -20.166 67.5 -35.499s33.167 -34.333 43.5 -57s15.5 -48 15.5 -76v-3c0 -32.667 -10.5 -63.334 -31.5 -92.001
s-50.167 -49 -87.5 -61c24.667 -6 47.667 -15.333 69 -28s39.666 -28 54.999 -46s27.5 -38.667 36.5 -62s13.5 -48.666 13.5 -75.999v-6c0 -41.333 -6 -76.5 -18 -105.5s-28 -52.5 -48 -70.5s-43.333 -31.167 -70 -39.5s-54.667 -12.5 -84 -12.5z" />
    <glyph glyph-name="agrave" unicode="&#xe0;" horiz-adv-x="559" 
d="M209 -10c-24 0 -46.667 3 -68 9s-39.833 15.167 -55.5 27.5s-28.167 28.333 -37.5 48s-14 43.167 -14 70.5c0 30.667 7 56.5 21 77.5s33 38 57 51s52.333 22.5 85 28.5s67.667 9 105 9h65v27c0 35.333 -6.83301 61.666 -20.5 78.999s-38.5 26 -74.5 26
c-32 0 -55.833 -7.16699 -71.5 -21.5s-25.167 -34.5 -28.5 -60.5h-117c2.66699 30.667 10.334 56.834 23.001 78.501s29 39.5 49 53.5s43 24.333 69 31s53.667 10 83 10s56.666 -3.16699 81.999 -9.5s47.5 -17 66.5 -32s33.833 -34.667 44.5 -59s16 -54.5 16 -90.5v-343
h-119v64c-17.333 -22.667 -38.333 -40.667 -63 -54s-57 -20 -97 -20zM238 77c37.333 0 68.167 9.16699 92.5 27.5s36.5 44.5 36.5 78.5v52h-62c-46 0 -82.667 -6.16699 -110 -18.5s-41 -34.5 -41 -66.5c0 -22 6.5 -39.667 19.5 -53s34.5 -20 64.5 -20zM136.001 756h134
l59 -155h-89z" />
    <glyph glyph-name="aacute" unicode="&#xe1;" horiz-adv-x="559" 
d="M209 -10c-24 0 -46.667 3 -68 9s-39.833 15.167 -55.5 27.5s-28.167 28.333 -37.5 48s-14 43.167 -14 70.5c0 30.667 7 56.5 21 77.5s33 38 57 51s52.333 22.5 85 28.5s67.667 9 105 9h65v27c0 35.333 -6.83301 61.666 -20.5 78.999s-38.5 26 -74.5 26
c-32 0 -55.833 -7.16699 -71.5 -21.5s-25.167 -34.5 -28.5 -60.5h-117c2.66699 30.667 10.334 56.834 23.001 78.501s29 39.5 49 53.5s43 24.333 69 31s53.667 10 83 10s56.666 -3.16699 81.999 -9.5s47.5 -17 66.5 -32s33.833 -34.667 44.5 -59s16 -54.5 16 -90.5v-343
h-119v64c-17.333 -22.667 -38.333 -40.667 -63 -54s-57 -20 -97 -20zM238 77c37.333 0 68.167 9.16699 92.5 27.5s36.5 44.5 36.5 78.5v52h-62c-46 0 -82.667 -6.16699 -110 -18.5s-41 -34.5 -41 -66.5c0 -22 6.5 -39.667 19.5 -53s34.5 -20 64.5 -20zM288.001 756h134
l-104 -155h-89z" />
    <glyph glyph-name="acircumflex" unicode="&#xe2;" horiz-adv-x="559" 
d="M209 -10c-24 0 -46.667 3 -68 9s-39.833 15.167 -55.5 27.5s-28.167 28.333 -37.5 48s-14 43.167 -14 70.5c0 30.667 7 56.5 21 77.5s33 38 57 51s52.333 22.5 85 28.5s67.667 9 105 9h65v27c0 35.333 -6.83301 61.666 -20.5 78.999s-38.5 26 -74.5 26
c-32 0 -55.833 -7.16699 -71.5 -21.5s-25.167 -34.5 -28.5 -60.5h-117c2.66699 30.667 10.334 56.834 23.001 78.501s29 39.5 49 53.5s43 24.333 69 31s53.667 10 83 10s56.666 -3.16699 81.999 -9.5s47.5 -17 66.5 -32s33.833 -34.667 44.5 -59s16 -54.5 16 -90.5v-343
h-119v64c-17.333 -22.667 -38.333 -40.667 -63 -54s-57 -20 -97 -20zM238 77c37.333 0 68.167 9.16699 92.5 27.5s36.5 44.5 36.5 78.5v52h-62c-46 0 -82.667 -6.16699 -110 -18.5s-41 -34.5 -41 -66.5c0 -22 6.5 -39.667 19.5 -53s34.5 -20 64.5 -20zM223.001 753h96
l111 -151h-86l-75 68l-76 -68h-84z" />
    <glyph glyph-name="atilde" unicode="&#xe3;" horiz-adv-x="559" 
d="M209 -10c-24 0 -46.667 3 -68 9s-39.833 15.167 -55.5 27.5s-28.167 28.333 -37.5 48s-14 43.167 -14 70.5c0 30.667 7 56.5 21 77.5s33 38 57 51s52.333 22.5 85 28.5s67.667 9 105 9h65v27c0 35.333 -6.83301 61.666 -20.5 78.999s-38.5 26 -74.5 26
c-32 0 -55.833 -7.16699 -71.5 -21.5s-25.167 -34.5 -28.5 -60.5h-117c2.66699 30.667 10.334 56.834 23.001 78.501s29 39.5 49 53.5s43 24.333 69 31s53.667 10 83 10s56.666 -3.16699 81.999 -9.5s47.5 -17 66.5 -32s33.833 -34.667 44.5 -59s16 -54.5 16 -90.5v-343
h-119v64c-17.333 -22.667 -38.333 -40.667 -63 -54s-57 -20 -97 -20zM238 77c37.333 0 68.167 9.16699 92.5 27.5s36.5 44.5 36.5 78.5v52h-62c-46 0 -82.667 -6.16699 -110 -18.5s-41 -34.5 -41 -66.5c0 -22 6.5 -39.667 19.5 -53s34.5 -20 64.5 -20zM337.001 606
c-12 0 -23.165 2 -33.498 6s-20 8.5 -29 13.5l-25.5 14c-8 4.33301 -15.667 6.5 -23 6.5c-9.33301 0 -17.333 -3.83301 -24 -11.5s-11 -17.167 -13 -28.5h-75c4 42 15.833 74.333 35.5 97s43.5 34 71.5 34c11.333 0 22.166 -2 32.499 -6s20 -8.5 29 -13.5
s17.667 -9.5 26 -13.5s16.5 -6 24.5 -6c9.33301 0 17.166 3.66699 23.499 11s10.5 17 12.5 29h75c-4 -42 -15.833 -74.5 -35.5 -97.5s-43.5 -34.5 -71.5 -34.5z" />
    <glyph glyph-name="adieresis" unicode="&#xe4;" horiz-adv-x="559" 
d="M209 -10c-24 0 -46.667 3 -68 9s-39.833 15.167 -55.5 27.5s-28.167 28.333 -37.5 48s-14 43.167 -14 70.5c0 30.667 7 56.5 21 77.5s33 38 57 51s52.333 22.5 85 28.5s67.667 9 105 9h65v27c0 35.333 -6.83301 61.666 -20.5 78.999s-38.5 26 -74.5 26
c-32 0 -55.833 -7.16699 -71.5 -21.5s-25.167 -34.5 -28.5 -60.5h-117c2.66699 30.667 10.334 56.834 23.001 78.501s29 39.5 49 53.5s43 24.333 69 31s53.667 10 83 10s56.666 -3.16699 81.999 -9.5s47.5 -17 66.5 -32s33.833 -34.667 44.5 -59s16 -54.5 16 -90.5v-343
h-119v64c-17.333 -22.667 -38.333 -40.667 -63 -54s-57 -20 -97 -20zM238 77c37.333 0 68.167 9.16699 92.5 27.5s36.5 44.5 36.5 78.5v52h-62c-46 0 -82.667 -6.16699 -110 -18.5s-41 -34.5 -41 -66.5c0 -22 6.5 -39.667 19.5 -53s34.5 -20 64.5 -20zM180.001 613
c-18 0 -33.5 6.33301 -46.5 19s-19.5 28 -19.5 46c0 17.333 6.5 32.5 19.5 45.5s28.5 19.5 46.5 19.5s33.5 -6.5 46.5 -19.5s19.5 -28.167 19.5 -45.5c0 -18 -6.5 -33.333 -19.5 -46s-28.5 -19 -46.5 -19zM378.001 613c-18.667 0 -34.334 6.33301 -47.001 19s-19 28 -19 46
c0 17.333 6.33301 32.5 19 45.5s28.334 19.5 47.001 19.5c18 0 33.5 -6.5 46.5 -19.5s19.5 -28.167 19.5 -45.5c0 -18 -6.5 -33.333 -19.5 -46s-28.5 -19 -46.5 -19z" />
    <glyph glyph-name="aring" unicode="&#xe5;" horiz-adv-x="559" 
d="M209 -10c-24 0 -46.667 3 -68 9s-39.833 15.167 -55.5 27.5s-28.167 28.333 -37.5 48s-14 43.167 -14 70.5c0 30.667 7 56.5 21 77.5s33 38 57 51s52.333 22.5 85 28.5s67.667 9 105 9h65v27c0 35.333 -6.83301 61.666 -20.5 78.999s-38.5 26 -74.5 26
c-32 0 -55.833 -7.16699 -71.5 -21.5s-25.167 -34.5 -28.5 -60.5h-117c2.66699 30.667 10.334 56.834 23.001 78.501s29 39.5 49 53.5s43 24.333 69 31s53.667 10 83 10s56.666 -3.16699 81.999 -9.5s47.5 -17 66.5 -32s33.833 -34.667 44.5 -59s16 -54.5 16 -90.5v-343
h-119v64c-17.333 -22.667 -38.333 -40.667 -63 -54s-57 -20 -97 -20zM238 77c37.333 0 68.167 9.16699 92.5 27.5s36.5 44.5 36.5 78.5v52h-62c-46 0 -82.667 -6.16699 -110 -18.5s-41 -34.5 -41 -66.5c0 -22 6.5 -39.667 19.5 -53s34.5 -20 64.5 -20zM279.001 643
c14.667 0 26.667 5.33301 36 16s14 23.667 14 39c0 16 -4.66699 29.167 -14 39.5s-21.333 15.5 -36 15.5s-26.667 -5.16699 -36 -15.5s-14 -23.5 -14 -39.5c0 -15.333 4.66699 -28.333 14 -39s21.333 -16 36 -16zM279.001 590c-15.333 0 -29.666 2.83301 -42.999 8.5
s-25 13.5 -35 23.5s-18 21.5 -24 34.5s-9 26.833 -9 41.5s3 28.5 9 41.5s14 24.5 24 34.5s21.667 17.833 35 23.5s27.666 8.5 42.999 8.5s29.666 -2.83301 42.999 -8.5s25 -13.5 35 -23.5s18 -21.5 24 -34.5s9 -26.833 9 -41.5s-3 -28.5 -9 -41.5s-14 -24.5 -24 -34.5
s-21.667 -17.833 -35 -23.5s-27.666 -8.5 -42.999 -8.5z" />
    <glyph glyph-name="ae" unicode="&#xe6;" horiz-adv-x="895" 
d="M620 -10c-45.333 0 -84.6699 8.66699 -118.003 26s-60.333 42 -81 74c-23.333 -34 -50.833 -59.167 -82.5 -75.5s-72.5 -24.5 -122.5 -24.5c-25.333 0 -49 3 -71 9s-41.333 15.167 -58 27.5s-29.667 28.333 -39 48s-14 43.167 -14 70.5c0 30.667 6.83301 56.667 20.5 78
s32.5 38.666 56.5 51.999s52.167 22.833 84.5 28.5s67.166 8.5 104.499 8.5h68v26c0 35.333 -7.33301 61.666 -22 78.999s-39 26 -73 26c-61.333 0 -95 -27.333 -101 -82h-117c2.66699 30.667 10.334 56.834 23.001 78.501s28.834 39.5 48.501 53.5s42.334 24.333 68.001 31
s52.834 10 81.501 10c38 0 71.167 -5.66699 99.5 -17s50.5 -31 66.5 -59c20.667 24 45.5 42.667 74.5 56s61.833 20 98.5 20c31.333 0 61.5 -4.83301 90.5 -14.5s54.667 -25.167 77 -46.5s40.166 -48.666 53.499 -81.999s20 -74.333 20 -123v-33h-372
c2 -48.667 14.333 -86.667 37 -114s56 -41 100 -41c35.333 0 62.333 7 81 21s30.334 33.667 35.001 59h116c-8.66699 -55.333 -33.5 -97.5 -74.5 -126.5s-93.833 -43.5 -158.5 -43.5zM238.996 77c38 0 69 9.16602 93 27.499s36 44.5 36 78.5v51h-65
c-45.333 0 -81.5 -5.66699 -108.5 -17s-40.5 -33 -40.5 -65c0 -23.333 6.5 -41.666 19.5 -54.999s34.833 -20 65.5 -20zM735.996 311.999c-3.33301 47.333 -15.333 81.5 -36 102.5s-49 31.5 -85 31.5c-35.333 0 -64.333 -11.667 -87 -35s-36.667 -56.333 -42 -99h250z" />
    <glyph glyph-name="ccedilla" unicode="&#xe7;" horiz-adv-x="579" 
d="M283 -219c-32 0 -57.5 7.83398 -76.5 23.501s-30.167 37.167 -33.5 64.5h66c1.33301 -8.66699 5.33301 -16.334 12 -23.001s16 -10 28 -10c11.333 0 20.333 3.16699 27 9.5s10 14.5 10 24.5c0 9.33301 -3.16699 17 -9.5 23s-14.833 9 -25.5 9
c-7.33301 0 -13.333 -1 -18 -3s-8.66699 -4 -12 -6l-34 32l40 68c-32 4 -61.5 12.833 -88.5 26.5s-50.167 31.667 -69.5 54s-34.5 48.666 -45.5 78.999s-16.5 64.5 -16.5 102.5v8c0 41.333 6.83301 78.666 20.5 111.999s32.5 61.833 56.5 85.5s52 41.834 84 54.501
s66.333 19 103 19c28.667 0 56.667 -3.5 84 -10.5s51.833 -18.167 73.5 -33.5s39.834 -35.5 54.501 -60.5s23.667 -55.5 27 -91.5h-117c-5.33301 35.333 -18.666 60.666 -39.999 75.999s-48 23 -80 23c-20.667 0 -39.667 -3.83301 -57 -11.5s-32.333 -19 -45 -34
s-22.5 -33.167 -29.5 -54.5s-10.5 -45.333 -10.5 -72v-8c0 -57.333 13 -100.666 39 -129.999s61.333 -44 106 -44c16 0 31.167 2.33301 45.5 7s27.166 11.667 38.499 21s20.666 21 27.999 35s12 30.333 14 49h111c-4.66699 -58.667 -27 -106.667 -67 -144
s-93.667 -57.666 -161 -60.999l-23 -40c12.667 1.33301 25 0.833008 37 -1.5s22.667 -7 32 -14s16.833 -16 22.5 -27s8.5 -24.5 8.5 -40.5c0 -28 -10.333 -49.333 -31 -64s-46.667 -22 -78 -22z" />
    <glyph glyph-name="egrave" unicode="&#xe8;" horiz-adv-x="584" 
d="M302 -10c-38.667 0 -74.1689 6.16602 -106.502 18.499s-60.333 30 -84 53s-42 50.833 -55 83.5s-19.5 69.667 -19.5 111v8c0 40.667 6.5 77.5 19.5 110.5s31.167 61.333 54.5 85s50.833 42 82.5 55s66.167 19.5 103.5 19.5c32.667 0 63.834 -5 93.501 -15
s55.834 -25.667 78.501 -47s40.834 -48.666 54.501 -81.999s20.5 -73.333 20.5 -120v-35h-383c2 -50 15.167 -88.333 39.5 -115s59.166 -40 104.499 -40c36.667 0 64.667 7 84 21s31.333 33.667 36 59h117c-8.66699 -55.333 -34 -97.5 -76 -126.5s-96.667 -43.5 -164 -43.5z
M423.998 315.999c-3.33301 45.333 -15.833 78.333 -37.5 99s-51.5 31 -89.5 31c-36.667 0 -66.667 -11.5 -90 -34.5s-38 -54.833 -44 -95.5h261zM151.998 755.999h134l59 -155h-89z" />
    <glyph glyph-name="eacute" unicode="&#xe9;" horiz-adv-x="584" 
d="M302 -10c-38.667 0 -74.1689 6.16602 -106.502 18.499s-60.333 30 -84 53s-42 50.833 -55 83.5s-19.5 69.667 -19.5 111v8c0 40.667 6.5 77.5 19.5 110.5s31.167 61.333 54.5 85s50.833 42 82.5 55s66.167 19.5 103.5 19.5c32.667 0 63.834 -5 93.501 -15
s55.834 -25.667 78.501 -47s40.834 -48.666 54.501 -81.999s20.5 -73.333 20.5 -120v-35h-383c2 -50 15.167 -88.333 39.5 -115s59.166 -40 104.499 -40c36.667 0 64.667 7 84 21s31.333 33.667 36 59h117c-8.66699 -55.333 -34 -97.5 -76 -126.5s-96.667 -43.5 -164 -43.5z
M423.998 315.999c-3.33301 45.333 -15.833 78.333 -37.5 99s-51.5 31 -89.5 31c-36.667 0 -66.667 -11.5 -90 -34.5s-38 -54.833 -44 -95.5h261zM303.998 755.999h134l-104 -155h-89z" />
    <glyph glyph-name="ecircumflex" unicode="&#xea;" horiz-adv-x="584" 
d="M302 -10c-38.667 0 -74.1689 6.16602 -106.502 18.499s-60.333 30 -84 53s-42 50.833 -55 83.5s-19.5 69.667 -19.5 111v8c0 40.667 6.5 77.5 19.5 110.5s31.167 61.333 54.5 85s50.833 42 82.5 55s66.167 19.5 103.5 19.5c32.667 0 63.834 -5 93.501 -15
s55.834 -25.667 78.501 -47s40.834 -48.666 54.501 -81.999s20.5 -73.333 20.5 -120v-35h-383c2 -50 15.167 -88.333 39.5 -115s59.166 -40 104.499 -40c36.667 0 64.667 7 84 21s31.333 33.667 36 59h117c-8.66699 -55.333 -34 -97.5 -76 -126.5s-96.667 -43.5 -164 -43.5z
M423.998 315.999c-3.33301 45.333 -15.833 78.333 -37.5 99s-51.5 31 -89.5 31c-36.667 0 -66.667 -11.5 -90 -34.5s-38 -54.833 -44 -95.5h261zM247.998 752.999h96l111 -151h-86l-75 68l-76 -68h-84z" />
    <glyph glyph-name="edieresis" unicode="&#xeb;" horiz-adv-x="584" 
d="M302 -10c-38.667 0 -74.1689 6.16602 -106.502 18.499s-60.333 30 -84 53s-42 50.833 -55 83.5s-19.5 69.667 -19.5 111v8c0 40.667 6.5 77.5 19.5 110.5s31.167 61.333 54.5 85s50.833 42 82.5 55s66.167 19.5 103.5 19.5c32.667 0 63.834 -5 93.501 -15
s55.834 -25.667 78.501 -47s40.834 -48.666 54.501 -81.999s20.5 -73.333 20.5 -120v-35h-383c2 -50 15.167 -88.333 39.5 -115s59.166 -40 104.499 -40c36.667 0 64.667 7 84 21s31.333 33.667 36 59h117c-8.66699 -55.333 -34 -97.5 -76 -126.5s-96.667 -43.5 -164 -43.5z
M423.998 315.999c-3.33301 45.333 -15.833 78.333 -37.5 99s-51.5 31 -89.5 31c-36.667 0 -66.667 -11.5 -90 -34.5s-38 -54.833 -44 -95.5h261zM195.998 612.999c-18 0 -33.5 6.33301 -46.5 19s-19.5 28 -19.5 46c0 17.333 6.5 32.5 19.5 45.5s28.5 19.5 46.5 19.5
s33.5 -6.5 46.5 -19.5s19.5 -28.167 19.5 -45.5c0 -18 -6.5 -33.333 -19.5 -46s-28.5 -19 -46.5 -19zM393.998 612.999c-18.667 0 -34.334 6.33301 -47.001 19s-19 28 -19 46c0 17.333 6.33301 32.5 19 45.5s28.334 19.5 47.001 19.5c18 0 33.5 -6.5 46.5 -19.5
s19.5 -28.167 19.5 -45.5c0 -18 -6.5 -33.333 -19.5 -46s-28.5 -19 -46.5 -19z" />
    <glyph glyph-name="igrave" unicode="&#xec;" horiz-adv-x="275" 
d="M75 523h121v-523h-121v523zM-7 756h134l59 -155h-89z" />
    <glyph glyph-name="iacute" unicode="&#xed;" horiz-adv-x="275" 
d="M75 523h121v-523h-121v523zM145 756h134l-104 -155h-89z" />
    <glyph glyph-name="icircumflex" unicode="&#xee;" horiz-adv-x="275" 
d="M75 523h121v-523h-121v523zM89 753h96l111 -151h-86l-75 68l-76 -68h-84z" />
    <glyph glyph-name="idieresis" unicode="&#xef;" horiz-adv-x="275" 
d="M39 613c-18 0 -33.5 6.33301 -46.5 19s-19.5 28 -19.5 46c0 17.333 6.5 32.5 19.5 45.5s28.5 19.5 46.5 19.5s33.5 -6.5 46.5 -19.5s19.5 -28.167 19.5 -45.5c0 -18 -6.5 -33.333 -19.5 -46s-28.5 -19 -46.5 -19zM231 613c-18 0 -33.5 6.33301 -46.5 19
s-19.5 28 -19.5 46c0 17.333 6.5 32.5 19.5 45.5s28.5 19.5 46.5 19.5s33.5 -6.5 46.5 -19.5s19.5 -28.167 19.5 -45.5c0 -18 -6.5 -33.333 -19.5 -46s-28.5 -19 -46.5 -19zM75 523h121v-523h-121v523z" />
    <glyph glyph-name="eth" unicode="&#xf0;" horiz-adv-x="615" 
d="M141 620l103.004 49.002c-20.667 18 -41.5 35 -62.5 51l-61.5 45h143l36 -22c12.667 -8 25.667 -17.333 39 -28l93 45l27 -54l-69 -34c24 -22 47 -46.667 69 -74s41.667 -57 59 -89s31.166 -66.167 41.499 -102.5s15.5 -74.5 15.5 -114.5v-22
c0 -42 -6.66699 -80.167 -20 -114.5s-32 -63.833 -56 -88.5s-52.5 -43.667 -85.5 -57s-69.167 -20 -108.5 -20c-38.667 0 -74.334 6.5 -107.001 19.5s-60.834 31.167 -84.501 54.5s-42.167 51.666 -55.5 84.999s-20 70 -20 110v10c0 39.333 6.5 75.166 19.5 107.499
s30.5 60 52.5 83s47.167 40.667 75.5 53s58.166 18.5 89.499 18.5c30.667 0 56.5 -5.5 77.5 -16.5s39.833 -25.833 56.5 -44.5c-14 28 -31 55 -51 81s-42 50.667 -66 74l-123 -59zM306.004 84.002c45.333 0 80.667 15.667 106 47s38 73.333 38 126v8
c0 54 -12.667 96.5 -38 127.5s-60.333 46.5 -105 46.5c-45.333 0 -81 -15.333 -107 -46s-39 -73 -39 -127v-8c0 -54 12.667 -96.5 38 -127.5s61 -46.5 107 -46.5z" />
    <glyph glyph-name="ntilde" unicode="&#xf1;" horiz-adv-x="612" 
d="M72 523h121.001v-83c12.667 25.333 33.167 47.333 61.5 66s64.166 28 107.499 28c26 0 50 -4 72 -12s41 -20.167 57 -36.5s28.333 -37.5 37 -63.5s13 -57 13 -93v-329h-121v318c0 40 -8.33301 69.167 -25 87.5s-43 27.5 -79 27.5c-34 0 -63 -10.5 -87 -31.5
s-36 -52.167 -36 -93.5v-308h-121v523zM361.001 606c-12 0 -23.165 2 -33.498 6s-20 8.5 -29 13.5l-25.5 14c-8 4.33301 -15.667 6.5 -23 6.5c-9.33301 0 -17.333 -3.83301 -24 -11.5s-11 -17.167 -13 -28.5h-75c4 42 15.833 74.333 35.5 97s43.5 34 71.5 34
c11.333 0 22.166 -2 32.499 -6s20 -8.5 29 -13.5s17.667 -9.5 26 -13.5s16.5 -6 24.5 -6c9.33301 0 17.166 3.66699 23.499 11s10.5 17 12.5 29h75c-4 -42 -15.833 -74.5 -35.5 -97.5s-43.5 -34.5 -71.5 -34.5z" />
    <glyph glyph-name="ograve" unicode="&#xf2;" horiz-adv-x="615" 
d="M306 84c45.333 0 80.666 15.5 105.999 46.5s38 73.5 38 127.5v7c0 54 -12.667 96.5 -38 127.5s-60.666 46.5 -105.999 46.5s-80.833 -15.333 -106.5 -46s-38.5 -73 -38.5 -127v-8c0 -54 12.667 -96.5 38 -127.5s61 -46.5 107 -46.5zM305 -10
c-38.667 0 -74.333 6.33594 -107 19.0029s-61 30.667 -85 54s-42.667 51.333 -56 84s-20 69 -20 109v8c0 40.667 6.83301 77.5 20.5 110.5s32.5 61.333 56.5 85s52.333 42 85 55s68.334 19.5 107.001 19.5c38 0 73.333 -6.33301 106 -19s61 -30.834 85 -54.501
s42.833 -51.834 56.5 -84.501s20.5 -69 20.5 -109v-8c0 -40.667 -6.83301 -77.5 -20.5 -110.5s-32.5 -61.333 -56.5 -85s-52.333 -41.834 -85 -54.501s-68.334 -19 -107.001 -19zM162.001 756.003h134l59 -155h-89z" />
    <glyph glyph-name="oacute" unicode="&#xf3;" horiz-adv-x="615" 
d="M306 84c45.333 0 80.666 15.5 105.999 46.5s38 73.5 38 127.5v7c0 54 -12.667 96.5 -38 127.5s-60.666 46.5 -105.999 46.5s-80.833 -15.333 -106.5 -46s-38.5 -73 -38.5 -127v-8c0 -54 12.667 -96.5 38 -127.5s61 -46.5 107 -46.5zM305 -10
c-38.667 0 -74.333 6.33594 -107 19.0029s-61 30.667 -85 54s-42.667 51.333 -56 84s-20 69 -20 109v8c0 40.667 6.83301 77.5 20.5 110.5s32.5 61.333 56.5 85s52.333 42 85 55s68.334 19.5 107.001 19.5c38 0 73.333 -6.33301 106 -19s61 -30.834 85 -54.501
s42.833 -51.834 56.5 -84.501s20.5 -69 20.5 -109v-8c0 -40.667 -6.83301 -77.5 -20.5 -110.5s-32.5 -61.333 -56.5 -85s-52.333 -41.834 -85 -54.501s-68.334 -19 -107.001 -19zM314.001 756.003h134l-104 -155h-89z" />
    <glyph glyph-name="ocircumflex" unicode="&#xf4;" horiz-adv-x="615" 
d="M306 84c45.333 0 80.666 15.5 105.999 46.5s38 73.5 38 127.5v7c0 54 -12.667 96.5 -38 127.5s-60.666 46.5 -105.999 46.5s-80.833 -15.333 -106.5 -46s-38.5 -73 -38.5 -127v-8c0 -54 12.667 -96.5 38 -127.5s61 -46.5 107 -46.5zM305 -10
c-38.667 0 -74.333 6.33594 -107 19.0029s-61 30.667 -85 54s-42.667 51.333 -56 84s-20 69 -20 109v8c0 40.667 6.83301 77.5 20.5 110.5s32.5 61.333 56.5 85s52.333 42 85 55s68.334 19.5 107.001 19.5c38 0 73.333 -6.33301 106 -19s61 -30.834 85 -54.501
s42.833 -51.834 56.5 -84.501s20.5 -69 20.5 -109v-8c0 -40.667 -6.83301 -77.5 -20.5 -110.5s-32.5 -61.333 -56.5 -85s-52.333 -41.834 -85 -54.501s-68.334 -19 -107.001 -19zM258.001 753.003h96l111 -151h-86l-75 68l-76 -68h-84z" />
    <glyph glyph-name="otilde" unicode="&#xf5;" horiz-adv-x="615" 
d="M306 84c45.333 0 80.666 15.5 105.999 46.5s38 73.5 38 127.5v7c0 54 -12.667 96.5 -38 127.5s-60.666 46.5 -105.999 46.5s-80.833 -15.333 -106.5 -46s-38.5 -73 -38.5 -127v-8c0 -54 12.667 -96.5 38 -127.5s61 -46.5 107 -46.5zM305 -10
c-38.667 0 -74.333 6.33594 -107 19.0029s-61 30.667 -85 54s-42.667 51.333 -56 84s-20 69 -20 109v8c0 40.667 6.83301 77.5 20.5 110.5s32.5 61.333 56.5 85s52.333 42 85 55s68.334 19.5 107.001 19.5c38 0 73.333 -6.33301 106 -19s61 -30.834 85 -54.501
s42.833 -51.834 56.5 -84.501s20.5 -69 20.5 -109v-8c0 -40.667 -6.83301 -77.5 -20.5 -110.5s-32.5 -61.333 -56.5 -85s-52.333 -41.834 -85 -54.501s-68.334 -19 -107.001 -19zM363.001 606.003c-12 0 -23.165 2 -33.498 6s-20 8.5 -29 13.5l-25.5 14
c-8 4.33301 -15.667 6.5 -23 6.5c-9.33301 0 -17.333 -3.83301 -24 -11.5s-11 -17.167 -13 -28.5h-75c4 42 15.833 74.333 35.5 97s43.5 34 71.5 34c11.333 0 22.166 -2 32.499 -6s20 -8.5 29 -13.5s17.667 -9.5 26 -13.5s16.5 -6 24.5 -6
c9.33301 0 17.166 3.66699 23.499 11s10.5 17 12.5 29h75c-4 -42 -15.833 -74.5 -35.5 -97.5s-43.5 -34.5 -71.5 -34.5z" />
    <glyph glyph-name="odieresis" unicode="&#xf6;" horiz-adv-x="615" 
d="M306 84c45.333 0 80.666 15.5 105.999 46.5s38 73.5 38 127.5v7c0 54 -12.667 96.5 -38 127.5s-60.666 46.5 -105.999 46.5s-80.833 -15.333 -106.5 -46s-38.5 -73 -38.5 -127v-8c0 -54 12.667 -96.5 38 -127.5s61 -46.5 107 -46.5zM305 -10
c-38.667 0 -74.333 6.33594 -107 19.0029s-61 30.667 -85 54s-42.667 51.333 -56 84s-20 69 -20 109v8c0 40.667 6.83301 77.5 20.5 110.5s32.5 61.333 56.5 85s52.333 42 85 55s68.334 19.5 107.001 19.5c38 0 73.333 -6.33301 106 -19s61 -30.834 85 -54.501
s42.833 -51.834 56.5 -84.501s20.5 -69 20.5 -109v-8c0 -40.667 -6.83301 -77.5 -20.5 -110.5s-32.5 -61.333 -56.5 -85s-52.333 -41.834 -85 -54.501s-68.334 -19 -107.001 -19zM206.001 613.003c-18 0 -33.5 6.33301 -46.5 19s-19.5 28 -19.5 46
c0 17.333 6.5 32.5 19.5 45.5s28.5 19.5 46.5 19.5s33.5 -6.5 46.5 -19.5s19.5 -28.167 19.5 -45.5c0 -18 -6.5 -33.333 -19.5 -46s-28.5 -19 -46.5 -19zM404.001 613.003c-18.667 0 -34.334 6.33301 -47.001 19s-19 28 -19 46c0 17.333 6.33301 32.5 19 45.5
s28.334 19.5 47.001 19.5c18 0 33.5 -6.5 46.5 -19.5s19.5 -28.167 19.5 -45.5c0 -18 -6.5 -33.333 -19.5 -46s-28.5 -19 -46.5 -19z" />
    <glyph glyph-name="divide" unicode="&#xf7;" horiz-adv-x="544" 
d="M270 71c-21.333 0 -39.333 7.16699 -54 21.5s-22 32.166 -22 53.499s7.33301 39.166 22 53.499s32.667 21.5 54 21.5c20.667 0 38.5 -7.16699 53.5 -21.5s22.5 -32.166 22.5 -53.499s-7.5 -39.166 -22.5 -53.499s-32.833 -21.5 -53.5 -21.5zM37 387h467v-91h-467v91z
M270 461c-21.333 0 -39.333 7.16699 -54 21.5s-22 32.166 -22 53.499s7.33301 39.333 22 54s32.667 22 54 22c20.667 0 38.5 -7.33301 53.5 -22s22.5 -32.667 22.5 -54s-7.5 -39.166 -22.5 -53.499s-32.833 -21.5 -53.5 -21.5z" />
    <glyph glyph-name="oslash" unicode="&#xf8;" horiz-adv-x="615" 
d="M22 4l73 79.002c-18.667 22.667 -33 48.5 -43 77.5s-15 60.833 -15 95.5v8c0 40.667 6.83301 77.5 20.5 110.5s32.5 61.333 56.5 85s52.333 42 85 55s68.334 19.5 107.001 19.5c60.667 0 113.667 -16 159 -48l67 73l47 -42l-67 -73
c19.333 -22.667 34.5 -48.834 45.5 -78.501s16.5 -62.5 16.5 -98.5v-8c0 -40.667 -6.83301 -77.5 -20.5 -110.5s-32.5 -61.333 -56.5 -85s-52.333 -41.834 -85 -54.501s-68.334 -19 -107.001 -19c-32 0 -61.833 4.33301 -89.5 13s-52.5 21 -74.5 37l-72 -78zM306 84.002
c46 0 81.667 15.5 107 46.5s38 73.167 38 126.5v8c0 36 -6 67 -18 93l-222 -241c24 -22 55.667 -33 95 -33zM161 258.002c0 -32 4.66699 -61 14 -87l220 239c-25.333 20 -55 30 -89 30c-45.333 0 -80.833 -15.5 -106.5 -46.5s-38.5 -73.5 -38.5 -127.5v-8z" />
    <glyph glyph-name="ugrave" unicode="&#xf9;" horiz-adv-x="609" 
d="M247 -10c-26 0 -50.001 3.83301 -72.001 11.5s-41 19.5 -57 35.5s-28.5 36.5 -37.5 61.5s-13.5 54.833 -13.5 89.5v335h121v-321c0 -40 8.33301 -69.167 25 -87.5s42.667 -27.5 78 -27.5c16 0 31.5 2.66699 46.5 8s28 13.166 39 23.499s19.833 23.333 26.5 39
s10 33.834 10 54.501v311h121v-523h-121v82c-13.333 -25.333 -33.666 -47 -60.999 -65s-62.333 -27 -105 -27zM158.999 756h134l59 -155h-89z" />
    <glyph glyph-name="uacute" unicode="&#xfa;" horiz-adv-x="609" 
d="M247 -10c-26 0 -50.001 3.83301 -72.001 11.5s-41 19.5 -57 35.5s-28.5 36.5 -37.5 61.5s-13.5 54.833 -13.5 89.5v335h121v-321c0 -40 8.33301 -69.167 25 -87.5s42.667 -27.5 78 -27.5c16 0 31.5 2.66699 46.5 8s28 13.166 39 23.499s19.833 23.333 26.5 39
s10 33.834 10 54.501v311h121v-523h-121v82c-13.333 -25.333 -33.666 -47 -60.999 -65s-62.333 -27 -105 -27zM310.999 756h134l-104 -155h-89z" />
    <glyph glyph-name="ucircumflex" unicode="&#xfb;" horiz-adv-x="609" 
d="M247 -10c-26 0 -50.001 3.83301 -72.001 11.5s-41 19.5 -57 35.5s-28.5 36.5 -37.5 61.5s-13.5 54.833 -13.5 89.5v335h121v-321c0 -40 8.33301 -69.167 25 -87.5s42.667 -27.5 78 -27.5c16 0 31.5 2.66699 46.5 8s28 13.166 39 23.499s19.833 23.333 26.5 39
s10 33.834 10 54.501v311h121v-523h-121v82c-13.333 -25.333 -33.666 -47 -60.999 -65s-62.333 -27 -105 -27zM254.999 753h96l111 -151h-86l-75 68l-76 -68h-84z" />
    <glyph glyph-name="udieresis" unicode="&#xfc;" horiz-adv-x="609" 
d="M247 -10c-26 0 -50.001 3.83301 -72.001 11.5s-41 19.5 -57 35.5s-28.5 36.5 -37.5 61.5s-13.5 54.833 -13.5 89.5v335h121v-321c0 -40 8.33301 -69.167 25 -87.5s42.667 -27.5 78 -27.5c16 0 31.5 2.66699 46.5 8s28 13.166 39 23.499s19.833 23.333 26.5 39
s10 33.834 10 54.501v311h121v-523h-121v82c-13.333 -25.333 -33.666 -47 -60.999 -65s-62.333 -27 -105 -27zM202.999 613c-18 0 -33.5 6.33301 -46.5 19s-19.5 28 -19.5 46c0 17.333 6.5 32.5 19.5 45.5s28.5 19.5 46.5 19.5s33.5 -6.5 46.5 -19.5
s19.5 -28.167 19.5 -45.5c0 -18 -6.5 -33.333 -19.5 -46s-28.5 -19 -46.5 -19zM400.999 613c-18.667 0 -34.334 6.33301 -47.001 19s-19 28 -19 46c0 17.333 6.33301 32.5 19 45.5s28.334 19.5 47.001 19.5c18 0 33.5 -6.5 46.5 -19.5s19.5 -28.167 19.5 -45.5
c0 -18 -6.5 -33.333 -19.5 -46s-28.5 -19 -46.5 -19z" />
    <glyph glyph-name="yacute" unicode="&#xfd;" horiz-adv-x="557" 
d="M225 53l-207 470h131l139 -337l128 337h118l-285 -702h-119zM294 756h134l-104 -155h-89z" />
    <glyph glyph-name="thorn" unicode="&#xfe;" horiz-adv-x="637" 
d="M72 765l121.001 -0.00195312v-326c7.33301 12.667 16.666 24.667 27.999 36s24.5 21.333 39.5 30s31.167 15.667 48.5 21s35.666 8 54.999 8c32.667 0 63.167 -6 91.5 -18s52.833 -29.333 73.5 -52s37 -50.5 49 -83.5s18 -70.5 18 -112.5v-8
c0 -42 -5.83301 -79.667 -17.5 -113s-27.667 -61.666 -48 -84.999s-44.666 -41.166 -72.999 -53.499s-59.5 -18.5 -93.5 -18.5c-42 0 -77.5 9 -106.5 27s-50.5 39.667 -64.5 65v-261h-121v944zM334.001 85.998c44.667 0 78.834 14.498 102.501 43.498
s35.5 71.833 35.5 128.5v8c0 28.667 -3.5 53.834 -10.5 75.501s-16.833 39.834 -29.5 54.501s-27.334 25.5 -44.001 32.5s-35 10.5 -55 10.5c-42 0 -76.5 -14.167 -103.5 -42.5s-40.5 -71.833 -40.5 -130.5v-8c0 -58.667 13.167 -102 39.5 -130s61.5 -42 105.5 -42z" />
    <glyph glyph-name="ydieresis" unicode="&#xff;" horiz-adv-x="557" 
d="M225 53l-207 470h131l139 -337l128 337h118l-285 -702h-119zM186 613c-18 0 -33.5 6.33301 -46.5 19s-19.5 28 -19.5 46c0 17.333 6.5 32.5 19.5 45.5s28.5 19.5 46.5 19.5s33.5 -6.5 46.5 -19.5s19.5 -28.167 19.5 -45.5c0 -18 -6.5 -33.333 -19.5 -46
s-28.5 -19 -46.5 -19zM384 613c-18.667 0 -34.334 6.33301 -47.001 19s-19 28 -19 46c0 17.333 6.33301 32.5 19 45.5s28.334 19.5 47.001 19.5c18 0 33.5 -6.5 46.5 -19.5s19.5 -28.167 19.5 -45.5c0 -18 -6.5 -33.333 -19.5 -46s-28.5 -19 -46.5 -19z" />
    <glyph glyph-name="Amacron" unicode="&#x100;" horiz-adv-x="707" 
d="M266 715h174l236 -715h-138l-57 177h-273l-56 -177h-125zM239 274h211l-105 332zM206 861h288v-81h-288v81z" />
    <glyph glyph-name="amacron" unicode="&#x101;" horiz-adv-x="559" 
d="M209 -10c-24 0 -46.667 3 -68 9s-39.833 15.167 -55.5 27.5s-28.167 28.333 -37.5 48s-14 43.167 -14 70.5c0 30.667 7 56.5 21 77.5s33 38 57 51s52.333 22.5 85 28.5s67.667 9 105 9h65v27c0 35.333 -6.83301 61.666 -20.5 78.999s-38.5 26 -74.5 26
c-32 0 -55.833 -7.16699 -71.5 -21.5s-25.167 -34.5 -28.5 -60.5h-117c2.66699 30.667 10.334 56.834 23.001 78.501s29 39.5 49 53.5s43 24.333 69 31s53.667 10 83 10s56.666 -3.16699 81.999 -9.5s47.5 -17 66.5 -32s33.833 -34.667 44.5 -59s16 -54.5 16 -90.5v-343
h-119v64c-17.333 -22.667 -38.333 -40.667 -63 -54s-57 -20 -97 -20zM238 77c37.333 0 68.167 9.16699 92.5 27.5s36.5 44.5 36.5 78.5v52h-62c-46 0 -82.667 -6.16699 -110 -18.5s-41 -34.5 -41 -66.5c0 -22 6.5 -39.667 19.5 -53s34.5 -20 64.5 -20zM139.001 712h280v-78
h-280v78z" />
    <glyph glyph-name="Abreve" unicode="&#x102;" horiz-adv-x="707" 
d="M266 715h174l236 -715h-138l-57 177h-273l-56 -177h-125zM239 274h211l-105 332zM349 761c-42 0 -76.167 12.832 -102.5 38.499s-40.5 59.5 -42.5 101.5h85c2.66699 -17.333 8.83398 -31 18.501 -41s23.5 -15 41.5 -15s32.167 5 42.5 15s17.166 23.667 20.499 41h84
c-1.33301 -20.667 -6 -39.667 -14 -57s-18.5 -32.166 -31.5 -44.499s-28.167 -21.833 -45.5 -28.5s-36 -10 -56 -10z" />
    <glyph glyph-name="abreve" unicode="&#x103;" horiz-adv-x="559" 
d="M209 -10c-24 0 -46.667 3 -68 9s-39.833 15.167 -55.5 27.5s-28.167 28.333 -37.5 48s-14 43.167 -14 70.5c0 30.667 7 56.5 21 77.5s33 38 57 51s52.333 22.5 85 28.5s67.667 9 105 9h65v27c0 35.333 -6.83301 61.666 -20.5 78.999s-38.5 26 -74.5 26
c-32 0 -55.833 -7.16699 -71.5 -21.5s-25.167 -34.5 -28.5 -60.5h-117c2.66699 30.667 10.334 56.834 23.001 78.501s29 39.5 49 53.5s43 24.333 69 31s53.667 10 83 10s56.666 -3.16699 81.999 -9.5s47.5 -17 66.5 -32s33.833 -34.667 44.5 -59s16 -54.5 16 -90.5v-343
h-119v64c-17.333 -22.667 -38.333 -40.667 -63 -54s-57 -20 -97 -20zM238 77c37.333 0 68.167 9.16699 92.5 27.5s36.5 44.5 36.5 78.5v52h-62c-46 0 -82.667 -6.16699 -110 -18.5s-41 -34.5 -41 -66.5c0 -22 6.5 -39.667 19.5 -53s34.5 -20 64.5 -20zM278.001 606
c-41.333 0 -75.1699 13.002 -101.503 39.002s-40.833 60.667 -43.5 104h84c2.66699 -18 8.83398 -32.167 18.501 -42.5s23.834 -15.5 42.501 -15.5s33.334 5.16699 44.001 15.5s17.667 24.5 21 42.5h82c-1.33301 -21.333 -6 -40.833 -14 -58.5s-18.5 -32.834 -31.5 -45.501
s-28.167 -22.334 -45.5 -29.001s-36 -10 -56 -10z" />
    <glyph glyph-name="Aogonek" unicode="&#x104;" horiz-adv-x="707" 
d="M605 -182c-34 0 -61.166 7.16797 -81.499 21.501s-30.5 34.166 -30.5 59.499c0 22.667 8.16699 42.5 24.5 59.5s35.166 30.833 56.499 41.5h-36l-57 177h-273l-56 -177h-125l239 715h174l233 -708c-47.333 -27.333 -71 -55 -71 -83c0 -21.333 11.667 -32 35 -32
c16.667 0 31 3 43 9v-69c-8.66699 -4 -19 -7.33301 -31 -10s-26.667 -4 -44 -4zM239.001 274.001h211l-105 332z" />
    <glyph glyph-name="aogonek" unicode="&#x105;" horiz-adv-x="559" 
d="M421 -182c-32.667 0 -58.999 6.99902 -78.999 20.999s-30 33.667 -30 59c0 23.333 8.33301 43.5 25 60.5s35.667 30.833 57 41.5h-25v64c-17.333 -22.667 -38.333 -40.667 -63 -54s-57 -20 -97 -20c-24 0 -46.667 3 -68 9s-39.833 15.167 -55.5 27.5
s-28.167 28.333 -37.5 48s-14 43.167 -14 70.5c0 30.667 7 56.5 21 77.5s33 38 57 51s52.333 22.5 85 28.5s67.667 9 105 9h65v27c0 35.333 -6.83301 61.666 -20.5 78.999s-38.5 26 -74.5 26c-32 0 -55.833 -7.16699 -71.5 -21.5s-25.167 -34.5 -28.5 -60.5h-117
c2.66699 30.667 10.334 56.834 23.001 78.501s29 39.5 49 53.5s43 24.333 69 31s53.667 10 83 10s56.666 -3.16699 81.999 -9.5s47.5 -17 66.5 -32s33.833 -34.667 44.5 -59s16 -54.5 16 -90.5v-336c-24.667 -15.333 -42.5 -29.666 -53.5 -42.999s-16.5 -27 -16.5 -41
c0 -22 11.667 -33 35 -33c15.333 0 29.666 3 42.999 9v-67c-8.66699 -4 -19 -7.33301 -31 -10s-26.667 -4 -44 -4zM238.001 76.999c37.333 0 68.167 9.16699 92.5 27.5s36.5 44.5 36.5 78.5v52h-62c-46 0 -82.667 -6.16699 -110 -18.5s-41 -34.5 -41 -66.5
c0 -22 6.5 -39.667 19.5 -53s34.5 -20 64.5 -20z" />
    <glyph glyph-name="Cacute" unicode="&#x106;" horiz-adv-x="745" 
d="M395 -10c-56 0 -105.669 8.66602 -149.002 25.999s-79.833 41.666 -109.5 72.999s-52.167 69.333 -67.5 114s-23 94.667 -23 150v8c0 54 8.66699 103.333 26 148s41.5 83 72.5 115s67.667 57 110 75s88.5 27 138.5 27c40.667 0 78.834 -5.16699 114.501 -15.5
s67.167 -25.833 94.5 -46.5s49.5 -46.667 66.5 -78s27.5 -68 31.5 -110h-135c-7.33301 48 -24.666 84 -51.999 108s-67 36 -119 36c-31.333 0 -59.833 -6 -85.5 -18s-47.5 -29 -65.5 -51s-32 -49 -42 -81s-15 -68 -15 -108v-8c0 -80.667 18.167 -143.5 54.5 -188.5
s87.833 -67.5 154.5 -67.5c50 0 91.167 12.5 123.5 37.5s52.166 62.833 59.499 113.5h130c-5.33301 -43.333 -16.666 -81.166 -33.999 -113.499s-39.5 -59.166 -66.5 -80.499s-58.5 -37.5 -94.5 -48.5s-75.333 -16.5 -118 -16.5zM395.998 900.999h136l-99 -135h-91z" />
    <glyph glyph-name="cacute" unicode="&#x107;" horiz-adv-x="579" 
d="M301 -10c-37.333 0 -72.167 5.99902 -104.5 17.999s-60.333 29.333 -84 52s-42.167 50.334 -55.5 83.001s-20 70 -20 112v8c0 41.333 6.83301 78.666 20.5 111.999s32.5 61.833 56.5 85.5s52 41.834 84 54.501s66.333 19 103 19c28.667 0 56.667 -3.5 84 -10.5
s51.833 -18.167 73.5 -33.5s39.834 -35.5 54.501 -60.5s23.667 -55.5 27 -91.5h-117c-5.33301 35.333 -18.666 60.666 -39.999 75.999s-48 23 -80 23c-20.667 0 -39.667 -3.83301 -57 -11.5s-32.333 -19 -45 -34s-22.5 -33.167 -29.5 -54.5s-10.5 -45.333 -10.5 -72v-8
c0 -57.333 13 -100.666 39 -129.999s61.333 -44 106 -44c16 0 31.167 2.33301 45.5 7s27.166 11.667 38.499 21s20.666 21 27.999 35s12 30.333 14 49h111c-2 -30 -9.16699 -57.5 -21.5 -82.5s-28.833 -46.667 -49.5 -65s-45.5 -32.5 -74.5 -42.5s-61.167 -15 -96.5 -15z
M306.999 755.999h134l-104 -155h-89z" />
    <glyph glyph-name="Ccircumflex" unicode="&#x108;" horiz-adv-x="745" 
d="M395 -10c-56 0 -105.669 8.66602 -149.002 25.999s-79.833 41.666 -109.5 72.999s-52.167 69.333 -67.5 114s-23 94.667 -23 150v8c0 54 8.66699 103.333 26 148s41.5 83 72.5 115s67.667 57 110 75s88.5 27 138.5 27c40.667 0 78.834 -5.16699 114.501 -15.5
s67.167 -25.833 94.5 -46.5s49.5 -46.667 66.5 -78s27.5 -68 31.5 -110h-135c-7.33301 48 -24.666 84 -51.999 108s-67 36 -119 36c-31.333 0 -59.833 -6 -85.5 -18s-47.5 -29 -65.5 -51s-32 -49 -42 -81s-15 -68 -15 -108v-8c0 -80.667 18.167 -143.5 54.5 -188.5
s87.833 -67.5 154.5 -67.5c50 0 91.167 12.5 123.5 37.5s52.166 62.833 59.499 113.5h130c-5.33301 -43.333 -16.666 -81.166 -33.999 -113.499s-39.5 -59.166 -66.5 -80.499s-58.5 -37.5 -94.5 -48.5s-75.333 -16.5 -118 -16.5zM342.998 900.999h104l108 -135h-88l-74 55
l-75 -55h-86z" />
    <glyph glyph-name="ccircumflex" unicode="&#x109;" horiz-adv-x="579" 
d="M301 -10c-37.333 0 -72.167 5.99902 -104.5 17.999s-60.333 29.333 -84 52s-42.167 50.334 -55.5 83.001s-20 70 -20 112v8c0 41.333 6.83301 78.666 20.5 111.999s32.5 61.833 56.5 85.5s52 41.834 84 54.501s66.333 19 103 19c28.667 0 56.667 -3.5 84 -10.5
s51.833 -18.167 73.5 -33.5s39.834 -35.5 54.501 -60.5s23.667 -55.5 27 -91.5h-117c-5.33301 35.333 -18.666 60.666 -39.999 75.999s-48 23 -80 23c-20.667 0 -39.667 -3.83301 -57 -11.5s-32.333 -19 -45 -34s-22.5 -33.167 -29.5 -54.5s-10.5 -45.333 -10.5 -72v-8
c0 -57.333 13 -100.666 39 -129.999s61.333 -44 106 -44c16 0 31.167 2.33301 45.5 7s27.166 11.667 38.499 21s20.666 21 27.999 35s12 30.333 14 49h111c-2 -30 -9.16699 -57.5 -21.5 -82.5s-28.833 -46.667 -49.5 -65s-45.5 -32.5 -74.5 -42.5s-61.167 -15 -96.5 -15z
M250.999 752.999h96l111 -151h-86l-75 68l-76 -68h-84z" />
    <glyph glyph-name="Cdotaccent" unicode="&#x10a;" horiz-adv-x="745" 
d="M395 -10c-56 0 -105.669 8.66602 -149.002 25.999s-79.833 41.666 -109.5 72.999s-52.167 69.333 -67.5 114s-23 94.667 -23 150v8c0 54 8.66699 103.333 26 148s41.5 83 72.5 115s67.667 57 110 75s88.5 27 138.5 27c40.667 0 78.834 -5.16699 114.501 -15.5
s67.167 -25.833 94.5 -46.5s49.5 -46.667 66.5 -78s27.5 -68 31.5 -110h-135c-7.33301 48 -24.666 84 -51.999 108s-67 36 -119 36c-31.333 0 -59.833 -6 -85.5 -18s-47.5 -29 -65.5 -51s-32 -49 -42 -81s-15 -68 -15 -108v-8c0 -80.667 18.167 -143.5 54.5 -188.5
s87.833 -67.5 154.5 -67.5c50 0 91.167 12.5 123.5 37.5s52.166 62.833 59.499 113.5h130c-5.33301 -43.333 -16.666 -81.166 -33.999 -113.499s-39.5 -59.166 -66.5 -80.499s-58.5 -37.5 -94.5 -48.5s-75.333 -16.5 -118 -16.5zM390.998 774.999
c-20 0 -36.833 6.66699 -50.5 20s-20.5 29.666 -20.5 48.999s6.83301 35.5 20.5 48.5s30.5 19.5 50.5 19.5c19.333 0 36 -6.5 50 -19.5s21 -29.167 21 -48.5s-7 -35.666 -21 -48.999s-30.667 -20 -50 -20z" />
    <glyph glyph-name="cdotaccent" unicode="&#x10b;" horiz-adv-x="579" 
d="M301 -10c-37.333 0 -72.167 5.99902 -104.5 17.999s-60.333 29.333 -84 52s-42.167 50.334 -55.5 83.001s-20 70 -20 112v8c0 41.333 6.83301 78.666 20.5 111.999s32.5 61.833 56.5 85.5s52 41.834 84 54.501s66.333 19 103 19c28.667 0 56.667 -3.5 84 -10.5
s51.833 -18.167 73.5 -33.5s39.834 -35.5 54.501 -60.5s23.667 -55.5 27 -91.5h-117c-5.33301 35.333 -18.666 60.666 -39.999 75.999s-48 23 -80 23c-20.667 0 -39.667 -3.83301 -57 -11.5s-32.333 -19 -45 -34s-22.5 -33.167 -29.5 -54.5s-10.5 -45.333 -10.5 -72v-8
c0 -57.333 13 -100.666 39 -129.999s61.333 -44 106 -44c16 0 31.167 2.33301 45.5 7s27.166 11.667 38.499 21s20.666 21 27.999 35s12 30.333 14 49h111c-2 -30 -9.16699 -57.5 -21.5 -82.5s-28.833 -46.667 -49.5 -65s-45.5 -32.5 -74.5 -42.5s-61.167 -15 -96.5 -15z
M298.999 610.999c-20 0 -36.833 6.66699 -50.5 20s-20.5 29.666 -20.5 48.999s6.83301 35.5 20.5 48.5s30.5 19.5 50.5 19.5c19.333 0 36 -6.5 50 -19.5s21 -29.167 21 -48.5s-7 -35.666 -21 -48.999s-30.667 -20 -50 -20z" />
    <glyph glyph-name="Ccaron" unicode="&#x10c;" horiz-adv-x="745" 
d="M395 -10c-56 0 -105.669 8.66602 -149.002 25.999s-79.833 41.666 -109.5 72.999s-52.167 69.333 -67.5 114s-23 94.667 -23 150v8c0 54 8.66699 103.333 26 148s41.5 83 72.5 115s67.667 57 110 75s88.5 27 138.5 27c40.667 0 78.834 -5.16699 114.501 -15.5
s67.167 -25.833 94.5 -46.5s49.5 -46.667 66.5 -78s27.5 -68 31.5 -110h-135c-7.33301 48 -24.666 84 -51.999 108s-67 36 -119 36c-31.333 0 -59.833 -6 -85.5 -18s-47.5 -29 -65.5 -51s-32 -49 -42 -81s-15 -68 -15 -108v-8c0 -80.667 18.167 -143.5 54.5 -188.5
s87.833 -67.5 154.5 -67.5c50 0 91.167 12.5 123.5 37.5s52.166 62.833 59.499 113.5h130c-5.33301 -43.333 -16.666 -81.166 -33.999 -113.499s-39.5 -59.166 -66.5 -80.499s-58.5 -37.5 -94.5 -48.5s-75.333 -16.5 -118 -16.5zM231.998 900.999h88l75 -55l74 55h86
l-110 -135h-105z" />
    <glyph glyph-name="ccaron" unicode="&#x10d;" horiz-adv-x="579" 
d="M301 -10c-37.333 0 -72.167 5.99902 -104.5 17.999s-60.333 29.333 -84 52s-42.167 50.334 -55.5 83.001s-20 70 -20 112v8c0 41.333 6.83301 78.666 20.5 111.999s32.5 61.833 56.5 85.5s52 41.834 84 54.501s66.333 19 103 19c28.667 0 56.667 -3.5 84 -10.5
s51.833 -18.167 73.5 -33.5s39.834 -35.5 54.501 -60.5s23.667 -55.5 27 -91.5h-117c-5.33301 35.333 -18.666 60.666 -39.999 75.999s-48 23 -80 23c-20.667 0 -39.667 -3.83301 -57 -11.5s-32.333 -19 -45 -34s-22.5 -33.167 -29.5 -54.5s-10.5 -45.333 -10.5 -72v-8
c0 -57.333 13 -100.666 39 -129.999s61.333 -44 106 -44c16 0 31.167 2.33301 45.5 7s27.166 11.667 38.499 21s20.666 21 27.999 35s12 30.333 14 49h111c-2 -30 -9.16699 -57.5 -21.5 -82.5s-28.833 -46.667 -49.5 -65s-45.5 -32.5 -74.5 -42.5s-61.167 -15 -96.5 -15z
M136.999 752.999h87l75 -67l75 67h84l-113 -151h-96z" />
    <glyph glyph-name="Dcaron" unicode="&#x10e;" horiz-adv-x="718" 
d="M293 105c80.667 0 140.333 21.835 179 65.502s58 105.167 58 184.5v8c0 38.667 -4.5 73.167 -13.5 103.5s-23.167 56.166 -42.5 77.499s-44 37.666 -74 48.999s-66 17 -108 17h-77v-505h78zM81.999 715.002h217.002c62 0 116.167 -8.5 162.5 -25.5
s84.833 -40.833 115.5 -71.5s53.667 -67.5 69 -110.5s23 -90.5 23 -142.5v-9c0 -52 -7.66699 -99.833 -23 -143.5s-38.333 -81.167 -69 -112.5s-69.334 -55.833 -116.001 -73.5s-101.334 -26.5 -164.001 -26.5h-215v715zM162.001 901.002h88l75 -55l74 55h86l-110 -135h-105
z" />
    <glyph glyph-name="dcaron" unicode="&#x10f;" horiz-adv-x="637" 
d="M268 -10c-32.667 0 -63 5.66504 -91 16.998s-52.333 28.166 -73 50.499s-36.834 49.833 -48.501 82.5s-17.5 70.334 -17.5 113.001v8c0 42 5.83301 79.833 17.5 113.5s28 62.334 49 86.001s45.833 41.834 74.5 54.501s60 19 94 19c42.667 0 77.5 -8.66699 104.5 -26
s47.833 -39 62.5 -65v322h121v-765h-121v88c-7.33301 -13.333 -16.666 -25.833 -27.999 -37.5s-24.5 -22 -39.5 -31s-31.333 -16.167 -49 -21.5s-36.167 -8 -55.5 -8zM298 85.998c42 0 76.834 14.167 104.501 42.5s41.5 71.833 41.5 130.5v8c0 58 -12.5 101.167 -37.5 129.5
s-59.5 42.5 -103.5 42.5c-44.667 0 -79.334 -15 -104.001 -45s-37 -73.333 -37 -130v-8c0 -57.333 12.833 -100 38.5 -128s58.167 -42 97.5 -42zM615.001 764.998h110l-49 -175h-71z" />
    <glyph glyph-name="Dcroat" unicode="&#x110;" horiz-adv-x="743" 
d="M32 406h69.002v309h217c62 0 116.167 -8.5 162.5 -25.5s84.833 -40.833 115.5 -71.5s53.667 -67.5 69 -110.5s23 -90.5 23 -142.5v-9c0 -52 -7.5 -99.833 -22.5 -143.5s-37.833 -81.167 -68.5 -112.5s-69.334 -55.833 -116.001 -73.5s-101.334 -26.5 -164.001 -26.5h-216
v311h-69v95zM313.002 105c80.667 0 140.167 21.835 178.5 65.502s57.5 105.167 57.5 184.5v8c0 38.667 -4.5 73.167 -13.5 103.5s-23 56.166 -42 77.499s-43.5 37.666 -73.5 48.999s-66 17 -108 17h-79v-204h173v-95h-173v-206h80z" />
    <glyph glyph-name="dcroat" unicode="&#x111;" horiz-adv-x="637" 
d="M271 679l169 -0.00195312v86h121v-86h68v-75h-68v-604h-121v88c-7.33301 -13.333 -16.666 -25.833 -27.999 -37.5s-24.5 -22 -39.5 -31s-31.333 -16.167 -49 -21.5s-36.167 -8 -55.5 -8c-32.667 0 -63 5.66699 -91 17s-52.333 28.166 -73 50.499
s-36.834 49.833 -48.501 82.5s-17.5 70.334 -17.5 113.001v8c0 42 5.83301 79.833 17.5 113.5s28 62.334 49 86.001s45.833 41.834 74.5 54.501s60 19 94 19c42.667 0 77.5 -8.66699 104.5 -26s47.833 -39 62.5 -65v161h-169v75zM298 85.998
c42 0 76.834 14.167 104.501 42.5s41.5 71.833 41.5 130.5v8c0 58 -12.5 101.167 -37.5 129.5s-59.5 42.5 -103.5 42.5c-44.667 0 -79.334 -15 -104.001 -45s-37 -73.333 -37 -130v-8c0 -57.333 12.833 -100 38.5 -128s58.167 -42 97.5 -42z" />
    <glyph glyph-name="Emacron" unicode="&#x112;" horiz-adv-x="588" 
d="M82 715h447v-105h-314v-196h252v-100h-252v-209h331v-105h-464v715zM169 861h288v-81h-288v81z" />
    <glyph glyph-name="emacron" unicode="&#x113;" horiz-adv-x="584" 
d="M302 -10c-38.667 0 -74.1689 6.16602 -106.502 18.499s-60.333 30 -84 53s-42 50.833 -55 83.5s-19.5 69.667 -19.5 111v8c0 40.667 6.5 77.5 19.5 110.5s31.167 61.333 54.5 85s50.833 42 82.5 55s66.167 19.5 103.5 19.5c32.667 0 63.834 -5 93.501 -15
s55.834 -25.667 78.501 -47s40.834 -48.666 54.501 -81.999s20.5 -73.333 20.5 -120v-35h-383c2 -50 15.167 -88.333 39.5 -115s59.166 -40 104.499 -40c36.667 0 64.667 7 84 21s31.333 33.667 36 59h117c-8.66699 -55.333 -34 -97.5 -76 -126.5s-96.667 -43.5 -164 -43.5z
M423.998 315.999c-3.33301 45.333 -15.833 78.333 -37.5 99s-51.5 31 -89.5 31c-36.667 0 -66.667 -11.5 -90 -34.5s-38 -54.833 -44 -95.5h261zM154.998 711.999h280v-78h-280v78z" />
    <glyph glyph-name="Ebreve" unicode="&#x114;" horiz-adv-x="588" 
d="M82 715h447v-105h-314v-196h252v-100h-252v-209h331v-105h-464v715zM316 761c-42 0 -76.167 12.832 -102.5 38.499s-40.5 59.5 -42.5 101.5h85c2.66699 -17.333 8.83398 -31 18.501 -41s23.5 -15 41.5 -15s32.167 5 42.5 15s17.166 23.667 20.499 41h84
c-1.33301 -20.667 -6 -39.667 -14 -57s-18.5 -32.166 -31.5 -44.499s-28.167 -21.833 -45.5 -28.5s-36 -10 -56 -10z" />
    <glyph glyph-name="ebreve" unicode="&#x115;" horiz-adv-x="584" 
d="M302 -10c-38.667 0 -74.1689 6.16602 -106.502 18.499s-60.333 30 -84 53s-42 50.833 -55 83.5s-19.5 69.667 -19.5 111v8c0 40.667 6.5 77.5 19.5 110.5s31.167 61.333 54.5 85s50.833 42 82.5 55s66.167 19.5 103.5 19.5c32.667 0 63.834 -5 93.501 -15
s55.834 -25.667 78.501 -47s40.834 -48.666 54.501 -81.999s20.5 -73.333 20.5 -120v-35h-383c2 -50 15.167 -88.333 39.5 -115s59.166 -40 104.499 -40c36.667 0 64.667 7 84 21s31.333 33.667 36 59h117c-8.66699 -55.333 -34 -97.5 -76 -126.5s-96.667 -43.5 -164 -43.5z
M423.998 315.999c-3.33301 45.333 -15.833 78.333 -37.5 99s-51.5 31 -89.5 31c-36.667 0 -66.667 -11.5 -90 -34.5s-38 -54.833 -44 -95.5h261zM286.998 605.999c-41.333 0 -75.1699 13.002 -101.503 39.002s-40.833 60.667 -43.5 104h84
c2.66699 -18 8.83398 -32.167 18.501 -42.5s23.834 -15.5 42.501 -15.5s33.334 5.16699 44.001 15.5s17.667 24.5 21 42.5h82c-1.33301 -21.333 -6 -40.833 -14 -58.5s-18.5 -32.834 -31.5 -45.501s-28.167 -22.334 -45.5 -29.001s-36 -10 -56 -10z" />
    <glyph glyph-name="Edotaccent" unicode="&#x116;" horiz-adv-x="588" 
d="M82 715h447v-105h-314v-196h252v-100h-252v-209h331v-105h-464v715zM313 775c-20 0 -36.833 6.66699 -50.5 20s-20.5 29.666 -20.5 48.999s6.83301 35.5 20.5 48.5s30.5 19.5 50.5 19.5c19.333 0 36 -6.5 50 -19.5s21 -29.167 21 -48.5s-7 -35.666 -21 -48.999
s-30.667 -20 -50 -20z" />
    <glyph glyph-name="edotaccent" unicode="&#x117;" horiz-adv-x="584" 
d="M302 -10c-38.667 0 -74.1689 6.16602 -106.502 18.499s-60.333 30 -84 53s-42 50.833 -55 83.5s-19.5 69.667 -19.5 111v8c0 40.667 6.5 77.5 19.5 110.5s31.167 61.333 54.5 85s50.833 42 82.5 55s66.167 19.5 103.5 19.5c32.667 0 63.834 -5 93.501 -15
s55.834 -25.667 78.501 -47s40.834 -48.666 54.501 -81.999s20.5 -73.333 20.5 -120v-35h-383c2 -50 15.167 -88.333 39.5 -115s59.166 -40 104.499 -40c36.667 0 64.667 7 84 21s31.333 33.667 36 59h117c-8.66699 -55.333 -34 -97.5 -76 -126.5s-96.667 -43.5 -164 -43.5z
M423.998 315.999c-3.33301 45.333 -15.833 78.333 -37.5 99s-51.5 31 -89.5 31c-36.667 0 -66.667 -11.5 -90 -34.5s-38 -54.833 -44 -95.5h261zM294.998 610.999c-20 0 -36.833 6.66699 -50.5 20s-20.5 29.666 -20.5 48.999s6.83301 35.5 20.5 48.5s30.5 19.5 50.5 19.5
c19.333 0 36 -6.5 50 -19.5s21 -29.167 21 -48.5s-7 -35.666 -21 -48.999s-30.667 -20 -50 -20z" />
    <glyph glyph-name="Eogonek" unicode="&#x118;" horiz-adv-x="588" 
d="M459 -182c-34 0 -61 7.16797 -81 21.501s-30 34.166 -30 59.499c0 22.667 8.16699 42.5 24.5 59.5s35.166 30.833 56.499 41.5h-347v715h447v-105h-314v-196h252v-100h-252v-209h331v-105h-32c-19.333 -13.333 -33.666 -26 -42.999 -38s-14 -24.667 -14 -38
c0 -21.333 11.667 -32 35 -32c15.333 0 29.666 3 42.999 9v-69c-8.66699 -4 -19.167 -7.33301 -31.5 -10s-27.166 -4 -44.499 -4z" />
    <glyph glyph-name="eogonek" unicode="&#x119;" horiz-adv-x="584" 
d="M395 -182c-33.333 0 -60.0039 6.99902 -80.0039 20.999s-30 33.667 -30 59c0 20 7.5 38.167 22.5 54.5s32.167 30.166 51.5 41.499c-8.66699 -1.33301 -18 -2.33301 -28 -3s-19.667 -1 -29 -1c-38.667 0 -74.167 6.16699 -106.5 18.5s-60.333 30 -84 53
s-42 50.833 -55 83.5s-19.5 69.667 -19.5 111v8c0 40.667 6.5 77.5 19.5 110.5s31.167 61.333 54.5 85s50.833 42 82.5 55s66.167 19.5 103.5 19.5c32.667 0 63.834 -5 93.501 -15s55.834 -25.667 78.501 -47s40.834 -48.666 54.501 -81.999s20.5 -73.333 20.5 -120v-35
h-383c2 -50 15.167 -88.333 39.5 -115s59.166 -40 104.499 -40c36.667 0 64.667 7 84 21s31.333 33.667 36 59h117c-3.33301 -19.333 -8.16602 -36.166 -14.499 -50.499s-13.5 -27 -21.5 -38s-16.167 -20.5 -24.5 -28.5l-22.5 -21c-20.667 -18.667 -37.334 -36 -50.001 -52
s-19 -31.667 -19 -47c0 -22 11.667 -33 35 -33c16 0 30.667 3 44 9v-67c-9.33301 -4 -19.666 -7.33301 -30.999 -10s-25.666 -4 -42.999 -4zM423.996 315.999c-3.33301 45.333 -15.833 78.333 -37.5 99s-51.5 31 -89.5 31c-36.667 0 -66.667 -11.5 -90 -34.5
s-38 -54.833 -44 -95.5h261z" />
    <glyph glyph-name="Ecaron" unicode="&#x11a;" horiz-adv-x="588" 
d="M82 715h447v-105h-314v-196h252v-100h-252v-209h331v-105h-464v715zM153 901h88l75 -55l74 55h86l-110 -135h-105z" />
    <glyph glyph-name="ecaron" unicode="&#x11b;" horiz-adv-x="584" 
d="M302 -10c-38.667 0 -74.1689 6.16602 -106.502 18.499s-60.333 30 -84 53s-42 50.833 -55 83.5s-19.5 69.667 -19.5 111v8c0 40.667 6.5 77.5 19.5 110.5s31.167 61.333 54.5 85s50.833 42 82.5 55s66.167 19.5 103.5 19.5c32.667 0 63.834 -5 93.501 -15
s55.834 -25.667 78.501 -47s40.834 -48.666 54.501 -81.999s20.5 -73.333 20.5 -120v-35h-383c2 -50 15.167 -88.333 39.5 -115s59.166 -40 104.499 -40c36.667 0 64.667 7 84 21s31.333 33.667 36 59h117c-8.66699 -55.333 -34 -97.5 -76 -126.5s-96.667 -43.5 -164 -43.5z
M423.998 315.999c-3.33301 45.333 -15.833 78.333 -37.5 99s-51.5 31 -89.5 31c-36.667 0 -66.667 -11.5 -90 -34.5s-38 -54.833 -44 -95.5h261zM133.998 752.999h87l75 -67l75 67h84l-113 -151h-96z" />
    <glyph glyph-name="Gcircumflex" unicode="&#x11c;" horiz-adv-x="779" 
d="M403 -10c-57.333 0 -108.169 9.00195 -152.502 27.002s-81.666 43.167 -111.999 75.5s-53.333 70.666 -69 114.999s-23.5 92.833 -23.5 145.5v8c0 53.333 8.83301 102.333 26.5 147s42.167 83.167 73.5 115.5s69 57.5 113 75.5s92 27 144 27c38 0 74.667 -4.5 110 -13.5
s66.833 -23.333 94.5 -43s50.667 -44.667 69 -75s29.833 -66.833 34.5 -109.5h-133c-8 48 -27.167 82.667 -57.5 104s-68.833 32 -115.5 32c-35.333 0 -66.666 -6.16699 -93.999 -18.5s-50.333 -30 -69 -53s-33 -50.5 -43 -82.5s-15 -67.667 -15 -107v-8
c0 -38 4.5 -72.833 13.5 -104.5s22.667 -58.834 41 -81.501s41.333 -40.334 69 -53.001s60.167 -19 97.5 -19c33.333 0 62 4.66699 86 14s43.667 22.166 59 38.499s26.833 35.5 34.5 57.5s12.167 45.333 13.5 70h-180v100h311v-66c0 -49.333 -7.5 -93.666 -22.5 -132.999
s-36.5 -72.666 -64.5 -99.999s-62.167 -48.333 -102.5 -63s-85.833 -22 -136.5 -22zM346.997 901.002h104l108 -135h-88l-74 55l-75 -55h-86z" />
    <glyph glyph-name="gcircumflex" unicode="&#x11d;" horiz-adv-x="637" 
d="M295 -192c-41.333 0 -77.002 4.33105 -107.002 12.998s-55.167 20.834 -75.5 36.501s-36.166 34 -47.499 55s-18.666 44.167 -21.999 69.5h122c5.33301 -26 18.166 -46.167 38.499 -60.5s50.5 -21.5 90.5 -21.5c47.333 0 83.5 11.667 108.5 35s37.5 58.666 37.5 105.999
v77c-7.33301 -12.667 -16.666 -24.834 -27.999 -36.501s-24.5 -22 -39.5 -31s-31.167 -16.167 -48.5 -21.5s-35.666 -8 -54.999 -8c-32.667 0 -63.167 5.83301 -91.5 17.5s-52.833 28.334 -73.5 50.001s-37 47.834 -49 78.501s-18 65 -18 103v7
c0 36.667 5.83301 70.667 17.5 102s28 58.5 49 81.5s45.833 41 74.5 54s60 19.5 94 19.5c43.333 0 78.333 -8.66699 105 -26s47.667 -39 63 -65v80h121v-484c-0.666992 -77.333 -24.834 -135.166 -72.501 -173.499s-112.167 -57.5 -193.5 -57.5zM298.998 113.998
c42 0 76.667 14.166 104 42.499s41 67.5 41 117.5v7c0 50 -12.5 88.833 -37.5 116.5s-59.5 41.5 -103.5 41.5c-45.333 0 -80.333 -14.667 -105 -44s-37 -68 -37 -116v-8c0 -24 3.5 -45.833 10.5 -65.5s16.667 -36.167 29 -49.5s27 -23.666 44 -30.999s35.167 -11 54.5 -11z
M250.998 752.997h96l111 -151h-86l-75 68l-76 -68h-84z" />
    <glyph glyph-name="Gbreve" unicode="&#x11e;" horiz-adv-x="779" 
d="M403 -10c-57.333 0 -108.169 9.00195 -152.502 27.002s-81.666 43.167 -111.999 75.5s-53.333 70.666 -69 114.999s-23.5 92.833 -23.5 145.5v8c0 53.333 8.83301 102.333 26.5 147s42.167 83.167 73.5 115.5s69 57.5 113 75.5s92 27 144 27c38 0 74.667 -4.5 110 -13.5
s66.833 -23.333 94.5 -43s50.667 -44.667 69 -75s29.833 -66.833 34.5 -109.5h-133c-8 48 -27.167 82.667 -57.5 104s-68.833 32 -115.5 32c-35.333 0 -66.666 -6.16699 -93.999 -18.5s-50.333 -30 -69 -53s-33 -50.5 -43 -82.5s-15 -67.667 -15 -107v-8
c0 -38 4.5 -72.833 13.5 -104.5s22.667 -58.834 41 -81.501s41.333 -40.334 69 -53.001s60.167 -19 97.5 -19c33.333 0 62 4.66699 86 14s43.667 22.166 59 38.499s26.833 35.5 34.5 57.5s12.167 45.333 13.5 70h-180v100h311v-66c0 -49.333 -7.5 -93.666 -22.5 -132.999
s-36.5 -72.666 -64.5 -99.999s-62.167 -48.333 -102.5 -63s-85.833 -22 -136.5 -22zM396.997 761.002c-42 0 -76.167 12.832 -102.5 38.499s-40.5 59.5 -42.5 101.5h85c2.66699 -17.333 8.83398 -31 18.501 -41s23.5 -15 41.5 -15s32.167 5 42.5 15s17.166 23.667 20.499 41
h84c-1.33301 -20.667 -6 -39.667 -14 -57s-18.5 -32.166 -31.5 -44.499s-28.167 -21.833 -45.5 -28.5s-36 -10 -56 -10z" />
    <glyph glyph-name="gbreve" unicode="&#x11f;" horiz-adv-x="637" 
d="M295 -192c-41.333 0 -77.002 4.33105 -107.002 12.998s-55.167 20.834 -75.5 36.501s-36.166 34 -47.499 55s-18.666 44.167 -21.999 69.5h122c5.33301 -26 18.166 -46.167 38.499 -60.5s50.5 -21.5 90.5 -21.5c47.333 0 83.5 11.667 108.5 35s37.5 58.666 37.5 105.999
v77c-7.33301 -12.667 -16.666 -24.834 -27.999 -36.501s-24.5 -22 -39.5 -31s-31.167 -16.167 -48.5 -21.5s-35.666 -8 -54.999 -8c-32.667 0 -63.167 5.83301 -91.5 17.5s-52.833 28.334 -73.5 50.001s-37 47.834 -49 78.501s-18 65 -18 103v7
c0 36.667 5.83301 70.667 17.5 102s28 58.5 49 81.5s45.833 41 74.5 54s60 19.5 94 19.5c43.333 0 78.333 -8.66699 105 -26s47.667 -39 63 -65v80h121v-484c-0.666992 -77.333 -24.834 -135.166 -72.501 -173.499s-112.167 -57.5 -193.5 -57.5zM298.998 113.998
c42 0 76.667 14.166 104 42.499s41 67.5 41 117.5v7c0 50 -12.5 88.833 -37.5 116.5s-59.5 41.5 -103.5 41.5c-45.333 0 -80.333 -14.667 -105 -44s-37 -68 -37 -116v-8c0 -24 3.5 -45.833 10.5 -65.5s16.667 -36.167 29 -49.5s27 -23.666 44 -30.999s35.167 -11 54.5 -11z
M296.998 605.997c-41.333 0 -75.1699 13.002 -101.503 39.002s-40.833 60.667 -43.5 104h84c2.66699 -18 8.83398 -32.167 18.501 -42.5s23.834 -15.5 42.501 -15.5s33.334 5.16699 44.001 15.5s17.667 24.5 21 42.5h82c-1.33301 -21.333 -6 -40.833 -14 -58.5
s-18.5 -32.834 -31.5 -45.501s-28.167 -22.334 -45.5 -29.001s-36 -10 -56 -10z" />
    <glyph glyph-name="Gdotaccent" unicode="&#x120;" horiz-adv-x="779" 
d="M403 -10c-57.333 0 -108.169 9.00195 -152.502 27.002s-81.666 43.167 -111.999 75.5s-53.333 70.666 -69 114.999s-23.5 92.833 -23.5 145.5v8c0 53.333 8.83301 102.333 26.5 147s42.167 83.167 73.5 115.5s69 57.5 113 75.5s92 27 144 27c38 0 74.667 -4.5 110 -13.5
s66.833 -23.333 94.5 -43s50.667 -44.667 69 -75s29.833 -66.833 34.5 -109.5h-133c-8 48 -27.167 82.667 -57.5 104s-68.833 32 -115.5 32c-35.333 0 -66.666 -6.16699 -93.999 -18.5s-50.333 -30 -69 -53s-33 -50.5 -43 -82.5s-15 -67.667 -15 -107v-8
c0 -38 4.5 -72.833 13.5 -104.5s22.667 -58.834 41 -81.501s41.333 -40.334 69 -53.001s60.167 -19 97.5 -19c33.333 0 62 4.66699 86 14s43.667 22.166 59 38.499s26.833 35.5 34.5 57.5s12.167 45.333 13.5 70h-180v100h311v-66c0 -49.333 -7.5 -93.666 -22.5 -132.999
s-36.5 -72.666 -64.5 -99.999s-62.167 -48.333 -102.5 -63s-85.833 -22 -136.5 -22zM397.997 775.002c-20 0 -36.833 6.66699 -50.5 20s-20.5 29.666 -20.5 48.999s6.83301 35.5 20.5 48.5s30.5 19.5 50.5 19.5c19.333 0 36 -6.5 50 -19.5s21 -29.167 21 -48.5
s-7 -35.666 -21 -48.999s-30.667 -20 -50 -20z" />
    <glyph glyph-name="gdotaccent" unicode="&#x121;" horiz-adv-x="637" 
d="M295 -192c-41.333 0 -77.002 4.33105 -107.002 12.998s-55.167 20.834 -75.5 36.501s-36.166 34 -47.499 55s-18.666 44.167 -21.999 69.5h122c5.33301 -26 18.166 -46.167 38.499 -60.5s50.5 -21.5 90.5 -21.5c47.333 0 83.5 11.667 108.5 35s37.5 58.666 37.5 105.999
v77c-7.33301 -12.667 -16.666 -24.834 -27.999 -36.501s-24.5 -22 -39.5 -31s-31.167 -16.167 -48.5 -21.5s-35.666 -8 -54.999 -8c-32.667 0 -63.167 5.83301 -91.5 17.5s-52.833 28.334 -73.5 50.001s-37 47.834 -49 78.501s-18 65 -18 103v7
c0 36.667 5.83301 70.667 17.5 102s28 58.5 49 81.5s45.833 41 74.5 54s60 19.5 94 19.5c43.333 0 78.333 -8.66699 105 -26s47.667 -39 63 -65v80h121v-484c-0.666992 -77.333 -24.834 -135.166 -72.501 -173.499s-112.167 -57.5 -193.5 -57.5zM298.998 113.998
c42 0 76.667 14.166 104 42.499s41 67.5 41 117.5v7c0 50 -12.5 88.833 -37.5 116.5s-59.5 41.5 -103.5 41.5c-45.333 0 -80.333 -14.667 -105 -44s-37 -68 -37 -116v-8c0 -24 3.5 -45.833 10.5 -65.5s16.667 -36.167 29 -49.5s27 -23.666 44 -30.999s35.167 -11 54.5 -11z
M297.998 610.997c-20 0 -36.833 6.66699 -50.5 20s-20.5 29.666 -20.5 48.999s6.83301 35.5 20.5 48.5s30.5 19.5 50.5 19.5c19.333 0 36 -6.5 50 -19.5s21 -29.167 21 -48.5s-7 -35.666 -21 -48.999s-30.667 -20 -50 -20z" />
    <glyph glyph-name="uni0122" unicode="&#x122;" horiz-adv-x="775" 
d="M403 -10c-57.333 0 -108.169 9.00195 -152.502 27.002s-81.666 43.167 -111.999 75.5s-53.333 70.666 -69 114.999s-23.5 92.833 -23.5 145.5v8c0 53.333 8.83301 102.333 26.5 147s42.167 83.167 73.5 115.5s69 57.5 113 75.5s92 27 144 27c38 0 74.667 -4.5 110 -13.5
s66.833 -23.333 94.5 -43s50.667 -44.667 69 -75s29.833 -66.833 34.5 -109.5h-133c-8 48 -27.167 82.667 -57.5 104s-68.833 32 -115.5 32c-35.333 0 -66.666 -6.16699 -93.999 -18.5s-50.333 -30 -69 -53s-33 -50.5 -43 -82.5s-15 -67.667 -15 -107v-8
c0 -38 4.5 -72.833 13.5 -104.5s22.667 -58.834 41 -81.501s41.333 -40.334 69 -53.001s60.167 -19 97.5 -19c33.333 0 62 4.66699 86 14s43.667 22.166 59 38.499s26.833 35.5 34.5 57.5s12.167 45.333 13.5 70h-180v100h311v-66c0 -49.333 -7.5 -93.666 -22.5 -132.999
s-36.5 -72.666 -64.5 -99.999s-62.167 -48.333 -102.5 -63s-85.833 -22 -136.5 -22zM300.997 -197.998l52 165l111 -22l-92 -170z" />
    <glyph glyph-name="uni0123" unicode="&#x123;" horiz-adv-x="633" 
d="M295 -192c-41.333 0 -77.002 4.33105 -107.002 12.998s-55.167 20.834 -75.5 36.501s-36.166 34 -47.499 55s-18.666 44.167 -21.999 69.5h122c5.33301 -26 18.166 -46.167 38.499 -60.5s50.5 -21.5 90.5 -21.5c47.333 0 83.5 11.667 108.5 35s37.5 58.666 37.5 105.999
v77c-7.33301 -12.667 -16.666 -24.834 -27.999 -36.501s-24.5 -22 -39.5 -31s-31.167 -16.167 -48.5 -21.5s-35.666 -8 -54.999 -8c-32.667 0 -63.167 5.83301 -91.5 17.5s-52.833 28.334 -73.5 50.001s-37 47.834 -49 78.501s-18 65 -18 103v7
c0 36.667 5.83301 70.667 17.5 102s28 58.5 49 81.5s45.833 41 74.5 54s60 19.5 94 19.5c43.333 0 78.333 -8.66699 105 -26s47.667 -39 63 -65v80h121v-484c-0.666992 -77.333 -24.834 -135.166 -72.501 -173.499s-112.167 -57.5 -193.5 -57.5zM298.998 113.998
c42 0 76.667 14.166 104 42.499s41 67.5 41 117.5v7c0 50 -12.5 88.833 -37.5 116.5s-59.5 41.5 -103.5 41.5c-45.333 0 -80.333 -14.667 -105 -44s-37 -68 -37 -116v-8c0 -24 3.5 -45.833 10.5 -65.5s16.667 -36.167 29 -49.5s27 -23.666 44 -30.999s35.167 -11 54.5 -11z
M243.998 609.997l92 169l70 -26l-51 -165z" />
    <glyph glyph-name="Hcircumflex" unicode="&#x124;" horiz-adv-x="755" 
d="M82 715h133v-304h321v304h134v-715h-134v304h-321v-304h-133v715zM324 901h104l108 -135h-88l-74 55l-75 -55h-86z" />
    <glyph glyph-name="hcircumflex" unicode="&#x125;" horiz-adv-x="612" 
d="M72 765h121.001v-325c12.667 25.333 33.167 47.333 61.5 66s64.166 28 107.499 28c26 0 50 -4 72 -12s41 -20.167 57 -36.5s28.333 -37.5 37 -63.5s13 -57 13 -93v-329h-121v318c0 40 -8.33301 69.167 -25 87.5s-43 27.5 -79 27.5c-34 0 -63 -10.5 -87 -31.5
s-36 -52.167 -36 -93.5v-308h-121v765zM263.001 941h104l108 -135h-88l-74 55l-75 -55h-86z" />
    <glyph glyph-name="Hbar" unicode="&#x126;" horiz-adv-x="755" 
d="M16 582h66v133h133v-133h321v133h134v-133h66v-78h-66v-504h-134v304h-321v-304h-133v504h-66v78zM536 411v93h-321v-93h321z" />
    <glyph glyph-name="hbar" unicode="&#x127;" horiz-adv-x="612" 
d="M4 679h68.001v86h121v-86h169v-75h-169v-164c12.667 25.333 33.167 47.333 61.5 66s64.166 28 107.499 28c26 0 50 -4 72 -12s41 -20.167 57 -36.5s28.333 -37.5 37 -63.5s13 -57 13 -93v-329h-121v318c0 40 -8.33301 69.167 -25 87.5s-43 27.5 -79 27.5
c-34 0 -63 -10.5 -87 -31.5s-36 -52.167 -36 -93.5v-308h-121v604h-68v75z" />
    <glyph glyph-name="Itilde" unicode="&#x128;" horiz-adv-x="311" 
d="M86 715h134v-715h-134v715zM213 768c-12 0 -23.1641 2 -33.4971 6s-20.166 8.5 -29.499 13.5l-26 13.5c-8 4 -15.667 6 -23 6c-9.33301 0 -17.333 -3.83301 -24 -11.5s-11 -17.167 -13 -28.5h-76c3.33301 42 15.333 74.333 36 97s45 34 73 34
c11.333 0 22.166 -2.16699 32.499 -6.5s20.166 -9 29.499 -14s18.166 -9.5 26.499 -13.5s16.5 -6 24.5 -6c9.33301 0 17.166 3.83301 23.499 11.5s10.5 17.167 12.5 28.5h77c-4 -42 -16.333 -74.167 -37 -96.5s-45 -33.5 -73 -33.5z" />
    <glyph glyph-name="itilde" unicode="&#x129;" horiz-adv-x="275" 
d="M75 523h121v-523h-121v523zM194 606c-12 0 -23.165 2 -33.498 6s-20 8.5 -29 13.5l-25.5 14c-8 4.33301 -15.667 6.5 -23 6.5c-9.33301 0 -17.333 -3.83301 -24 -11.5s-11 -17.167 -13 -28.5h-75c4 42 15.833 74.333 35.5 97s43.5 34 71.5 34
c11.333 0 22.166 -2 32.499 -6s20 -8.5 29 -13.5s17.667 -9.5 26 -13.5s16.5 -6 24.5 -6c9.33301 0 17.166 3.66699 23.499 11s10.5 17 12.5 29h75c-4 -42 -15.833 -74.5 -35.5 -97.5s-43.5 -34.5 -71.5 -34.5z" />
    <glyph glyph-name="Imacron" unicode="&#x12a;" horiz-adv-x="311" 
d="M86 715h134v-715h-134v715zM9 861h288v-81h-288v81z" />
    <glyph glyph-name="imacron" unicode="&#x12b;" horiz-adv-x="275" 
d="M28 712h214v-78h-214v78zM75 523h121v-523h-121v523z" />
    <glyph glyph-name="Ibreve" unicode="&#x12c;" horiz-adv-x="311" 
d="M86 715h134v-715h-134v715zM154 761c-42 0 -76.167 12.832 -102.5 38.499s-40.5 59.5 -42.5 101.5h85c2.66699 -17.333 8.83398 -31 18.501 -41s23.5 -15 41.5 -15s32.167 5 42.5 15s17.166 23.667 20.499 41h84c-1.33301 -20.667 -6 -39.667 -14 -57
s-18.5 -32.166 -31.5 -44.499s-28.167 -21.833 -45.5 -28.5s-36 -10 -56 -10z" />
    <glyph glyph-name="ibreve" unicode="&#x12d;" horiz-adv-x="275" 
d="M75 523h121v-523h-121v523zM135 606c-41.333 0 -75.1699 13.002 -101.503 39.002s-40.833 60.667 -43.5 104h84c2.66699 -18 8.83398 -32.167 18.501 -42.5s23.834 -15.5 42.501 -15.5s33.334 5.16699 44.001 15.5s17.667 24.5 21 42.5h82
c-1.33301 -21.333 -6 -40.833 -14 -58.5s-18.5 -32.834 -31.5 -45.501s-28.167 -22.334 -45.5 -29.001s-36 -10 -56 -10z" />
    <glyph glyph-name="Iogonek" unicode="&#x12e;" horiz-adv-x="311" 
d="M155 -182c-34 0 -61.166 7.16797 -81.499 21.501s-30.5 34.166 -30.5 59.499c0 22.667 8.16699 42.5 24.5 59.5s35.166 30.833 56.499 41.5h-38v715h134v-708c-45.333 -27.333 -68 -55 -68 -83c0 -21.333 11.667 -32 35 -32c16.667 0 31 3 43 9v-69
c-8.66699 -4 -19 -7.33301 -31 -10s-26.667 -4 -44 -4z" />
    <glyph glyph-name="iogonek" unicode="&#x12f;" horiz-adv-x="275" 
d="M134 -182c-33.333 0 -59.832 7.16797 -79.499 21.501s-29.5 34.166 -29.5 59.499c0 22.667 8.16699 42.5 24.5 59.5s35.166 30.833 56.499 41.5h-31v523h121v-518c-23.333 -15.333 -40.166 -29.5 -50.499 -42.5s-15.5 -26.167 -15.5 -39.5c0 -22 11.667 -33 35 -33
c16.667 0 31 3 43 9v-67c-8.66699 -4 -18.834 -7.33301 -30.501 -10s-26.167 -4 -43.5 -4zM134.001 609.001c-20 0 -37 6.66699 -51 20s-21 29.666 -21 48.999c0 20 7 36.667 21 50s31 20 51 20s37 -6.66699 51 -20s21 -30 21 -50c0 -19.333 -7 -35.666 -21 -48.999
s-31 -20 -51 -20z" />
    <glyph glyph-name="Idotaccent" unicode="&#x130;" horiz-adv-x="311" 
d="M86 715h134v-715h-134v715zM154 775c-20 0 -36.833 6.66699 -50.5 20s-20.5 29.666 -20.5 48.999s6.83301 35.5 20.5 48.5s30.5 19.5 50.5 19.5c19.333 0 36 -6.5 50 -19.5s21 -29.167 21 -48.5s-7 -35.666 -21 -48.999s-30.667 -20 -50 -20z" />
    <glyph glyph-name="dotlessi" unicode="&#x131;" horiz-adv-x="275" 
d="M75 523h121v-523h-121v523z" />
    <glyph glyph-name="IJ" unicode="&#x132;" horiz-adv-x="719" 
d="M86 715h134v-715h-134v715zM419 -9c-30 0 -53.335 1.99902 -70.002 5.99902s-30.667 9 -42 15v104c12.667 -5.33301 25.834 -9.66602 39.501 -12.999s31.167 -5 52.5 -5c32.667 0 58.667 9.33301 78 28s29 50 29 94v495h134v-498c0 -38.667 -5.33301 -72.167 -16 -100.5
s-25.667 -51.833 -45 -70.5s-42.666 -32.5 -69.999 -41.5s-57.333 -13.5 -90 -13.5z" />
    <glyph glyph-name="ij" unicode="&#x133;" horiz-adv-x="275" 
d="M75 523h121v-523h-121v523zM134 609c-20 0 -37 6.66699 -51 20s-21 29.666 -21 48.999c0 20 7 36.667 21 50s31 20 51 20s37 -6.66699 51 -20s21 -30 21 -50c0 -19.333 -7 -35.666 -21 -48.999s-31 -20 -51 -20zM274 -95c26.667 2 45.333 9.33691 56 22.0039s16 30 16 52
v544h121v-541c0 -26.667 -3.33301 -50.334 -10 -71.001s-17.5 -38.334 -32.5 -53.001s-34.833 -25.834 -59.5 -33.501s-55 -11.834 -91 -12.501v93zM404.999 609.004c-20 0 -37 6.66699 -51 20s-21 29.666 -21 48.999c0 20 7 36.667 21 50s31 20 51 20s37 -6.66699 51 -20
s21 -30 21 -50c0 -19.333 -7 -35.666 -21 -48.999s-31 -20 -51 -20z" />
    <glyph glyph-name="Jcircumflex" unicode="&#x134;" horiz-adv-x="447" 
d="M148 -9c-30 0 -53.335 1.99902 -70.002 5.99902s-30.667 9 -42 15v104c12.667 -5.33301 25.834 -9.66602 39.501 -12.999s31.167 -5 52.5 -5c32.667 0 58.667 9.33301 78 28s29 50 29 94v495h134v-498c0 -38.667 -5.33301 -72.167 -16 -100.5s-25.667 -51.833 -45 -70.5
s-42.666 -32.5 -69.999 -41.5s-57.333 -13.5 -90 -13.5zM247.998 900.999h104l108 -135h-88l-74 55l-75 -55h-86z" />
    <glyph glyph-name="jcircumflex" unicode="&#x135;" horiz-adv-x="275" 
d="M3 -95c26.667 2 45.333 9.33691 56 22.0039s16 30 16 52v544h121v-541c0 -26.667 -3.33301 -50.334 -10 -71.001s-17.5 -38.334 -32.5 -53.001s-34.833 -25.834 -59.5 -33.501s-55 -11.834 -91 -12.501v93zM87.999 753.004h96l111 -151h-86l-75 68l-76 -68h-84z" />
    <glyph glyph-name="uni0136" unicode="&#x136;" horiz-adv-x="659" 
d="M82 715h133v-324l274 325h143l-296 -342l311 -374h-157l-275 334v-334h-133v715zM245 -198l52 165l111 -22l-92 -170z" />
    <glyph glyph-name="uni0137" unicode="&#x137;" horiz-adv-x="540" 
d="M72 765h121v-472l187 230h132l-203 -240l220 -283h-140l-196 257v-257h-121v765zM185 -198l52 165l111 -22l-92 -170z" />
    <glyph glyph-name="Lacute" unicode="&#x139;" horiz-adv-x="555" 
d="M82 715h133v-609h305v-106h-438v715zM153 901h136l-99 -135h-91z" />
    <glyph glyph-name="lacute" unicode="&#x13a;" horiz-adv-x="275" 
d="M75 765h121v-765h-121v765zM140 941h136l-99 -135h-91z" />
    <glyph glyph-name="uni013B" unicode="&#x13b;" horiz-adv-x="551" 
d="M82 715h133v-609h305v-106h-438v715zM203 -198l52 165l111 -22l-92 -170z" />
    <glyph glyph-name="uni013C" unicode="&#x13c;" horiz-adv-x="271" 
d="M75 765h121v-765h-121v765zM39 -198l52 165l111 -22l-92 -170z" />
    <glyph glyph-name="Lcaron" unicode="&#x13d;" horiz-adv-x="555" 
d="M333 715h115l-59 -165h-76zM82 715h133v-609h305v-106h-438v715z" />
    <glyph glyph-name="lcaron" unicode="&#x13e;" horiz-adv-x="275" 
d="M75 765h121v-765h-121v765zM250 765h110l-49 -175h-71z" />
    <glyph glyph-name="Ldot" unicode="&#x13f;" horiz-adv-x="565" 
d="M82 715h133v-609h305v-106h-438v715zM429 312c-22 0 -40.667 7.66699 -56 23s-23 34 -23 56s7.66699 40.5 23 55.5s34 22.5 56 22.5c22.667 0 41.667 -7.5 57 -22.5s23 -33.5 23 -55.5s-7.66699 -40.667 -23 -56s-34.333 -23 -57 -23z" />
    <glyph glyph-name="ldot" unicode="&#x140;" horiz-adv-x="382" 
d="M75 765h121v-765h-121v765zM322 285c-22 0 -40.667 7.66699 -56 23s-23 34 -23 56s7.66699 40.5 23 55.5s34 22.5 56 22.5c22.667 0 41.667 -7.5 57 -22.5s23 -33.5 23 -55.5s-7.66699 -40.667 -23 -56s-34.333 -23 -57 -23z" />
    <glyph glyph-name="Lslash" unicode="&#x141;" horiz-adv-x="574" 
d="M35 326l66 23v366h134v-318l191 69v-84l-191 -69v-207h305v-106h-439v265l-66 -23v84z" />
    <glyph glyph-name="lslash" unicode="&#x142;" horiz-adv-x="303" 
d="M19 379l70 37v349h121v-285l74 40v-88l-74 -40v-392h-121v328l-70 -37v88z" />
    <glyph glyph-name="Nacute" unicode="&#x143;" horiz-adv-x="749" 
d="M82 715h159l301 -517v517h121v-715h-138l-322 548v-548h-121v715zM387 901h136l-99 -135h-91z" />
    <glyph glyph-name="nacute" unicode="&#x144;" horiz-adv-x="612" 
d="M72 523h121.001v-83c12.667 25.333 33.167 47.333 61.5 66s64.166 28 107.499 28c26 0 50 -4 72 -12s41 -20.167 57 -36.5s28.333 -37.5 37 -63.5s13 -57 13 -93v-329h-121v318c0 40 -8.33301 69.167 -25 87.5s-43 27.5 -79 27.5c-34 0 -63 -10.5 -87 -31.5
s-36 -52.167 -36 -93.5v-308h-121v523zM312.001 756h134l-104 -155h-89z" />
    <glyph glyph-name="uni0145" unicode="&#x145;" horiz-adv-x="745" 
d="M82 715h159l301 -517v517h121v-715h-138l-322 548v-548h-121v715zM266 -198l52 165l111 -22l-92 -170z" />
    <glyph glyph-name="uni0146" unicode="&#x146;" horiz-adv-x="608" 
d="M72 523h121.001v-83c12.667 25.333 33.167 47.333 61.5 66s64.166 28 107.499 28c26 0 50 -4 72 -12s41 -20.167 57 -36.5s28.333 -37.5 37 -63.5s13 -57 13 -93v-329h-121v318c0 40 -8.33301 69.167 -25 87.5s-43 27.5 -79 27.5c-34 0 -63 -10.5 -87 -31.5
s-36 -52.167 -36 -93.5v-308h-121v523zM206.001 -198l52 165l111 -22l-92 -170z" />
    <glyph glyph-name="Ncaron" unicode="&#x147;" horiz-adv-x="749" 
d="M82 715h159l301 -517v517h121v-715h-138l-322 548v-548h-121v715zM223 901h88l75 -55l74 55h86l-110 -135h-105z" />
    <glyph glyph-name="ncaron" unicode="&#x148;" horiz-adv-x="612" 
d="M72 523h121.001v-83c12.667 25.333 33.167 47.333 61.5 66s64.166 28 107.499 28c26 0 50 -4 72 -12s41 -20.167 57 -36.5s28.333 -37.5 37 -63.5s13 -57 13 -93v-329h-121v318c0 40 -8.33301 69.167 -25 87.5s-43 27.5 -79 27.5c-34 0 -63 -10.5 -87 -31.5
s-36 -52.167 -36 -93.5v-308h-121v523zM142.001 753h87l75 -67l75 67h84l-113 -151h-96z" />
    <glyph glyph-name="napostrophe" unicode="&#x149;" horiz-adv-x="659" 
d="M118 523h121.001v-83c12.667 25.333 33.167 47.333 61.5 66s64.166 28 107.499 28c26 0 50 -4 72 -12s41 -20.167 57 -36.5s28.333 -37.5 37 -63.5s13 -57 13 -93v-329h-121v318c0 40 -8.33301 69.167 -25 87.5s-43 27.5 -79 27.5c-34 0 -63 -10.5 -87 -31.5
s-36 -52.167 -36 -93.5v-308h-121v523zM-38.999 496l86 231l109 -43l-124 -220z" />
    <glyph glyph-name="Eng" unicode="&#x14a;" horiz-adv-x="749" 
d="M448 -193c-28.667 0 -51.167 2.16699 -67.5 6.5s-30.166 9.16602 -41.499 14.499v101c12.667 -5.33301 25.5 -9.66602 38.5 -12.999s29.5 -5 49.5 -5c30 0 54.333 7.66699 73 23s29 39.333 31 72l-326 549v-555h-123v715h161l297 -507v507h123v-700
c0 -34.667 -5.16699 -65 -15.5 -91s-24.833 -47.667 -43.5 -65s-41.334 -30.333 -68.001 -39s-56 -13 -88 -13z" />
    <glyph glyph-name="eng" unicode="&#x14b;" horiz-adv-x="612" 
d="M349 -95c26.667 2 45.168 9.33691 55.501 22.0039s15.5 30 15.5 52v339c0 40 -8.33301 69.167 -25 87.5s-43 27.5 -79 27.5c-34 0 -63 -10.5 -87 -31.5s-36 -52.167 -36 -93.5v-308h-121v523h121v-83c12.667 25.333 33.167 47.333 61.5 66s64.166 28 107.499 28
c26 0 50 -4 72 -12s41 -20.167 57 -36.5s28.333 -37.5 37 -63.5s13 -57 13 -93v-347c0 -26.667 -3.33301 -50.334 -10 -71.001s-17.5 -38.334 -32.5 -53.001s-34.667 -25.834 -59 -33.501s-54.5 -11.834 -90.5 -12.501v93z" />
    <glyph glyph-name="Omacron" unicode="&#x14c;" horiz-adv-x="818" 
d="M410 97c34 0 64.499 6.16406 91.499 18.4971s50 29.833 69 52.5s33.667 49.834 44 81.501s15.5 66.834 15.5 105.501v8c0 36.667 -5 70.667 -15 102s-24.5 58.333 -43.5 81s-42.333 40.5 -70 53.5s-58.834 19.5 -93.501 19.5c-35.333 0 -66.666 -6.16699 -93.999 -18.5
s-50.666 -29.833 -69.999 -52.5s-34 -49.667 -44 -81s-15 -66.333 -15 -105v-8c0 -39.333 5.66699 -74.666 17 -105.999s27 -58.333 47 -81s43.667 -40 71 -52s57.333 -18 90 -18zM407.999 -10.0029c-54.667 0 -104.334 9.1709 -149.001 27.5039s-82.667 43.833 -114 76.5
s-55.666 71.167 -72.999 115.5s-26 92.166 -26 143.499v8c0 52 8.83301 100.333 26.5 145s42.5 83.167 74.5 115.5s70.167 57.666 114.5 75.999s93.166 27.5 146.499 27.5s102 -9 146 -27s81.833 -43 113.5 -75s56.334 -70 74.001 -114s26.5 -92.333 26.5 -145v-8
c0 -52 -8.5 -100.333 -25.5 -145s-41.333 -83.334 -73 -116.001s-69.667 -58.334 -114 -77.001s-93.5 -28 -147.5 -28zM261.999 861.001h288v-81h-288v81z" />
    <glyph glyph-name="omacron" unicode="&#x14d;" horiz-adv-x="615" 
d="M306 84c45.333 0 80.666 15.5 105.999 46.5s38 73.5 38 127.5v7c0 54 -12.667 96.5 -38 127.5s-60.666 46.5 -105.999 46.5s-80.833 -15.333 -106.5 -46s-38.5 -73 -38.5 -127v-8c0 -54 12.667 -96.5 38 -127.5s61 -46.5 107 -46.5zM305 -10
c-38.667 0 -74.333 6.33594 -107 19.0029s-61 30.667 -85 54s-42.667 51.333 -56 84s-20 69 -20 109v8c0 40.667 6.83301 77.5 20.5 110.5s32.5 61.333 56.5 85s52.333 42 85 55s68.334 19.5 107.001 19.5c38 0 73.333 -6.33301 106 -19s61 -30.834 85 -54.501
s42.833 -51.834 56.5 -84.501s20.5 -69 20.5 -109v-8c0 -40.667 -6.83301 -77.5 -20.5 -110.5s-32.5 -61.333 -56.5 -85s-52.333 -41.834 -85 -54.501s-68.334 -19 -107.001 -19zM165.001 712.003h280v-78h-280v78z" />
    <glyph glyph-name="Obreve" unicode="&#x14e;" horiz-adv-x="818" 
d="M410 97c34 0 64.499 6.16406 91.499 18.4971s50 29.833 69 52.5s33.667 49.834 44 81.501s15.5 66.834 15.5 105.501v8c0 36.667 -5 70.667 -15 102s-24.5 58.333 -43.5 81s-42.333 40.5 -70 53.5s-58.834 19.5 -93.501 19.5c-35.333 0 -66.666 -6.16699 -93.999 -18.5
s-50.666 -29.833 -69.999 -52.5s-34 -49.667 -44 -81s-15 -66.333 -15 -105v-8c0 -39.333 5.66699 -74.666 17 -105.999s27 -58.333 47 -81s43.667 -40 71 -52s57.333 -18 90 -18zM407.999 -10.0029c-54.667 0 -104.334 9.1709 -149.001 27.5039s-82.667 43.833 -114 76.5
s-55.666 71.167 -72.999 115.5s-26 92.166 -26 143.499v8c0 52 8.83301 100.333 26.5 145s42.5 83.167 74.5 115.5s70.167 57.666 114.5 75.999s93.166 27.5 146.499 27.5s102 -9 146 -27s81.833 -43 113.5 -75s56.334 -70 74.001 -114s26.5 -92.333 26.5 -145v-8
c0 -52 -8.5 -100.333 -25.5 -145s-41.333 -83.334 -73 -116.001s-69.667 -58.334 -114 -77.001s-93.5 -28 -147.5 -28zM404.999 761.001c-42 0 -76.167 12.832 -102.5 38.499s-40.5 59.5 -42.5 101.5h85c2.66699 -17.333 8.83398 -31 18.501 -41s23.5 -15 41.5 -15
s32.167 5 42.5 15s17.166 23.667 20.499 41h84c-1.33301 -20.667 -6 -39.667 -14 -57s-18.5 -32.166 -31.5 -44.499s-28.167 -21.833 -45.5 -28.5s-36 -10 -56 -10z" />
    <glyph glyph-name="obreve" unicode="&#x14f;" horiz-adv-x="615" 
d="M306 84c45.333 0 80.666 15.5 105.999 46.5s38 73.5 38 127.5v7c0 54 -12.667 96.5 -38 127.5s-60.666 46.5 -105.999 46.5s-80.833 -15.333 -106.5 -46s-38.5 -73 -38.5 -127v-8c0 -54 12.667 -96.5 38 -127.5s61 -46.5 107 -46.5zM305 -10
c-38.667 0 -74.333 6.33594 -107 19.0029s-61 30.667 -85 54s-42.667 51.333 -56 84s-20 69 -20 109v8c0 40.667 6.83301 77.5 20.5 110.5s32.5 61.333 56.5 85s52.333 42 85 55s68.334 19.5 107.001 19.5c38 0 73.333 -6.33301 106 -19s61 -30.834 85 -54.501
s42.833 -51.834 56.5 -84.501s20.5 -69 20.5 -109v-8c0 -40.667 -6.83301 -77.5 -20.5 -110.5s-32.5 -61.333 -56.5 -85s-52.333 -41.834 -85 -54.501s-68.334 -19 -107.001 -19zM304.001 606.003c-41.333 0 -75.1699 13.002 -101.503 39.002s-40.833 60.667 -43.5 104h84
c2.66699 -18 8.83398 -32.167 18.501 -42.5s23.834 -15.5 42.501 -15.5s33.334 5.16699 44.001 15.5s17.667 24.5 21 42.5h82c-1.33301 -21.333 -6 -40.833 -14 -58.5s-18.5 -32.834 -31.5 -45.501s-28.167 -22.334 -45.5 -29.001s-36 -10 -56 -10z" />
    <glyph glyph-name="Ohungarumlaut" unicode="&#x150;" horiz-adv-x="818" 
d="M410 97c34 0 64.499 6.16406 91.499 18.4971s50 29.833 69 52.5s33.667 49.834 44 81.501s15.5 66.834 15.5 105.501v8c0 36.667 -5 70.667 -15 102s-24.5 58.333 -43.5 81s-42.333 40.5 -70 53.5s-58.834 19.5 -93.501 19.5c-35.333 0 -66.666 -6.16699 -93.999 -18.5
s-50.666 -29.833 -69.999 -52.5s-34 -49.667 -44 -81s-15 -66.333 -15 -105v-8c0 -39.333 5.66699 -74.666 17 -105.999s27 -58.333 47 -81s43.667 -40 71 -52s57.333 -18 90 -18zM407.999 -10.0029c-54.667 0 -104.334 9.1709 -149.001 27.5039s-82.667 43.833 -114 76.5
s-55.666 71.167 -72.999 115.5s-26 92.166 -26 143.499v8c0 52 8.83301 100.333 26.5 145s42.5 83.167 74.5 115.5s70.167 57.666 114.5 75.999s93.166 27.5 146.499 27.5s102 -9 146 -27s81.833 -43 113.5 -75s56.334 -70 74.001 -114s26.5 -92.333 26.5 -145v-8
c0 -52 -8.5 -100.333 -25.5 -145s-41.333 -83.334 -73 -116.001s-69.667 -58.334 -114 -77.001s-93.5 -28 -147.5 -28zM309.999 901.001h118l-73 -135h-83zM479.999 901.001h118l-73 -135h-83z" />
    <glyph glyph-name="ohungarumlaut" unicode="&#x151;" horiz-adv-x="615" 
d="M306 84c45.333 0 80.666 15.5 105.999 46.5s38 73.5 38 127.5v7c0 54 -12.667 96.5 -38 127.5s-60.666 46.5 -105.999 46.5s-80.833 -15.333 -106.5 -46s-38.5 -73 -38.5 -127v-8c0 -54 12.667 -96.5 38 -127.5s61 -46.5 107 -46.5zM305 -10
c-38.667 0 -74.333 6.33594 -107 19.0029s-61 30.667 -85 54s-42.667 51.333 -56 84s-20 69 -20 109v8c0 40.667 6.83301 77.5 20.5 110.5s32.5 61.333 56.5 85s52.333 42 85 55s68.334 19.5 107.001 19.5c38 0 73.333 -6.33301 106 -19s61 -30.834 85 -54.501
s42.833 -51.834 56.5 -84.501s20.5 -69 20.5 -109v-8c0 -40.667 -6.83301 -77.5 -20.5 -110.5s-32.5 -61.333 -56.5 -85s-52.333 -41.834 -85 -54.501s-68.334 -19 -107.001 -19zM218.001 756.003h113l-76 -155h-78zM381.001 756.003h113l-76 -155h-78z" />
    <glyph glyph-name="OE" unicode="&#x152;" horiz-adv-x="968" 
d="M46 359c0 52 7.66504 99.833 22.998 143.5s38.333 81.167 69 112.5s69.167 55.833 115.5 73.5s100.833 26.5 163.5 26.5h493v-105h-299v-196h236v-100h-236v-209h316v-105h-512c-62 0 -116.167 8.5 -162.5 25.5s-84.666 40.833 -114.999 71.5s-53.166 67.5 -68.499 110.5
s-23 90.5 -23 142.5v9zM419.998 610c-80 0 -139.167 -21.835 -177.5 -65.502s-57.5 -105.167 -57.5 -184.5v-8c0 -38.667 4.5 -73.167 13.5 -103.5s23 -56.166 42 -77.499s43.5 -37.666 73.5 -48.999s66 -17 108 -17h56v505h-58z" />
    <glyph glyph-name="oe" unicode="&#x153;" horiz-adv-x="995" 
d="M305 -10c-38.667 0 -74.333 6.33398 -107 19.001s-61 30.667 -85 54s-42.667 51.333 -56 84s-20 69 -20 109v8c0 40.667 6.83301 77.5 20.5 110.5s32.5 61.333 56.5 85s52.333 42 85 55s68.334 19.5 107.001 19.5c45.333 0 85.333 -9 120 -27s62.667 -43.333 84 -76
c21.333 32.667 48.666 58 81.999 76s72 27 116 27c32.667 0 63.834 -5 93.501 -15s56 -25.667 79 -47s41.333 -48.666 55 -81.999s20.5 -73.333 20.5 -120v-35h-384c2 -50 15.167 -88.333 39.5 -115s59.5 -40 105.5 -40c36 0 63.667 7 83 21s31.666 33.667 36.999 59h116
c-8.66699 -55.333 -34 -97.5 -76 -126.5s-96.333 -43.5 -163 -43.5c-46 0 -86.333 8.66699 -121 26s-62.667 42.666 -84 75.999c-21.333 -32.667 -49.5 -57.834 -84.5 -75.501s-74.833 -26.5 -119.5 -26.5zM306.001 84.001c45.333 0 80.666 15.667 105.999 47
s38 73.333 38 126v8c0 54 -12.667 96.5 -38 127.5s-60.666 46.5 -105.999 46.5s-80.833 -15.333 -106.5 -46s-38.5 -73 -38.5 -127v-8c0 -54 12.667 -96.5 38 -127.5s61 -46.5 107 -46.5zM835.001 316.001c-3.33301 45.333 -15.833 78.333 -37.5 99s-51.5 31 -89.5 31
c-36 0 -65.833 -11.5 -89.5 -34.5s-38.5 -54.833 -44.5 -95.5h261z" />
    <glyph glyph-name="Racute" unicode="&#x154;" horiz-adv-x="659" 
d="M82 715h239.997c39.333 0 75.333 -4.16699 108 -12.5s60.834 -21 84.501 -38s42 -38.667 55 -65s19.5 -57.833 19.5 -94.5v-4c0 -28 -4.16699 -52.667 -12.5 -74s-19.666 -39.833 -33.999 -55.5s-31.166 -28.5 -50.499 -38.5s-40 -18 -62 -24l201 -309h-144l-187 289h-85
v-289h-133v715zM321.997 384c90.667 0 136 38 136 114v4c0 41.333 -12 70 -36 86s-57.333 24 -100 24h-107v-228h107zM321.997 901h136l-99 -135h-91z" />
    <glyph glyph-name="racute" unicode="&#x155;" horiz-adv-x="401" 
d="M72 523h121.001v-98c16.667 33.333 38.167 59.166 64.5 77.499s61.5 27.833 105.5 28.5v-113c-26.667 0 -50.5 -2.5 -71.5 -7.5s-38.833 -13.167 -53.5 -24.5s-25.834 -26.166 -33.501 -44.499s-11.5 -41.5 -11.5 -69.5v-272h-121v523zM225.001 756h134l-104 -155h-89z
" />
    <glyph glyph-name="uni0156" unicode="&#x156;" horiz-adv-x="655" 
d="M82 715h239.997c39.333 0 75.333 -4.16699 108 -12.5s60.834 -21 84.501 -38s42 -38.667 55 -65s19.5 -57.833 19.5 -94.5v-4c0 -28 -4.16699 -52.667 -12.5 -74s-19.666 -39.833 -33.999 -55.5s-31.166 -28.5 -50.499 -38.5s-40 -18 -62 -24l201 -309h-144l-187 289h-85
v-289h-133v715zM321.997 384c90.667 0 136 38 136 114v4c0 41.333 -12 70 -36 86s-57.333 24 -100 24h-107v-228h107zM234.997 -198l52 165l111 -22l-92 -170z" />
    <glyph glyph-name="uni0157" unicode="&#x157;" horiz-adv-x="397" 
d="M72 523h121.001v-98c16.667 33.333 38.167 59.166 64.5 77.499s61.5 27.833 105.5 28.5v-113c-26.667 0 -50.5 -2.5 -71.5 -7.5s-38.833 -13.167 -53.5 -24.5s-25.834 -26.166 -33.501 -44.499s-11.5 -41.5 -11.5 -69.5v-272h-121v523zM35.001 -198l52 165l111 -22
l-92 -170z" />
    <glyph glyph-name="Rcaron" unicode="&#x158;" horiz-adv-x="659" 
d="M82 715h239.997c39.333 0 75.333 -4.16699 108 -12.5s60.834 -21 84.501 -38s42 -38.667 55 -65s19.5 -57.833 19.5 -94.5v-4c0 -28 -4.16699 -52.667 -12.5 -74s-19.666 -39.833 -33.999 -55.5s-31.166 -28.5 -50.499 -38.5s-40 -18 -62 -24l201 -309h-144l-187 289h-85
v-289h-133v715zM321.997 384c90.667 0 136 38 136 114v4c0 41.333 -12 70 -36 86s-57.333 24 -100 24h-107v-228h107zM157.997 901h88l75 -55l74 55h86l-110 -135h-105z" />
    <glyph glyph-name="rcaron" unicode="&#x159;" horiz-adv-x="401" 
d="M72 523h121.001v-98c16.667 33.333 38.167 59.166 64.5 77.499s61.5 27.833 105.5 28.5v-113c-26.667 0 -50.5 -2.5 -71.5 -7.5s-38.833 -13.167 -53.5 -24.5s-25.834 -26.166 -33.501 -44.499s-11.5 -41.5 -11.5 -69.5v-272h-121v523zM55.001 753h87l75 -67l75 67h84
l-113 -151h-96z" />
    <glyph glyph-name="Sacute" unicode="&#x15a;" horiz-adv-x="639" 
d="M325 -10c-48.667 0 -90.502 5.83496 -125.502 17.502s-64 27.667 -87 48s-40.5 44.666 -52.5 72.999s-19.333 59.5 -22 93.5h128c2 -18 5.83301 -35 11.5 -51s14.334 -30 26.001 -42s27.334 -21.5 47.001 -28.5s44.5 -10.5 74.5 -10.5c40 0 72.5 10 97.5 30
s37.5 46.667 37.5 80c0 16.667 -2.33301 30.834 -7 42.501s-12.667 21.667 -24 30s-26.666 15.5 -45.999 21.5s-43.333 11.333 -72 16c-42.667 6 -79.834 13.833 -111.501 23.5s-57.834 22.667 -78.501 39s-36.167 36.5 -46.5 60.5s-15.5 52.667 -15.5 86
c0 29.333 6 56.5 18 81.5s28.833 46.667 50.5 65s47.834 32.666 78.501 42.999s64.667 15.5 102 15.5c77.333 0 138.166 -17.333 182.499 -52s70.166 -86.334 77.499 -155.001h-122c-6.66699 38 -21 65.333 -43 82s-53.667 25 -95 25
c-40.667 0 -71.334 -8.66699 -92.001 -26s-31 -40 -31 -68c0 -14.667 1.83301 -27.5 5.5 -38.5s11 -20.667 22 -29s26 -15.5 45 -21.5s44.167 -11.333 75.5 -16c42 -6 78.833 -13.667 110.5 -23s58.334 -22.333 80.001 -39s37.834 -37.167 48.501 -61.5s16 -54.5 16 -90.5
c0 -31.333 -6.33301 -60.333 -19 -87s-30.5 -50 -53.5 -70s-50.667 -35.667 -83 -47s-68.166 -17 -107.499 -17zM310.998 901.002h136l-99 -135h-91z" />
    <glyph glyph-name="sacute" unicode="&#x15b;" horiz-adv-x="498" 
d="M251 -10c-68 0 -120.831 14.8311 -158.498 44.498s-57.834 72.5 -60.501 128.5h114c3.33301 -26.667 12.5 -47.334 27.5 -62.001s40.5 -22 76.5 -22c32.667 0 56.5 5.66699 71.5 17s22.5 28 22.5 50c0 21.333 -9 37 -27 47s-46.333 18.333 -85 25
c-34.667 5.33301 -64 12 -88 20s-43.5 18.333 -58.5 31s-25.833 27.667 -32.5 45s-10 38.333 -10 63c0 26 5.66699 48.833 17 68.5s26.166 36 44.499 49s39.166 22.833 62.499 29.5s47.333 10 72 10c26.667 0 51.834 -2.66699 75.501 -8s44.5 -14.166 62.5 -26.499
s32.833 -28.666 44.5 -48.999s19.167 -45.166 22.5 -74.499h-112c-5.33301 24 -15.166 41.667 -29.499 53s-35.5 17 -63.5 17c-26 0 -46.333 -5.66699 -61 -17s-22 -26.333 -22 -45c0 -9.33301 1.66699 -17.5 5 -24.5s9.16602 -13 17.499 -18s19.5 -9.5 33.5 -13.5
s31.333 -7.66699 52 -11c30.667 -4.66699 58.167 -10.5 82.5 -17.5s44.833 -16.333 61.5 -28s29.5 -26.667 38.5 -45s13.5 -41.5 13.5 -69.5c0 -53.333 -18 -94.5 -54 -123.5s-87.667 -43.5 -155 -43.5zM254.002 755.998h134l-104 -155h-89z" />
    <glyph glyph-name="Scircumflex" unicode="&#x15c;" horiz-adv-x="639" 
d="M325 -10c-48.667 0 -90.502 5.83496 -125.502 17.502s-64 27.667 -87 48s-40.5 44.666 -52.5 72.999s-19.333 59.5 -22 93.5h128c2 -18 5.83301 -35 11.5 -51s14.334 -30 26.001 -42s27.334 -21.5 47.001 -28.5s44.5 -10.5 74.5 -10.5c40 0 72.5 10 97.5 30
s37.5 46.667 37.5 80c0 16.667 -2.33301 30.834 -7 42.501s-12.667 21.667 -24 30s-26.666 15.5 -45.999 21.5s-43.333 11.333 -72 16c-42.667 6 -79.834 13.833 -111.501 23.5s-57.834 22.667 -78.501 39s-36.167 36.5 -46.5 60.5s-15.5 52.667 -15.5 86
c0 29.333 6 56.5 18 81.5s28.833 46.667 50.5 65s47.834 32.666 78.501 42.999s64.667 15.5 102 15.5c77.333 0 138.166 -17.333 182.499 -52s70.166 -86.334 77.499 -155.001h-122c-6.66699 38 -21 65.333 -43 82s-53.667 25 -95 25
c-40.667 0 -71.334 -8.66699 -92.001 -26s-31 -40 -31 -68c0 -14.667 1.83301 -27.5 5.5 -38.5s11 -20.667 22 -29s26 -15.5 45 -21.5s44.167 -11.333 75.5 -16c42 -6 78.833 -13.667 110.5 -23s58.334 -22.333 80.001 -39s37.834 -37.167 48.501 -61.5s16 -54.5 16 -90.5
c0 -31.333 -6.33301 -60.333 -19 -87s-30.5 -50 -53.5 -70s-50.667 -35.667 -83 -47s-68.166 -17 -107.499 -17zM257.998 901.002h104l108 -135h-88l-74 55l-75 -55h-86z" />
    <glyph glyph-name="scircumflex" unicode="&#x15d;" horiz-adv-x="498" 
d="M251 -10c-68 0 -120.831 14.8311 -158.498 44.498s-57.834 72.5 -60.501 128.5h114c3.33301 -26.667 12.5 -47.334 27.5 -62.001s40.5 -22 76.5 -22c32.667 0 56.5 5.66699 71.5 17s22.5 28 22.5 50c0 21.333 -9 37 -27 47s-46.333 18.333 -85 25
c-34.667 5.33301 -64 12 -88 20s-43.5 18.333 -58.5 31s-25.833 27.667 -32.5 45s-10 38.333 -10 63c0 26 5.66699 48.833 17 68.5s26.166 36 44.499 49s39.166 22.833 62.499 29.5s47.333 10 72 10c26.667 0 51.834 -2.66699 75.501 -8s44.5 -14.166 62.5 -26.499
s32.833 -28.666 44.5 -48.999s19.167 -45.166 22.5 -74.499h-112c-5.33301 24 -15.166 41.667 -29.499 53s-35.5 17 -63.5 17c-26 0 -46.333 -5.66699 -61 -17s-22 -26.333 -22 -45c0 -9.33301 1.66699 -17.5 5 -24.5s9.16602 -13 17.499 -18s19.5 -9.5 33.5 -13.5
s31.333 -7.66699 52 -11c30.667 -4.66699 58.167 -10.5 82.5 -17.5s44.833 -16.333 61.5 -28s29.5 -26.667 38.5 -45s13.5 -41.5 13.5 -69.5c0 -53.333 -18 -94.5 -54 -123.5s-87.667 -43.5 -155 -43.5zM197.002 752.998h96l111 -151h-86l-75 68l-76 -68h-84z" />
    <glyph glyph-name="uni015E" unicode="&#x15e;" horiz-adv-x="635" 
d="M295 -219c-32 0 -57.501 7.83691 -76.501 23.5039s-30.167 37.167 -33.5 64.5h66c1.33301 -8.66699 5.33301 -16.334 12 -23.001s16 -10 28 -10c11.333 0 20.333 3.16699 27 9.5s10 14.5 10 24.5c0 9.33301 -3.16699 17 -9.5 23s-14.833 9 -25.5 9
c-7.33301 0 -13.333 -1 -18 -3s-8.66699 -4 -12 -6l-34 32l40 68c-38.667 4 -72 12.5 -100 25.5s-51.333 29.5 -70 49.5s-33 43.167 -43 69.5s-16 54.5 -18 84.5h128c2 -18 5.83301 -35 11.5 -51s14.334 -30 26.001 -42s27.334 -21.5 47.001 -28.5s44.5 -10.5 74.5 -10.5
c40 0 72.5 10 97.5 30s37.5 46.667 37.5 80c0 16.667 -2.33301 30.834 -7 42.501s-12.667 21.667 -24 30s-26.666 15.5 -45.999 21.5s-43.333 11.333 -72 16c-42.667 6 -79.834 13.833 -111.501 23.5s-57.834 22.667 -78.501 39s-36.167 36.5 -46.5 60.5
s-15.5 52.667 -15.5 86c0 29.333 6 56.5 18 81.5s28.833 46.667 50.5 65s47.834 32.666 78.501 42.999s64.667 15.5 102 15.5c77.333 0 138.166 -17.333 182.499 -52s70.166 -86.334 77.499 -155.001h-122c-6.66699 38 -21 65.333 -43 82s-53.667 25 -95 25
c-40.667 0 -71.334 -8.66699 -92.001 -26s-31 -40 -31 -68c0 -14.667 1.83301 -27.5 5.5 -38.5s11 -20.667 22 -29s26 -15.5 45 -21.5s44.167 -11.333 75.5 -16c42 -6 78.833 -13.667 110.5 -23s58.334 -22.333 80.001 -39s37.834 -37.167 48.501 -61.5s16 -54.5 16 -90.5
c0 -31.333 -6.16699 -60.333 -18.5 -87s-30 -49.834 -53 -69.501s-50.5 -35.334 -82.5 -47.001s-67.667 -17.5 -107 -17.5l-23 -40c12.667 1.33301 25 0.833008 37 -1.5s22.667 -7 32 -14s16.833 -16 22.5 -27s8.5 -24.5 8.5 -40.5c0 -28 -10.333 -49.333 -31 -64
s-46.667 -22 -78 -22z" />
    <glyph glyph-name="uni015F" unicode="&#x15f;" horiz-adv-x="494" 
d="M232 -219c-32 0 -57.499 7.83203 -76.499 23.499s-30.167 37.167 -33.5 64.5h66c1.33301 -8.66699 5.33301 -16.334 12 -23.001s16 -10 28 -10c11.333 0 20.333 3.16699 27 9.5s10 14.5 10 24.5c0 9.33301 -3.16699 17 -9.5 23s-14.833 9 -25.5 9
c-7.33301 0 -13.333 -1 -18 -3s-8.66699 -4 -12 -6l-34 32l39 68c-54 6 -95.833 23.5 -125.5 52.5s-45.5 68.167 -47.5 117.5h114c3.33301 -26.667 12.5 -47.334 27.5 -62.001s40.5 -22 76.5 -22c32.667 0 56.5 5.66699 71.5 17s22.5 28 22.5 50c0 21.333 -9 37 -27 47
s-46.333 18.333 -85 25c-34.667 5.33301 -64 12 -88 20s-43.5 18.333 -58.5 31s-25.833 27.667 -32.5 45s-10 38.333 -10 63c0 26 5.66699 48.833 17 68.5s26.166 36 44.499 49s39.166 22.833 62.499 29.5s47.333 10 72 10c26.667 0 51.834 -2.66699 75.501 -8
s44.5 -14.166 62.5 -26.499s32.833 -28.666 44.5 -48.999s19.167 -45.166 22.5 -74.499h-112c-5.33301 24 -15.166 41.667 -29.499 53s-35.5 17 -63.5 17c-26 0 -46.333 -5.66699 -61 -17s-22 -26.333 -22 -45c0 -9.33301 1.66699 -17.5 5 -24.5s9.16602 -13 17.499 -18
s19.5 -9.5 33.5 -13.5s31.333 -7.66699 52 -11c30.667 -4.66699 58.167 -10.5 82.5 -17.5s44.833 -16.333 61.5 -28s29.5 -26.667 38.5 -45s13.5 -41.5 13.5 -69.5c0 -52 -16.833 -92.333 -50.5 -121s-82.167 -44 -145.5 -46l-23 -40c12.667 1.33301 25 0.833008 37 -1.5
s22.667 -7 32 -14s16.833 -16 22.5 -27s8.5 -24.5 8.5 -40.5c0 -28 -10.333 -49.333 -31 -64s-46.667 -22 -78 -22z" />
    <glyph glyph-name="Scaron" unicode="&#x160;" horiz-adv-x="639" 
d="M325 -10c-48.667 0 -90.502 5.83496 -125.502 17.502s-64 27.667 -87 48s-40.5 44.666 -52.5 72.999s-19.333 59.5 -22 93.5h128c2 -18 5.83301 -35 11.5 -51s14.334 -30 26.001 -42s27.334 -21.5 47.001 -28.5s44.5 -10.5 74.5 -10.5c40 0 72.5 10 97.5 30
s37.5 46.667 37.5 80c0 16.667 -2.33301 30.834 -7 42.501s-12.667 21.667 -24 30s-26.666 15.5 -45.999 21.5s-43.333 11.333 -72 16c-42.667 6 -79.834 13.833 -111.501 23.5s-57.834 22.667 -78.501 39s-36.167 36.5 -46.5 60.5s-15.5 52.667 -15.5 86
c0 29.333 6 56.5 18 81.5s28.833 46.667 50.5 65s47.834 32.666 78.501 42.999s64.667 15.5 102 15.5c77.333 0 138.166 -17.333 182.499 -52s70.166 -86.334 77.499 -155.001h-122c-6.66699 38 -21 65.333 -43 82s-53.667 25 -95 25
c-40.667 0 -71.334 -8.66699 -92.001 -26s-31 -40 -31 -68c0 -14.667 1.83301 -27.5 5.5 -38.5s11 -20.667 22 -29s26 -15.5 45 -21.5s44.167 -11.333 75.5 -16c42 -6 78.833 -13.667 110.5 -23s58.334 -22.333 80.001 -39s37.834 -37.167 48.501 -61.5s16 -54.5 16 -90.5
c0 -31.333 -6.33301 -60.333 -19 -87s-30.5 -50 -53.5 -70s-50.667 -35.667 -83 -47s-68.166 -17 -107.499 -17zM146.998 901.002h88l75 -55l74 55h86l-110 -135h-105z" />
    <glyph glyph-name="scaron" unicode="&#x161;" horiz-adv-x="498" 
d="M251 -10c-68 0 -120.831 14.8311 -158.498 44.498s-57.834 72.5 -60.501 128.5h114c3.33301 -26.667 12.5 -47.334 27.5 -62.001s40.5 -22 76.5 -22c32.667 0 56.5 5.66699 71.5 17s22.5 28 22.5 50c0 21.333 -9 37 -27 47s-46.333 18.333 -85 25
c-34.667 5.33301 -64 12 -88 20s-43.5 18.333 -58.5 31s-25.833 27.667 -32.5 45s-10 38.333 -10 63c0 26 5.66699 48.833 17 68.5s26.166 36 44.499 49s39.166 22.833 62.499 29.5s47.333 10 72 10c26.667 0 51.834 -2.66699 75.501 -8s44.5 -14.166 62.5 -26.499
s32.833 -28.666 44.5 -48.999s19.167 -45.166 22.5 -74.499h-112c-5.33301 24 -15.166 41.667 -29.499 53s-35.5 17 -63.5 17c-26 0 -46.333 -5.66699 -61 -17s-22 -26.333 -22 -45c0 -9.33301 1.66699 -17.5 5 -24.5s9.16602 -13 17.499 -18s19.5 -9.5 33.5 -13.5
s31.333 -7.66699 52 -11c30.667 -4.66699 58.167 -10.5 82.5 -17.5s44.833 -16.333 61.5 -28s29.5 -26.667 38.5 -45s13.5 -41.5 13.5 -69.5c0 -53.333 -18 -94.5 -54 -123.5s-87.667 -43.5 -155 -43.5zM82.002 752.998h87l75 -67l75 67h84l-113 -151h-96z" />
    <glyph glyph-name="Tcommaaccent" unicode="&#x162;" horiz-adv-x="588" 
d="M225 610h-199v105h532v-105h-199v-610h-134v610zM194 -198l52 165l111 -22l-92 -170z" />
    <glyph glyph-name="tcommaaccent" unicode="&#x163;" horiz-adv-x="373" 
d="M250 -9c-52 0 -91.333 13.333 -118 40s-40 65 -40 115v286h-70v91h70v115h121v-115h115v-91h-115v-275c0 -23.333 5.16699 -40.333 15.5 -51s25.166 -16 44.499 -16c23.333 0 43 3.33301 59 10v-96c-9.33301 -3.33301 -20.666 -6.33301 -33.999 -9s-29.333 -4 -48 -4z
M102 -198l52 165l111 -22l-92 -170z" />
    <glyph glyph-name="Tcaron" unicode="&#x164;" horiz-adv-x="587" 
d="M225 610h-199v105h532v-105h-199v-610h-134v610zM129 901h88l75 -55l74 55h86l-110 -135h-105z" />
    <glyph glyph-name="tcaron" unicode="&#x165;" horiz-adv-x="373" 
d="M250 -9c-52 0 -91.333 13.333 -118 40s-40 65 -40 115v286h-70v91h70v115h121v-115h115v-91h-115v-275c0 -23.333 5.16699 -40.333 15.5 -51s25.166 -16 44.499 -16c23.333 0 43 3.33301 59 10v-96c-9.33301 -3.33301 -20.666 -6.33301 -33.999 -9s-29.333 -4 -48 -4z
M285 765h110l-49 -175h-71z" />
    <glyph glyph-name="Tbar" unicode="&#x166;" horiz-adv-x="587" 
d="M87 405h138v205h-199v105h532v-105h-199v-205h137v-90h-137v-315h-134v315h-138v90z" />
    <glyph glyph-name="tbar" unicode="&#x167;" horiz-adv-x="373" 
d="M22 336h69.999v97h-70v90h70v115h121v-115h114v-90h-114v-97h114v-75h-114v-104c0 -45.333 20 -68 60 -68c12 0 22.667 1 32 3s18.333 4.66699 27 8v-96c-9.33301 -3.33301 -20.666 -6.33301 -33.999 -9s-29.333 -4 -48 -4c-52 0 -91.333 13.333 -118 40s-40 65 -40 115
v115h-70v75z" />
    <glyph glyph-name="Utilde" unicode="&#x168;" horiz-adv-x="727" 
d="M357 -10c-90 0 -159.333 23.832 -208 71.499s-73 117.834 -73 210.501v443h134v-433c0 -66 11.333 -113.333 34 -142s60.667 -43 114 -43c26 0 48.667 3.16699 68 9.5s35.5 17 48.5 32s22.667 34.833 29 59.5s9.5 55.667 9.5 93v424h134v-435
c0 -94 -24.5 -165.833 -73.5 -215.5s-121.167 -74.5 -216.5 -74.5zM418 767.999c-12 0 -23.1641 2 -33.4971 6s-20.166 8.5 -29.499 13.5l-26 13.5c-8 4 -15.667 6 -23 6c-9.33301 0 -17.333 -3.83301 -24 -11.5s-11 -17.167 -13 -28.5h-76c3.33301 42 15.333 74.333 36 97
s45 34 73 34c11.333 0 22.166 -2.16699 32.499 -6.5s20.166 -9 29.499 -14s18.166 -9.5 26.499 -13.5s16.5 -6 24.5 -6c9.33301 0 17.166 3.83301 23.499 11.5s10.5 17.167 12.5 28.5h77c-4 -42 -16.333 -74.167 -37 -96.5s-45 -33.5 -73 -33.5z" />
    <glyph glyph-name="utilde" unicode="&#x169;" horiz-adv-x="609" 
d="M247 -10c-26 0 -50.001 3.83301 -72.001 11.5s-41 19.5 -57 35.5s-28.5 36.5 -37.5 61.5s-13.5 54.833 -13.5 89.5v335h121v-321c0 -40 8.33301 -69.167 25 -87.5s42.667 -27.5 78 -27.5c16 0 31.5 2.66699 46.5 8s28 13.166 39 23.499s19.833 23.333 26.5 39
s10 33.834 10 54.501v311h121v-523h-121v82c-13.333 -25.333 -33.666 -47 -60.999 -65s-62.333 -27 -105 -27zM359.999 606c-12 0 -23.165 2 -33.498 6s-20 8.5 -29 13.5l-25.5 14c-8 4.33301 -15.667 6.5 -23 6.5c-9.33301 0 -17.333 -3.83301 -24 -11.5
s-11 -17.167 -13 -28.5h-75c4 42 15.833 74.333 35.5 97s43.5 34 71.5 34c11.333 0 22.166 -2 32.499 -6s20 -8.5 29 -13.5s17.667 -9.5 26 -13.5s16.5 -6 24.5 -6c9.33301 0 17.166 3.66699 23.499 11s10.5 17 12.5 29h75c-4 -42 -15.833 -74.5 -35.5 -97.5
s-43.5 -34.5 -71.5 -34.5z" />
    <glyph glyph-name="Umacron" unicode="&#x16a;" horiz-adv-x="727" 
d="M357 -10c-90 0 -159.333 23.832 -208 71.499s-73 117.834 -73 210.501v443h134v-433c0 -66 11.333 -113.333 34 -142s60.667 -43 114 -43c26 0 48.667 3.16699 68 9.5s35.5 17 48.5 32s22.667 34.833 29 59.5s9.5 55.667 9.5 93v424h134v-435
c0 -94 -24.5 -165.833 -73.5 -215.5s-121.167 -74.5 -216.5 -74.5zM216 860.999h288v-81h-288v81z" />
    <glyph glyph-name="umacron" unicode="&#x16b;" horiz-adv-x="609" 
d="M247 -10c-26 0 -50.001 3.83301 -72.001 11.5s-41 19.5 -57 35.5s-28.5 36.5 -37.5 61.5s-13.5 54.833 -13.5 89.5v335h121v-321c0 -40 8.33301 -69.167 25 -87.5s42.667 -27.5 78 -27.5c16 0 31.5 2.66699 46.5 8s28 13.166 39 23.499s19.833 23.333 26.5 39
s10 33.834 10 54.501v311h121v-523h-121v82c-13.333 -25.333 -33.666 -47 -60.999 -65s-62.333 -27 -105 -27zM161.999 712h280v-78h-280v78z" />
    <glyph glyph-name="Ubreve" unicode="&#x16c;" horiz-adv-x="727" 
d="M357 -10c-90 0 -159.333 23.832 -208 71.499s-73 117.834 -73 210.501v443h134v-433c0 -66 11.333 -113.333 34 -142s60.667 -43 114 -43c26 0 48.667 3.16699 68 9.5s35.5 17 48.5 32s22.667 34.833 29 59.5s9.5 55.667 9.5 93v424h134v-435
c0 -94 -24.5 -165.833 -73.5 -215.5s-121.167 -74.5 -216.5 -74.5zM359 760.999c-42 0 -76.167 12.832 -102.5 38.499s-40.5 59.5 -42.5 101.5h85c2.66699 -17.333 8.83398 -31 18.501 -41s23.5 -15 41.5 -15s32.167 5 42.5 15s17.166 23.667 20.499 41h84
c-1.33301 -20.667 -6 -39.667 -14 -57s-18.5 -32.166 -31.5 -44.499s-28.167 -21.833 -45.5 -28.5s-36 -10 -56 -10z" />
    <glyph glyph-name="ubreve" unicode="&#x16d;" horiz-adv-x="609" 
d="M247 -10c-26 0 -50.001 3.83301 -72.001 11.5s-41 19.5 -57 35.5s-28.5 36.5 -37.5 61.5s-13.5 54.833 -13.5 89.5v335h121v-321c0 -40 8.33301 -69.167 25 -87.5s42.667 -27.5 78 -27.5c16 0 31.5 2.66699 46.5 8s28 13.166 39 23.499s19.833 23.333 26.5 39
s10 33.834 10 54.501v311h121v-523h-121v82c-13.333 -25.333 -33.666 -47 -60.999 -65s-62.333 -27 -105 -27zM300.999 606c-41.333 0 -75.1699 13.002 -101.503 39.002s-40.833 60.667 -43.5 104h84c2.66699 -18 8.83398 -32.167 18.501 -42.5s23.834 -15.5 42.501 -15.5
s33.334 5.16699 44.001 15.5s17.667 24.5 21 42.5h82c-1.33301 -21.333 -6 -40.833 -14 -58.5s-18.5 -32.834 -31.5 -45.501s-28.167 -22.334 -45.5 -29.001s-36 -10 -56 -10z" />
    <glyph glyph-name="Uring" unicode="&#x16e;" horiz-adv-x="727" 
d="M357 -10c-90 0 -159.333 23.832 -208 71.499s-73 117.834 -73 210.501v443h134v-433c0 -66 11.333 -113.333 34 -142s60.667 -43 114 -43c26 0 48.667 3.16699 68 9.5s35.5 17 48.5 32s22.667 34.833 29 59.5s9.5 55.667 9.5 93v424h134v-435
c0 -94 -24.5 -165.833 -73.5 -215.5s-121.167 -74.5 -216.5 -74.5zM360 786.999c14.667 0 26.667 5.16699 36 15.5s14 23.5 14 39.5s-4.66699 29.167 -14 39.5s-21.333 15.5 -36 15.5c-15.333 0 -27.5 -5.16699 -36.5 -15.5s-13.5 -23.5 -13.5 -39.5s4.5 -29.167 13.5 -39.5
s21.167 -15.5 36.5 -15.5zM360 732.999c-15.333 0 -29.833 2.83301 -43.5 8.5s-25.5 13.5 -35.5 23.5s-18 21.5 -24 34.5s-9 27.167 -9 42.5c0 14.667 3 28.667 9 42s14 25 24 35s21.833 17.833 35.5 23.5s28.167 8.5 43.5 8.5s29.833 -2.83301 43.5 -8.5
s25.5 -13.5 35.5 -23.5s18 -21.667 24 -35s9 -27.333 9 -42c0 -15.333 -3 -29.5 -9 -42.5s-14 -24.5 -24 -34.5s-21.833 -17.833 -35.5 -23.5s-28.167 -8.5 -43.5 -8.5z" />
    <glyph glyph-name="uring" unicode="&#x16f;" horiz-adv-x="609" 
d="M247 -10c-26 0 -50.001 3.83301 -72.001 11.5s-41 19.5 -57 35.5s-28.5 36.5 -37.5 61.5s-13.5 54.833 -13.5 89.5v335h121v-321c0 -40 8.33301 -69.167 25 -87.5s42.667 -27.5 78 -27.5c16 0 31.5 2.66699 46.5 8s28 13.166 39 23.499s19.833 23.333 26.5 39
s10 33.834 10 54.501v311h121v-523h-121v82c-13.333 -25.333 -33.666 -47 -60.999 -65s-62.333 -27 -105 -27zM298.999 616c14.667 0 26.667 5.33301 36 16s14 23.667 14 39c0 16 -4.66699 29.167 -14 39.5s-21.333 15.5 -36 15.5s-26.667 -5.16699 -36 -15.5
s-14 -23.5 -14 -39.5c0 -15.333 4.66699 -28.333 14 -39s21.333 -16 36 -16zM298.999 563c-15.333 0 -29.666 2.83301 -42.999 8.5s-25 13.5 -35 23.5s-18 21.5 -24 34.5s-9 26.833 -9 41.5s3 28.5 9 41.5s14 24.5 24 34.5s21.667 17.833 35 23.5s27.666 8.5 42.999 8.5
s29.666 -2.83301 42.999 -8.5s25 -13.5 35 -23.5s18 -21.5 24 -34.5s9 -26.833 9 -41.5s-3 -28.5 -9 -41.5s-14 -24.5 -24 -34.5s-21.667 -17.833 -35 -23.5s-27.666 -8.5 -42.999 -8.5z" />
    <glyph glyph-name="Uhungarumlaut" unicode="&#x170;" horiz-adv-x="727" 
d="M357 -10c-90 0 -159.333 23.832 -208 71.499s-73 117.834 -73 210.501v443h134v-433c0 -66 11.333 -113.333 34 -142s60.667 -43 114 -43c26 0 48.667 3.16699 68 9.5s35.5 17 48.5 32s22.667 34.833 29 59.5s9.5 55.667 9.5 93v424h134v-435
c0 -94 -24.5 -165.833 -73.5 -215.5s-121.167 -74.5 -216.5 -74.5zM264 900.999h118l-73 -135h-83zM434 900.999h118l-73 -135h-83z" />
    <glyph glyph-name="uhungarumlaut" unicode="&#x171;" horiz-adv-x="609" 
d="M247 -10c-26 0 -50.001 3.83301 -72.001 11.5s-41 19.5 -57 35.5s-28.5 36.5 -37.5 61.5s-13.5 54.833 -13.5 89.5v335h121v-321c0 -40 8.33301 -69.167 25 -87.5s42.667 -27.5 78 -27.5c16 0 31.5 2.66699 46.5 8s28 13.166 39 23.499s19.833 23.333 26.5 39
s10 33.834 10 54.501v311h121v-523h-121v82c-13.333 -25.333 -33.666 -47 -60.999 -65s-62.333 -27 -105 -27zM214.999 756h113l-76 -155h-78zM377.999 756h113l-76 -155h-78z" />
    <glyph glyph-name="Uogonek" unicode="&#x172;" horiz-adv-x="727" 
d="M398 -182c-33.333 0 -60 7.00195 -80 21.002s-30 33.667 -30 59c0 19.333 6.16699 36.833 18.5 52.5s27.166 28.834 44.499 39.501c-88 0.666992 -155.833 25 -203.5 73s-71.5 117.667 -71.5 209v443h134v-433c0 -66 11.333 -113.333 34 -142s60.667 -43 114 -43
c26 0 48.667 3.16699 68 9.5s35.5 17 48.5 32s22.667 34.833 29 59.5s9.5 55.667 9.5 93v424h134v-435c0 -66.667 -12.333 -121.834 -37 -165.501s-59.667 -75.834 -105 -96.501l-42.5 -20.5c-13 -6.33301 -24.5 -13 -34.5 -20s-17.833 -14.833 -23.5 -23.5
s-8.5 -18.334 -8.5 -29.001c0 -22 11.667 -33 35 -33c16.667 0 31 3 43 9v-69c-8.66699 -4 -19.167 -7.33301 -31.5 -10s-27.166 -4 -44.499 -4z" />
    <glyph glyph-name="uogonek" unicode="&#x173;" horiz-adv-x="609" 
d="M469 -182c-32.667 0 -59.001 7.16699 -79.001 21.5s-30 34.166 -30 59.499c0 22.667 8.33301 42.5 25 59.5s35.667 30.833 57 41.5h-29v82c-13.333 -25.333 -33.666 -47 -60.999 -65s-62.333 -27 -105 -27c-26 0 -50 3.83301 -72 11.5s-41 19.5 -57 35.5
s-28.5 36.5 -37.5 61.5s-13.5 54.833 -13.5 89.5v335h121v-321c0 -40 8.33301 -69.167 25 -87.5s42.667 -27.5 78 -27.5c16 0 31.5 2.66699 46.5 8s28 13.166 39 23.499s19.833 23.333 26.5 39s10 33.834 10 54.501v311h121v-515c-24.667 -16.667 -42.167 -31.667 -52.5 -45
s-15.5 -26.666 -15.5 -39.999c0 -22 11.667 -33 35 -33c16.667 0 31 3 43 9v-67c-8.66699 -4 -19 -7.33301 -31 -10s-26.667 -4 -44 -4z" />
    <glyph glyph-name="Wcircumflex" unicode="&#x174;" horiz-adv-x="959" 
d="M26 715h136l124 -525l139 525h110l142 -528l128 528h124l-179 -715h-133l-141 521l-145 -521h-127zM426 901h104l108 -135h-88l-74 55l-75 -55h-86z" />
    <glyph glyph-name="wcircumflex" unicode="&#x175;" horiz-adv-x="818" 
d="M20 523h129l104 -378l111 378h101l102 -378l109 378h118l-164 -523h-123l-97 352l-106 -352h-124zM359 753h96l111 -151h-86l-75 68l-76 -68h-84z" />
    <glyph glyph-name="Ycircumflex" unicode="&#x176;" horiz-adv-x="633" 
d="M254 310l-237 405h147l161 -296l157 296h130l-224 -406v-309h-134v310zM266 901h104l108 -135h-88l-74 55l-75 -55h-86z" />
    <glyph glyph-name="ycircumflex" unicode="&#x177;" horiz-adv-x="557" 
d="M225 53l-207 470h131l139 -337l128 337h118l-285 -702h-119zM232 753h96l111 -151h-86l-75 68l-76 -68h-84z" />
    <glyph glyph-name="Ydieresis" unicode="&#x178;" horiz-adv-x="633" 
d="M254 310l-237 405h147l161 -296l157 296h130l-224 -406v-309h-134v310zM211 777c-18 0 -33.5 6.33301 -46.5 19s-19.5 28 -19.5 46s6.5 33.333 19.5 46s28.5 19 46.5 19s33.5 -6.33301 46.5 -19s19.5 -28 19.5 -46s-6.5 -33.333 -19.5 -46s-28.5 -19 -46.5 -19zM422 777
c-18 0 -33.5 6.33301 -46.5 19s-19.5 28 -19.5 46s6.5 33.333 19.5 46s28.5 19 46.5 19s33.5 -6.33301 46.5 -19s19.5 -28 19.5 -46s-6.5 -33.333 -19.5 -46s-28.5 -19 -46.5 -19z" />
    <glyph glyph-name="Zacute" unicode="&#x179;" horiz-adv-x="612" 
d="M22 18l365 592h-328v105h516v-17l-357 -591h347v-107h-543v18zM307 901h136l-99 -135h-91z" />
    <glyph glyph-name="zacute" unicode="&#x17a;" horiz-adv-x="497" 
d="M17 14l277 413h-250v96h429v-17l-276 -409h268v-97h-448v14zM261 756h134l-104 -155h-89z" />
    <glyph glyph-name="Zdotaccent" unicode="&#x17b;" horiz-adv-x="612" 
d="M22 18l365 592h-328v105h516v-17l-357 -591h347v-107h-543v18zM305 775c-20 0 -36.833 6.66699 -50.5 20s-20.5 29.666 -20.5 48.999s6.83301 35.5 20.5 48.5s30.5 19.5 50.5 19.5c19.333 0 36 -6.5 50 -19.5s21 -29.167 21 -48.5s-7 -35.666 -21 -48.999
s-30.667 -20 -50 -20z" />
    <glyph glyph-name="zdotaccent" unicode="&#x17c;" horiz-adv-x="497" 
d="M17 14l277 413h-250v96h429v-17l-276 -409h268v-97h-448v14zM253 611c-20 0 -36.833 6.66699 -50.5 20s-20.5 29.666 -20.5 48.999s6.83301 35.5 20.5 48.5s30.5 19.5 50.5 19.5c19.333 0 36 -6.5 50 -19.5s21 -29.167 21 -48.5s-7 -35.666 -21 -48.999
s-30.667 -20 -50 -20z" />
    <glyph glyph-name="Zcaron" unicode="&#x17d;" horiz-adv-x="612" 
d="M22 18l365 592h-328v105h516v-17l-357 -591h347v-107h-543v18zM143 901h88l75 -55l74 55h86l-110 -135h-105z" />
    <glyph glyph-name="zcaron" unicode="&#x17e;" horiz-adv-x="497" 
d="M17 14l277 413h-250v96h429v-17l-276 -409h268v-97h-448v14zM91 753h87l75 -67l75 67h84l-113 -151h-96z" />
    <glyph glyph-name="uni0192" unicode="&#x192;" horiz-adv-x="417" 
d="M27 414h94l21 141c8.66699 58 29 100.667 61 128s74.667 41 128 41c15.333 0 28.5 -0.833008 39.5 -2.5s21.833 -4.5 32.5 -8.5v-95c-7.33301 3.33301 -15.833 5.83301 -25.5 7.5s-21.167 2.5 -34.5 2.5c-25.333 0 -44.5 -7.5 -57.5 -22.5s-21.167 -34.833 -24.5 -59.5
l-20 -132h125v-90h-138l-75 -506h-120l75 506h-81v90z" />
    <glyph glyph-name="Aringacute" unicode="&#x1fa;" horiz-adv-x="707" 
d="M266 715h174l236 -715h-138l-57 177h-273l-56 -177h-125zM239 274h211l-105 332zM356 800c14.667 0 26.667 5.16699 36 15.5s14 23.5 14 39.5s-4.66699 29.167 -14 39.5s-21.333 15.5 -36 15.5c-15.333 0 -27.5 -5.16699 -36.5 -15.5s-13.5 -23.5 -13.5 -39.5
s4.5 -29.167 13.5 -39.5s21.167 -15.5 36.5 -15.5zM356 746c-15.333 0 -29.833 2.83301 -43.5 8.5s-25.5 13.5 -35.5 23.5s-18 21.5 -24 34.5s-9 27.167 -9 42.5c0 14.667 3 28.667 9 42s14 25 24 35s21.833 17.833 35.5 23.5s28.167 8.5 43.5 8.5
s29.833 -2.83301 43.5 -8.5s25.5 -13.5 35.5 -23.5s18 -21.667 24 -35s9 -27.333 9 -42c0 -15.333 -3 -29.5 -9 -42.5s-14 -24.5 -24 -34.5s-21.833 -17.833 -35.5 -23.5s-28.167 -8.5 -43.5 -8.5zM363 1123h136l-99 -135h-91z" />
    <glyph glyph-name="aringacute" unicode="&#x1fb;" horiz-adv-x="559" 
d="M209 -10c-24 0 -46.667 3 -68 9s-39.833 15.167 -55.5 27.5s-28.167 28.333 -37.5 48s-14 43.167 -14 70.5c0 30.667 7 56.5 21 77.5s33 38 57 51s52.333 22.5 85 28.5s67.667 9 105 9h65v27c0 35.333 -6.83301 61.666 -20.5 78.999s-38.5 26 -74.5 26
c-32 0 -55.833 -7.16699 -71.5 -21.5s-25.167 -34.5 -28.5 -60.5h-117c2.66699 30.667 10.334 56.834 23.001 78.501s29 39.5 49 53.5s43 24.333 69 31s53.667 10 83 10s56.666 -3.16699 81.999 -9.5s47.5 -17 66.5 -32s33.833 -34.667 44.5 -59s16 -54.5 16 -90.5v-343
h-119v64c-17.333 -22.667 -38.333 -40.667 -63 -54s-57 -20 -97 -20zM238 77c37.333 0 68.167 9.16699 92.5 27.5s36.5 44.5 36.5 78.5v52h-62c-46 0 -82.667 -6.16699 -110 -18.5s-41 -34.5 -41 -66.5c0 -22 6.5 -39.667 19.5 -53s34.5 -20 64.5 -20zM280.001 629
c14.667 0 26.667 5.33301 36 16s14 23.667 14 39c0 16 -4.66699 29.167 -14 39.5s-21.333 15.5 -36 15.5s-26.667 -5.16699 -36 -15.5s-14 -23.5 -14 -39.5c0 -15.333 4.66699 -28.333 14 -39s21.333 -16 36 -16zM280.001 576c-15.333 0 -29.666 2.83301 -42.999 8.5
s-25 13.5 -35 23.5s-18 21.5 -24 34.5s-9 26.833 -9 41.5s3 28.5 9 41.5s14 24.5 24 34.5s21.667 17.833 35 23.5s27.666 8.5 42.999 8.5s29.666 -2.83301 42.999 -8.5s25 -13.5 35 -23.5s18 -21.5 24 -34.5s9 -26.833 9 -41.5s-3 -28.5 -9 -41.5s-14 -24.5 -24 -34.5
s-21.667 -17.833 -35 -23.5s-27.666 -8.5 -42.999 -8.5zM294.001 963h136l-99 -135h-91z" />
    <glyph glyph-name="AEacute" unicode="&#x1fc;" horiz-adv-x="975" 
d="M373 715h543v-105h-312v-196h250v-100h-250v-209h329v-105h-462v183h-232l-87 -183h-130zM285 278h186v332h-27zM613 901h136l-99 -135h-91z" />
    <glyph glyph-name="aeacute" unicode="&#x1fd;" horiz-adv-x="895" 
d="M620 -10c-45.333 0 -84.6699 8.66699 -118.003 26s-60.333 42 -81 74c-23.333 -34 -50.833 -59.167 -82.5 -75.5s-72.5 -24.5 -122.5 -24.5c-25.333 0 -49 3 -71 9s-41.333 15.167 -58 27.5s-29.667 28.333 -39 48s-14 43.167 -14 70.5c0 30.667 6.83301 56.667 20.5 78
s32.5 38.666 56.5 51.999s52.167 22.833 84.5 28.5s67.166 8.5 104.499 8.5h68v26c0 35.333 -7.33301 61.666 -22 78.999s-39 26 -73 26c-61.333 0 -95 -27.333 -101 -82h-117c2.66699 30.667 10.334 56.834 23.001 78.501s28.834 39.5 48.501 53.5s42.334 24.333 68.001 31
s52.834 10 81.501 10c38 0 71.167 -5.66699 99.5 -17s50.5 -31 66.5 -59c20.667 24 45.5 42.667 74.5 56s61.833 20 98.5 20c31.333 0 61.5 -4.83301 90.5 -14.5s54.667 -25.167 77 -46.5s40.166 -48.666 53.499 -81.999s20 -74.333 20 -123v-33h-372
c2 -48.667 14.333 -86.667 37 -114s56 -41 100 -41c35.333 0 62.333 7 81 21s30.334 33.667 35.001 59h116c-8.66699 -55.333 -33.5 -97.5 -74.5 -126.5s-93.833 -43.5 -158.5 -43.5zM238.996 77c38 0 69 9.16602 93 27.499s36 44.5 36 78.5v51h-65
c-45.333 0 -81.5 -5.66699 -108.5 -17s-40.5 -33 -40.5 -65c0 -23.333 6.5 -41.666 19.5 -54.999s34.833 -20 65.5 -20zM735.996 311.999c-3.33301 47.333 -15.333 81.5 -36 102.5s-49 31.5 -85 31.5c-35.333 0 -64.333 -11.667 -87 -35s-36.667 -56.333 -42 -99h250z
M462.996 755.999h134l-104 -155h-89z" />
    <glyph glyph-name="Oslashacute" unicode="&#x1fe;" horiz-adv-x="818" 
d="M34 18l90.999 98.0029c-25.333 32 -44.833 68 -58.5 108s-20.5 83 -20.5 129v8c0 52 8.83301 100.167 26.5 144.5s42.5 82.666 74.5 114.999s70.167 57.666 114.5 75.999s93.166 27.5 146.499 27.5c42.667 0 82.334 -5.83301 119.001 -17.5s70 -28.167 100 -49.5l78 84
l50 -50l-75 -81c28 -32 49.833 -68.667 65.5 -110s23.5 -86.666 23.5 -135.999v-8c0 -52 -8.66699 -100.333 -26 -145s-41.666 -83.334 -72.999 -116.001s-69.333 -58.334 -114 -77.001s-94 -28 -148 -28c-46.667 0 -89.5 6.66699 -128.5 20s-73.5 32 -103.5 56l-92 -99z
M408.999 97.0029c34 0 64.833 6.16602 92.5 18.499s51 29.833 70 52.5s33.667 49.834 44 81.501s15.5 67.167 15.5 106.5v8c0 60.667 -12.333 112 -37 154l-336 -364c40 -38 90.333 -57 151 -57zM183.999 354.002c0 -54.667 10.333 -101.667 31 -141l333 359
c-37.333 31.333 -84 47 -140 47c-35.333 0 -66.833 -6.16699 -94.5 -18.5s-51.167 -29.833 -70.5 -52.5s-34 -49.667 -44 -81s-15 -66.333 -15 -105v-8zM408.999 901.002h136l-99 -135h-91z" />
    <glyph glyph-name="oslashacute" unicode="&#x1ff;" horiz-adv-x="615" 
d="M22 4l73 79.002c-18.667 22.667 -33 48.5 -43 77.5s-15 60.833 -15 95.5v8c0 40.667 6.83301 77.5 20.5 110.5s32.5 61.333 56.5 85s52.333 42 85 55s68.334 19.5 107.001 19.5c60.667 0 113.667 -16 159 -48l67 73l47 -42l-67 -73
c19.333 -22.667 34.5 -48.834 45.5 -78.501s16.5 -62.5 16.5 -98.5v-8c0 -40.667 -6.83301 -77.5 -20.5 -110.5s-32.5 -61.333 -56.5 -85s-52.333 -41.834 -85 -54.501s-68.334 -19 -107.001 -19c-32 0 -61.833 4.33301 -89.5 13s-52.5 21 -74.5 37l-72 -78zM306 84.002
c46 0 81.667 15.5 107 46.5s38 73.167 38 126.5v8c0 36 -6 67 -18 93l-222 -241c24 -22 55.667 -33 95 -33zM161 258.002c0 -32 4.66699 -61 14 -87l220 239c-25.333 20 -55 30 -89 30c-45.333 0 -80.833 -15.5 -106.5 -46.5s-38.5 -73.5 -38.5 -127.5v-8zM313 756.002h134
l-104 -155h-89z" />
    <glyph glyph-name="uni0218" unicode="&#x218;" horiz-adv-x="636" 
d="M325 -10c-48.667 0 -90.502 5.83496 -125.502 17.502s-64 27.667 -87 48s-40.5 44.666 -52.5 72.999s-19.333 59.5 -22 93.5h128c2 -18 5.83301 -35 11.5 -51s14.334 -30 26.001 -42s27.334 -21.5 47.001 -28.5s44.5 -10.5 74.5 -10.5c40 0 72.5 10 97.5 30
s37.5 46.667 37.5 80c0 16.667 -2.33301 30.834 -7 42.501s-12.667 21.667 -24 30s-26.666 15.5 -45.999 21.5s-43.333 11.333 -72 16c-42.667 6 -79.834 13.833 -111.501 23.5s-57.834 22.667 -78.501 39s-36.167 36.5 -46.5 60.5s-15.5 52.667 -15.5 86
c0 29.333 6 56.5 18 81.5s28.833 46.667 50.5 65s47.834 32.666 78.501 42.999s64.667 15.5 102 15.5c77.333 0 138.166 -17.333 182.499 -52s70.166 -86.334 77.499 -155.001h-122c-6.66699 38 -21 65.333 -43 82s-53.667 25 -95 25
c-40.667 0 -71.334 -8.66699 -92.001 -26s-31 -40 -31 -68c0 -14.667 1.83301 -27.5 5.5 -38.5s11 -20.667 22 -29s26 -15.5 45 -21.5s44.167 -11.333 75.5 -16c42 -6 78.833 -13.667 110.5 -23s58.334 -22.333 80.001 -39s37.834 -37.167 48.501 -61.5s16 -54.5 16 -90.5
c0 -31.333 -6.33301 -60.333 -19 -87s-30.5 -50 -53.5 -70s-50.667 -35.667 -83 -47s-68.166 -17 -107.499 -17zM211.998 -197.998l52 165l111 -22l-92 -170z" />
    <glyph glyph-name="uni0219" unicode="&#x219;" horiz-adv-x="494" 
d="M251 -10c-68 0 -120.831 14.8311 -158.498 44.498s-57.834 72.5 -60.501 128.5h114c3.33301 -26.667 12.5 -47.334 27.5 -62.001s40.5 -22 76.5 -22c32.667 0 56.5 5.66699 71.5 17s22.5 28 22.5 50c0 21.333 -9 37 -27 47s-46.333 18.333 -85 25
c-34.667 5.33301 -64 12 -88 20s-43.5 18.333 -58.5 31s-25.833 27.667 -32.5 45s-10 38.333 -10 63c0 26 5.66699 48.833 17 68.5s26.166 36 44.499 49s39.166 22.833 62.499 29.5s47.333 10 72 10c26.667 0 51.834 -2.66699 75.501 -8s44.5 -14.166 62.5 -26.499
s32.833 -28.666 44.5 -48.999s19.167 -45.166 22.5 -74.499h-112c-5.33301 24 -15.166 41.667 -29.499 53s-35.5 17 -63.5 17c-26 0 -46.333 -5.66699 -61 -17s-22 -26.333 -22 -45c0 -9.33301 1.66699 -17.5 5 -24.5s9.16602 -13 17.499 -18s19.5 -9.5 33.5 -13.5
s31.333 -7.66699 52 -11c30.667 -4.66699 58.167 -10.5 82.5 -17.5s44.833 -16.333 61.5 -28s29.5 -26.667 38.5 -45s13.5 -41.5 13.5 -69.5c0 -53.333 -18 -94.5 -54 -123.5s-87.667 -43.5 -155 -43.5zM147.002 -198.002l52 165l111 -22l-92 -170z" />
    <glyph glyph-name="uni021A" unicode="&#x21a;" horiz-adv-x="588" 
d="M225 610h-199v105h532v-105h-199v-610h-134v610zM194 -198l52 165l111 -22l-92 -170z" />
    <glyph glyph-name="uni021B" unicode="&#x21b;" horiz-adv-x="373" 
d="M250 -9c-52 0 -91.333 13.333 -118 40s-40 65 -40 115v286h-70v91h70v115h121v-115h115v-91h-115v-275c0 -23.333 5.16699 -40.333 15.5 -51s25.166 -16 44.499 -16c23.333 0 43 3.33301 59 10v-96c-9.33301 -3.33301 -20.666 -6.33301 -33.999 -9s-29.333 -4 -48 -4z
M102 -198l52 165l111 -22l-92 -170z" />
    <glyph glyph-name="uni0237" unicode="&#x237;" horiz-adv-x="275" 
d="M3 -95c26.667 2 45.333 9.33691 56 22.0039s16 30 16 52v544h121v-541c0 -26.667 -3.33301 -50.334 -10 -71.001s-17.5 -38.334 -32.5 -53.001s-34.833 -25.834 -59.5 -33.501s-55 -11.834 -91 -12.501v93z" />
    <glyph glyph-name="uni02BC" unicode="&#x2bc;" horiz-adv-x="281" 
d="M45 496l86 231l109 -43l-124 -220z" />
    <glyph glyph-name="circumflex" unicode="&#x2c6;" horiz-adv-x="404" 
d="M153 753h96l111 -151h-86l-75 68l-76 -68h-84z" />
    <glyph glyph-name="caron" unicode="&#x2c7;" horiz-adv-x="404" 
d="M39 753h87l75 -67l75 67h84l-113 -151h-96z" />
    <glyph glyph-name="breve" unicode="&#x2d8;" horiz-adv-x="404" 
d="M199 606c-41.333 0 -75.1699 13.002 -101.503 39.002s-40.833 60.667 -43.5 104h84c2.66699 -18 8.83398 -32.167 18.501 -42.5s23.834 -15.5 42.501 -15.5s33.334 5.16699 44.001 15.5s17.667 24.5 21 42.5h82c-1.33301 -21.333 -6 -40.833 -14 -58.5
s-18.5 -32.834 -31.5 -45.501s-28.167 -22.334 -45.5 -29.001s-36 -10 -56 -10z" />
    <glyph glyph-name="dotaccent" unicode="&#x2d9;" horiz-adv-x="404" 
d="M200 611c-20 0 -36.833 6.66699 -50.5 20s-20.5 29.666 -20.5 48.999s6.83301 35.5 20.5 48.5s30.5 19.5 50.5 19.5c19.333 0 36 -6.5 50 -19.5s21 -29.167 21 -48.5s-7 -35.666 -21 -48.999s-30.667 -20 -50 -20z" />
    <glyph glyph-name="ring" unicode="&#x2da;" horiz-adv-x="404" 
d="M200 643c14.667 0 26.667 5.33301 36 16s14 23.667 14 39c0 16 -4.66699 29.167 -14 39.5s-21.333 15.5 -36 15.5s-26.667 -5.16699 -36 -15.5s-14 -23.5 -14 -39.5c0 -15.333 4.66699 -28.333 14 -39s21.333 -16 36 -16zM200 590c-15.333 0 -29.666 2.83301 -42.999 8.5
s-25 13.5 -35 23.5s-18 21.5 -24 34.5s-9 26.833 -9 41.5s3 28.5 9 41.5s14 24.5 24 34.5s21.667 17.833 35 23.5s27.666 8.5 42.999 8.5s29.666 -2.83301 42.999 -8.5s25 -13.5 35 -23.5s18 -21.5 24 -34.5s9 -26.833 9 -41.5s-3 -28.5 -9 -41.5s-14 -24.5 -24 -34.5
s-21.667 -17.833 -35 -23.5s-27.666 -8.5 -42.999 -8.5z" />
    <glyph glyph-name="ogonek" unicode="&#x2db;" horiz-adv-x="404" 
d="M213 -182c-32 0 -58.167 6.83203 -78.5 20.499s-30.5 33.167 -30.5 58.5c0 23.333 8.33301 43.666 25 60.999s35.667 31.333 57 42h82c-19.333 -13.333 -33.833 -26.166 -43.5 -38.499s-14.5 -25.166 -14.5 -38.499c0 -22 11.667 -33 35 -33c16.667 0 31 3 43 9v-67
c-8.66699 -4 -19.167 -7.33301 -31.5 -10s-26.833 -4 -43.5 -4z" />
    <glyph glyph-name="tilde" unicode="&#x2dc;" horiz-adv-x="404" 
d="M258 606c-12 0 -23.165 2 -33.498 6s-20 8.5 -29 13.5l-25.5 14c-8 4.33301 -15.667 6.5 -23 6.5c-9.33301 0 -17.333 -3.83301 -24 -11.5s-11 -17.167 -13 -28.5h-75c4 42 15.833 74.333 35.5 97s43.5 34 71.5 34c11.333 0 22.166 -2 32.499 -6s20 -8.5 29 -13.5
s17.667 -9.5 26 -13.5s16.5 -6 24.5 -6c9.33301 0 17.166 3.66699 23.499 11s10.5 17 12.5 29h75c-4 -42 -15.833 -74.5 -35.5 -97.5s-43.5 -34.5 -71.5 -34.5z" />
    <glyph glyph-name="hungarumlaut" unicode="&#x2dd;" horiz-adv-x="404" 
d="M121 756h113l-76 -155h-78zM284 756h113l-76 -155h-78z" />
    <glyph glyph-name="uni037E" unicode="&#x37e;" horiz-adv-x="303" 
d="M17 -90l91 237l114 -46l-131 -224zM163 285c-22.667 0 -41.667 7.66699 -57 23s-23 34 -23 56s7.66699 40.5 23 55.5s34.333 22.5 57 22.5c22 0 40.833 -7.5 56.5 -22.5s23.5 -33.5 23.5 -55.5s-7.83301 -40.667 -23.5 -56s-34.5 -23 -56.5 -23z" />
    <glyph glyph-name="uni0401" unicode="&#x401;" horiz-adv-x="584" 
d="M82 715h447v-105h-314v-196h252v-100h-252v-209h331v-105h-464v715zM207 777c-18 0 -33.5 6.33301 -46.5 19s-19.5 28 -19.5 46s6.5 33.333 19.5 46s28.5 19 46.5 19s33.5 -6.33301 46.5 -19s19.5 -28 19.5 -46s-6.5 -33.333 -19.5 -46s-28.5 -19 -46.5 -19zM418 777
c-18 0 -33.5 6.33301 -46.5 19s-19.5 28 -19.5 46s6.5 33.333 19.5 46s28.5 19 46.5 19s33.5 -6.33301 46.5 -19s19.5 -28 19.5 -46s-6.5 -33.333 -19.5 -46s-28.5 -19 -46.5 -19z" />
    <glyph glyph-name="uni0402" unicode="&#x402;" horiz-adv-x="795" 
d="M359 385c4.66699 4.66699 11.8271 10.167 21.4941 16.5s21.667 12.5 36 18.5s30.833 11 49.5 15s40 6 64 6c74.667 0 130.667 -20.333 168 -61s56 -96 56 -166c0 -39.333 -4.66699 -73.166 -14 -101.499s-22.5 -52 -39.5 -71s-37.667 -33 -62 -42
s-51.166 -13.5 -80.499 -13.5c-23.333 0 -42.166 2 -56.499 6s-26.833 8.66699 -37.5 14v104c7.33301 -3.33301 16.333 -7 27 -11s25 -6 43 -6c26.667 0 47.834 9.66699 63.501 29s23.5 49.666 23.5 90.999c0 38 -9.33301 68 -28 90s-51.667 33 -99 33
c-17.333 0 -33.166 -2.16699 -47.499 -6.5s-27.166 -9.5 -38.499 -15.5s-21.166 -12.5 -29.499 -19.5s-14.833 -13.5 -19.5 -19.5v-275h-134v610h-199v105h538v-105h-205v-225z" />
    <glyph glyph-name="uni0403" unicode="&#x403;" horiz-adv-x="549" 
d="M82 715h433v-107h-299v-608h-134v715zM305 901h136l-99 -135h-91z" />
    <glyph glyph-name="uni0404" unicode="&#x404;" horiz-adv-x="741" 
d="M708 248c-6 -43.333 -17.6689 -80.9971 -35.002 -112.997s-39.5 -58.833 -66.5 -80.5s-58.333 -37.834 -94 -48.501s-74.834 -16 -117.501 -16c-56 0 -105.667 8.66699 -149 26s-79.833 41.666 -109.5 72.999s-52.167 69.333 -67.5 114s-23 94.667 -23 150v8
c0 54 8.66699 103.333 26 148s41.5 83 72.5 115s67.667 57 110 75s88.5 27 138.5 27c40.667 0 78.834 -5 114.501 -15s67 -25.333 94 -46s49 -46.5 66 -77.5s27.833 -67.5 32.5 -109.5h-135c-7.33301 47.333 -24.666 82.833 -51.999 106.5s-67 35.5 -119 35.5
c-56 0 -102.167 -18 -138.5 -54s-58.166 -86.333 -65.499 -151h302v-102h-303c5.33301 -68.667 25.833 -121.834 61.5 -159.501s83.834 -56.5 144.501 -56.5c50 0 91.167 12.5 123.5 37.5s52.166 62.833 59.499 113.5h130z" />
    <glyph glyph-name="uni0405" unicode="&#x405;" horiz-adv-x="635" 
d="M325 -10c-48.667 0 -90.502 5.83496 -125.502 17.502s-64 27.667 -87 48s-40.5 44.666 -52.5 72.999s-19.333 59.5 -22 93.5h128c2 -18 5.83301 -35 11.5 -51s14.334 -30 26.001 -42s27.334 -21.5 47.001 -28.5s44.5 -10.5 74.5 -10.5c40 0 72.5 10 97.5 30
s37.5 46.667 37.5 80c0 16.667 -2.33301 30.834 -7 42.501s-12.667 21.667 -24 30s-26.666 15.5 -45.999 21.5s-43.333 11.333 -72 16c-42.667 6 -79.834 13.833 -111.501 23.5s-57.834 22.667 -78.501 39s-36.167 36.5 -46.5 60.5s-15.5 52.667 -15.5 86
c0 29.333 6 56.5 18 81.5s28.833 46.667 50.5 65s47.834 32.666 78.501 42.999s64.667 15.5 102 15.5c77.333 0 138.166 -17.333 182.499 -52s70.166 -86.334 77.499 -155.001h-122c-6.66699 38 -21 65.333 -43 82s-53.667 25 -95 25
c-40.667 0 -71.334 -8.66699 -92.001 -26s-31 -40 -31 -68c0 -14.667 1.83301 -27.5 5.5 -38.5s11 -20.667 22 -29s26 -15.5 45 -21.5s44.167 -11.333 75.5 -16c42 -6 78.833 -13.667 110.5 -23s58.334 -22.333 80.001 -39s37.834 -37.167 48.501 -61.5s16 -54.5 16 -90.5
c0 -31.333 -6.33301 -60.333 -19 -87s-30.5 -50 -53.5 -70s-50.667 -35.667 -83 -47s-68.166 -17 -107.499 -17z" />
    <glyph glyph-name="uni0406" unicode="&#x406;" horiz-adv-x="307" 
d="M86 715h134v-715h-134v715z" />
    <glyph glyph-name="uni0407" unicode="&#x407;" horiz-adv-x="307" 
d="M86 715h134v-715h-134v715zM47 777c-18 0 -33.5 6.33301 -46.5 19s-19.5 28 -19.5 46s6.5 33.333 19.5 46s28.5 19 46.5 19s33.5 -6.33301 46.5 -19s19.5 -28 19.5 -46s-6.5 -33.333 -19.5 -46s-28.5 -19 -46.5 -19zM258 777c-18 0 -33.5 6.33301 -46.5 19
s-19.5 28 -19.5 46s6.5 33.333 19.5 46s28.5 19 46.5 19s33.5 -6.33301 46.5 -19s19.5 -28 19.5 -46s-6.5 -33.333 -19.5 -46s-28.5 -19 -46.5 -19z" />
    <glyph glyph-name="uni0408" unicode="&#x408;" horiz-adv-x="443" 
d="M148 -9c-30 0 -53.335 1.99902 -70.002 5.99902s-30.667 9 -42 15v104c12.667 -5.33301 25.834 -9.66602 39.501 -12.999s31.167 -5 52.5 -5c32.667 0 58.667 9.33301 78 28s29 50 29 94v495h134v-498c0 -38.667 -5.33301 -72.167 -16 -100.5s-25.667 -51.833 -45 -70.5
s-42.666 -32.5 -69.999 -41.5s-57.333 -13.5 -90 -13.5z" />
    <glyph glyph-name="uni0409" unicode="&#x409;" horiz-adv-x="1011" 
d="M493 608l-214 -0.00390625c-0.666992 -22 -1.33398 -46.167 -2.00098 -72.5s-1.5 -53.666 -2.5 -81.999s-2.33301 -57.166 -4 -86.499s-3.5 -57.666 -5.5 -84.999c-2.66699 -41.333 -7.66699 -79.833 -15 -115.5s-18.166 -66.5 -32.499 -92.5s-33.333 -46.5 -57 -61.5
s-52.834 -22.5 -87.501 -22.5c-16 0 -28.333 1.66699 -37 5c-5.33301 1.33301 -9.66602 3 -12.999 5v114l8 -2c6.66699 -1.33301 14.667 -2 24 -2c28 0 48.667 15.167 62 45.5s22.666 75.833 27.999 136.5c2.66699 36 4.83398 73.833 6.50098 113.5s3 78.5 4 116.5
s1.66699 73.667 2 107s0.5 62 0.5 86h468v-275h91c38 0 73 -4.16699 105 -12.5s59.5 -21.166 82.5 -38.499s41 -39.5 54 -66.5s19.5 -59.5 19.5 -97.5v-4c0 -37.333 -6.33301 -69.833 -19 -97.5s-30.5 -50.667 -53.5 -69s-50.667 -32 -83 -41s-68.5 -13.5 -108.5 -13.5h-221
v608zM714 102.996c42 0 75 9 99 27s36 48.667 36 92v4c0 40 -11.5 69.5 -34.5 88.5s-56.5 28.5 -100.5 28.5h-88v-240h88z" />
    <glyph glyph-name="uni040A" unicode="&#x40a;" horiz-adv-x="1035" 
d="M738 103c42 0 75 9 99 27s36 48.667 36 92v4c0 40 -11.5 69.5 -34.5 88.5s-56.5 28.5 -100.5 28.5h-87v-240h87zM518 304l-302 -0.000976562v-304h-134v715h134v-304h302v304h133v-275h90c38 0 73 -4.16699 105 -12.5s59.5 -21.166 82.5 -38.499s41 -39.5 54 -66.5
s19.5 -59.5 19.5 -97.5v-4c0 -37.333 -6.33301 -69.833 -19 -97.5s-30.5 -50.667 -53.5 -69s-50.667 -32 -83 -41s-68.5 -13.5 -108.5 -13.5h-220v304z" />
    <glyph glyph-name="uni040B" unicode="&#x40b;" horiz-adv-x="805" 
d="M359 385c10.667 10.667 24.335 20.001 41.002 28.001c13.333 7.33301 30.5 13.833 51.5 19.5s45.5 8.5 73.5 8.5c77.333 0 133.833 -21.667 169.5 -65s53.5 -105.666 53.5 -186.999v-189h-133v189c0 24 -1.83301 45.167 -5.5 63.5s-10.334 33.666 -20.001 45.999
s-22.5 21.666 -38.5 27.999s-36 9.5 -60 9.5c-23.333 0 -43.333 -3 -60 -9s-30.334 -12.667 -41.001 -20c-12.667 -8 -23 -17.333 -31 -28v-279h-134v610h-199v105h538v-105h-205v-225z" />
    <glyph glyph-name="uni040C" unicode="&#x40c;" horiz-adv-x="659" 
d="M344 901h136l-99 -135h-91zM82 715h133v-324l274 325h143l-296 -342l311 -374h-157l-275 334v-334h-133v715z" />
    <glyph glyph-name="uni040D" unicode="&#x40d;" horiz-adv-x="763" 
d="M82 0v715h134v-536l332 536h134v-715h-134v539l-332 -539h-134zM247 901h136l53 -135h-91z" />
    <glyph glyph-name="uni040E" unicode="&#x40e;" horiz-adv-x="617" 
d="M324 761c-42 0 -75.999 12.833 -101.999 38.5s-40.333 59.5 -43 101.5h91c1.33301 -17.333 6.16602 -32.5 14.499 -45.5s21.5 -19.5 39.5 -19.5c18.667 0 32.5 6.5 41.5 19.5s14.5 28.167 16.5 45.5h90c-2.66699 -42 -17.5 -75.833 -44.5 -101.5
s-61.5 -38.5 -103.5 -38.5zM153.001 -9c-16 0 -28.668 1.49902 -38.001 4.49902s-14.666 5.16699 -15.999 6.5v110c2 -0.666992 6.83301 -1.83398 14.5 -3.50098s18.167 -2.5 31.5 -2.5c24.667 0 46 6.33301 64 19s34.333 33.334 49 62.001l-243 528h140l166 -381l162 381
h128l-239 -541c-12 -26.667 -24.333 -51.167 -37 -73.5s-27.5 -41.666 -44.5 -57.999s-36.667 -29 -59 -38s-48.5 -13.5 -78.5 -13.5z" />
    <glyph glyph-name="uni040F" unicode="&#x40f;" horiz-adv-x="741" 
d="M82 0v715h134v-608h310v608h134v-715h-231l-2 -130h-112l-2 130h-231z" />
    <glyph glyph-name="uni0410" unicode="&#x410;" horiz-adv-x="703" 
d="M266 715h174l236 -715h-138l-57 177h-273l-56 -177h-125zM239 274h211l-105 332z" />
    <glyph glyph-name="uni0411" unicode="&#x411;" horiz-adv-x="632" 
d="M593 215c0 -69.333 -22 -122.501 -66 -159.501s-107.333 -55.5 -190 -55.5h-255v715h449v-105h-317v-181h126c78.667 0 140.5 -17.167 185.5 -51.5s67.5 -87.166 67.5 -158.499v-4zM333 101.999c44 0 77 9.66797 99 29.001s33 47.666 33 84.999v4
c0 36.667 -11.167 64.667 -33.5 84s-56.833 29 -103.5 29h-114v-231h119z" />
    <glyph glyph-name="uni0412" unicode="&#x412;" horiz-adv-x="644" 
d="M82 715l256 -0.000976562c74 0 131.5 -14.667 172.5 -44s61.5 -76.666 61.5 -141.999v-4c0 -36 -8.66699 -67.167 -26 -93.5s-46.333 -45.833 -87 -58.5c48.667 -10.667 84.667 -29.5 108 -56.5s35 -64.5 35 -112.5v-4c0 -66.667 -21.167 -116.667 -63.5 -150
s-102.833 -50 -181.5 -50h-275v715zM341 94.999c44.667 0 77.5 9.66895 98.5 29.002s31.5 47.666 31.5 84.999v4c0 37.333 -10.833 65.166 -32.5 83.499s-57.167 27.5 -106.5 27.5h-120v-229h129zM322 414.001c44 0 75.333 8.33203 94 24.999s28 43.334 28 80.001v4
c0 34 -10 58.667 -30 74s-51.333 23 -94 23h-108v-206h110z" />
    <glyph glyph-name="uni0413" unicode="&#x413;" horiz-adv-x="549" 
d="M82 715h433v-107h-299v-608h-134v715z" />
    <glyph glyph-name="uni0414" unicode="&#x414;" horiz-adv-x="724" 
d="M244 286c-3.33301 -36.667 -8.33301 -70.167 -15 -100.5s-16.667 -56.5 -30 -78.5h296v502h-235c-0.666992 -22 -1.5 -46 -2.5 -72s-2.16699 -53.167 -3.5 -81.5s-2.83301 -57 -4.5 -86s-3.5 -56.833 -5.5 -83.5zM117 -130l-114 0.00390625v237h45
c24 9.33301 41.5 29.666 52.5 60.999s19.167 73.666 24.5 126.999c2.66699 35.333 5.16699 72.666 7.5 111.999s4 78 5 116s1.83301 73.667 2.5 107s1 61.666 1 84.999h486v-608h85v-237h-115l-5 130h-470z" />
    <glyph glyph-name="uni0415" unicode="&#x415;" horiz-adv-x="584" 
d="M82 715h447v-105h-314v-196h252v-100h-252v-209h331v-105h-464v715z" />
    <glyph glyph-name="uni0416" unicode="&#x416;" horiz-adv-x="937" 
d="M402 337l-242 -337h-145l273 369l-263 346h141l236 -326v326h131v-326l237 326h138l-261 -340l276 -375h-150l-240 336v-336h-131v337z" />
    <glyph glyph-name="uni0417" unicode="&#x417;" horiz-adv-x="626" 
d="M308 -10c-41.333 0 -78.167 5.83008 -110.5 17.4971s-60 28 -83 49s-41.333 46.5 -55 76.5s-22.5 63 -26.5 99h127c2.66699 -19.333 7.16699 -37.166 13.5 -53.499s15.333 -30.5 27 -42.5s26.334 -21.5 44.001 -28.5s39.167 -10.5 64.5 -10.5
c45.333 0 79.5 10.667 102.5 32s34.5 50.666 34.5 87.999c0 36.667 -10.167 63.334 -30.5 80.001s-55.5 25 -105.5 25h-81v92h79c41.333 0 70.666 9.33301 87.999 28s26 44.667 26 78c0 32 -9.66699 56.5 -29 73.5s-47 25.5 -83 25.5c-40 0 -70 -9.66699 -90 -29
s-33.667 -48.333 -41 -87h-125c8.66699 72.667 35.667 127.834 81 165.501s105.333 56.5 180 56.5c36 0 68.667 -4.66699 98 -14s54.5 -22.666 75.5 -39.999s37.333 -38 49 -62s17.5 -50.333 17.5 -79c0 -38 -9.83301 -71.167 -29.5 -99.5s-49.5 -48.166 -89.5 -59.499
c48 -7.33301 84.5 -24.833 109.5 -52.5s37.5 -63.834 37.5 -108.501c0 -32.667 -6.66699 -62.5 -20 -89.5s-32.166 -50.167 -56.499 -69.5s-53.333 -34.333 -87 -45s-70.834 -16 -111.501 -16z" />
    <glyph glyph-name="uni0418" unicode="&#x418;" horiz-adv-x="763" 
d="M82 0v715h134v-536l332 536h134v-715h-134v539l-332 -539h-134z" />
    <glyph glyph-name="uni0419" unicode="&#x419;" horiz-adv-x="763" 
d="M380 761c-42 0 -75.998 12.833 -101.998 38.5s-40.333 59.5 -43 101.5h92c1.33301 -17.333 6.16602 -32.5 14.499 -45.5s21.166 -19.5 38.499 -19.5c18.667 0 32.667 6.5 42 19.5s15 28.167 17 45.5h89c-2.66699 -42 -17.5 -75.833 -44.5 -101.5
s-61.5 -38.5 -103.5 -38.5zM82.002 0v715h134v-536l332 536h134v-715h-134v539l-332 -539h-134z" />
    <glyph glyph-name="uni041A" unicode="&#x41a;" horiz-adv-x="659" 
d="M82 715h133v-324l274 325h143l-296 -342l311 -374h-157l-275 334v-334h-133v715z" />
    <glyph glyph-name="uni041B" unicode="&#x41b;" horiz-adv-x="715" 
d="M263 259c-3.33301 -38 -8.83203 -73.334 -16.499 -106.001s-18.667 -61 -33 -85s-33 -43 -56 -57s-51.167 -21 -84.5 -21c-16 0 -28.333 1.66699 -37 5c-5.33301 1.33301 -9.66602 3 -12.999 5v114l8 -2c6.66699 -1.33301 14.667 -2 24 -2c28 0 48.333 14.5 61 43.5
s21.667 72.5 27 130.5c2.66699 36 5 74 7 114s3.66699 79.333 5 118s2.16602 75.334 2.49902 110.001s0.5 64.334 0.5 89.001h475v-715h-134v608h-220c-0.666992 -24.667 -1.33398 -51.334 -2.00098 -80.001s-1.66699 -58.167 -3 -88.5s-3 -60.833 -5 -91.5z" />
    <glyph glyph-name="uni041C" unicode="&#x41c;" horiz-adv-x="890" 
d="M82 715h178l188 -488l184 488h176v-715h-133v540l-213 -540h-43l-217 540v-540h-120v715z" />
    <glyph glyph-name="uni041D" unicode="&#x41d;" horiz-adv-x="751" 
d="M82 715h133v-304h321v304h134v-715h-134v304h-321v-304h-133v715z" />
    <glyph glyph-name="uni041E" unicode="&#x41e;" horiz-adv-x="814" 
d="M410 97c34 0 64.499 6.16406 91.499 18.4971s50 29.833 69 52.5s33.667 49.834 44 81.501s15.5 66.834 15.5 105.501v8c0 36.667 -5 70.667 -15 102s-24.5 58.333 -43.5 81s-42.333 40.5 -70 53.5s-58.834 19.5 -93.501 19.5c-35.333 0 -66.666 -6.16699 -93.999 -18.5
s-50.666 -29.833 -69.999 -52.5s-34 -49.667 -44 -81s-15 -66.333 -15 -105v-8c0 -39.333 5.66699 -74.666 17 -105.999s27 -58.333 47 -81s43.667 -40 71 -52s57.333 -18 90 -18zM407.999 -10.0029c-54.667 0 -104.334 9.1709 -149.001 27.5039s-82.667 43.833 -114 76.5
s-55.666 71.167 -72.999 115.5s-26 92.166 -26 143.499v8c0 52 8.83301 100.333 26.5 145s42.5 83.167 74.5 115.5s70.167 57.666 114.5 75.999s93.166 27.5 146.499 27.5s102 -9 146 -27s81.833 -43 113.5 -75s56.334 -70 74.001 -114s26.5 -92.333 26.5 -145v-8
c0 -52 -8.5 -100.333 -25.5 -145s-41.333 -83.334 -73 -116.001s-69.667 -58.334 -114 -77.001s-93.5 -28 -147.5 -28z" />
    <glyph glyph-name="uni041F" unicode="&#x41f;" horiz-adv-x="741" 
d="M526 608h-310v-608h-134v715h578v-715h-134v608z" />
    <glyph glyph-name="uni0420" unicode="&#x420;" horiz-adv-x="609" 
d="M82 715l230 0.000976562c40 0 76.333 -4.5 109 -13.5s60.5 -22.667 83.5 -41s40.833 -41.333 53.5 -69s19 -60.167 19 -97.5v-4c0 -38 -6.5 -70.667 -19.5 -98s-31 -49.833 -54 -67.5s-50.667 -30.834 -83 -39.501s-67.5 -13 -105.5 -13h-100v-272h-133v715zM312 368.001
c44 0 77.501 10.333 100.501 31s34.5 51 34.5 91v4c0 42.667 -11.833 73 -35.5 91s-56.834 27 -99.501 27h-97v-244h97z" />
    <glyph glyph-name="uni0421" unicode="&#x421;" horiz-adv-x="741" 
d="M395 -10c-56 0 -105.669 8.66602 -149.002 25.999s-79.833 41.666 -109.5 72.999s-52.167 69.333 -67.5 114s-23 94.667 -23 150v8c0 54 8.66699 103.333 26 148s41.5 83 72.5 115s67.667 57 110 75s88.5 27 138.5 27c40.667 0 78.834 -5.16699 114.501 -15.5
s67.167 -25.833 94.5 -46.5s49.5 -46.667 66.5 -78s27.5 -68 31.5 -110h-135c-7.33301 48 -24.666 84 -51.999 108s-67 36 -119 36c-31.333 0 -59.833 -6 -85.5 -18s-47.5 -29 -65.5 -51s-32 -49 -42 -81s-15 -68 -15 -108v-8c0 -80.667 18.167 -143.5 54.5 -188.5
s87.833 -67.5 154.5 -67.5c50 0 91.167 12.5 123.5 37.5s52.166 62.833 59.499 113.5h130c-5.33301 -43.333 -16.666 -81.166 -33.999 -113.499s-39.5 -59.166 -66.5 -80.499s-58.5 -37.5 -94.5 -48.5s-75.333 -16.5 -118 -16.5z" />
    <glyph glyph-name="uni0422" unicode="&#x422;" horiz-adv-x="583" 
d="M225 610h-199v105h532v-105h-199v-610h-134v610z" />
    <glyph glyph-name="uni0423" unicode="&#x423;" horiz-adv-x="617" 
d="M153 -9c-16 0 -28.668 1.49902 -38.001 4.49902s-14.666 5.16699 -15.999 6.5v110c2 -0.666992 6.83301 -1.83398 14.5 -3.50098s18.167 -2.5 31.5 -2.5c24.667 0 46 6.33301 64 19s34.333 33.334 49 62.001l-243 528h140l166 -381l162 381h128l-239 -541
c-12 -26.667 -24.333 -51.167 -37 -73.5s-27.5 -41.666 -44.5 -57.999s-36.667 -29 -59 -38s-48.5 -13.5 -78.5 -13.5z" />
    <glyph glyph-name="uni0424" unicode="&#x424;" horiz-adv-x="866" 
d="M499 634c46.667 -1.33301 90.001 -7.50098 130.001 -18.501s74.5 -27.5 103.5 -49.5s51.667 -49.667 68 -83s24.5 -72.666 24.5 -117.999v-8c-0.666992 -46 -9.66699 -85.833 -27 -119.5s-40.666 -61.5 -69.999 -83.5s-63.666 -38.667 -102.999 -50
s-81.333 -17.333 -126 -18v-96h-132v96c-46.667 0.666992 -90 6.66699 -130 18s-74.5 28 -103.5 50s-51.667 49.667 -68 83s-24.5 72.666 -24.5 117.999v6c0 46.667 8.66699 86.834 26 120.501s40.666 61.667 69.999 84s63.666 39 102.999 50s81.666 17.167 126.999 18.5v95
h132v-95zM367.001 536.999c-26.667 -1.33301 -51.501 -4.83301 -74.501 -10.5s-43.167 -15.334 -60.5 -29.001s-31.166 -31.5 -41.499 -53.5s-15.5 -49.667 -15.5 -83v-7c0 -31.333 4.83301 -57.666 14.5 -78.999s23 -38.833 40 -52.5s37.333 -23.667 61 -30
s49.167 -9.83301 76.5 -10.5v355zM499 182.999c26 0.666992 50.668 4 74.001 10s43.666 15.667 60.999 29s31 30.833 41 52.5s15.333 49.167 16 82.5v8c0 31.333 -4.83301 57.833 -14.5 79.5s-23 39.167 -40 52.5s-37.167 23 -60.5 29s-49 9.66699 -77 11v-354z" />
    <glyph glyph-name="uni0425" unicode="&#x425;" horiz-adv-x="696" 
d="M266 367l-214 348h150l152 -254l151 254h137l-211 -345l229 -370h-152l-168 279l-168 -279h-136z" />
    <glyph glyph-name="uni0426" unicode="&#x426;" horiz-adv-x="756" 
d="M629 -130l-5 130h-542v715h134v-608h310v608h134v-608h83v-237h-114z" />
    <glyph glyph-name="uni0427" unicode="&#x427;" horiz-adv-x="699" 
d="M484 0v318c-13.333 -10.667 -29 -20 -47 -28c-15.333 -7.33301 -34.333 -13.833 -57 -19.5s-49 -8.5 -79 -8.5c-78 0 -138.167 22.833 -180.5 68.5s-63.5 113.5 -63.5 203.5v181h134v-187c0 -55.333 11.167 -96 33.5 -122s55.833 -39 100.5 -39
c28.667 0 53.167 3.16699 73.5 9.5s36.833 13.5 49.5 21.5c14.667 9.33301 26.667 20 36 32v285h133v-715h-133z" />
    <glyph glyph-name="uni0428" unicode="&#x428;" horiz-adv-x="1017" 
d="M82 715h134v-608h226v608h134v-608h226v608h133v-715h-853v715z" />
    </font>
</defs>
</svg>
